<svg xmlns="http://www.w3.org/2000/svg" width="128" height="128" viewBox="0 0 33.867 33.867" id="crescent">
  <path fill="#a8d0ff" d="M26.78 26.213a2.912 2.292-51.081 0 1 3.613-.825 2.912 2.292-51.081 0 1-.046 3.705 2.912 2.292-51.081 0 1-3.613.825 2.912 2.292-51.081 0 1 .046-3.705M26.115 7.856a2.292 2.912-51.081 0 1-.825-3.612 2.292 2.912-51.081 0 1 3.705.046 2.292 2.912-51.081 0 1 .825 3.612 2.292 2.912-51.081 0 1-3.705-.046" paint-order="fill markers stroke"></path>
  <path fill="#06f" d="M7.522 26.613a2.912 2.292 38.384 0 1 .859 3.604 2.912 2.292 38.384 0 1-3.706-.011 2.912 2.292 38.384 0 1-.859-3.604 2.912 2.292 38.384 0 1 3.706.011M7.56 8.257a2.292 2.912 38.919 0 1-3.613.825 2.292 2.912 38.919 0 1 .046-3.705 2.292 2.912 38.919 0 1 3.612-.825 2.292 2.912 38.919 0 1-.046 3.705" paint-order="fill markers stroke"></path>
  <path fill="#00a1ff" d="M16.933 1.058c-8.767 0-15.875 7.108-15.875 15.875 0 8.768 7.108 15.875 15.875 15.875 3.183 0 6.293-.957 8.925-2.747-.54.067-.54-26.323 0-26.256a15.875 15.875 0 0 0-8.925-2.747Z" paint-order="fill markers stroke"></path>
  <path fill="#06f" d="M6.428 18.15a3.151 2.24 65.188 0 0-1.218 1.592 3.151 2.24 65.188 0 0 1.897 4.032 3.151 2.24 65.188 0 0 2.859-1.368 3.151 2.24 65.188 0 0-1.897-4.032 3.151 2.24 65.188 0 0-1.64-.225zm4.27-8.28a1.89 1.745 25.464 0 1-1.776-1.954 1.89 1.745 25.464 0 1 1.949-1.57 1.89 1.745 25.464 0 1 1.775 1.953 1.89 1.745 25.464 0 1-1.948 1.571" paint-order="fill markers stroke"></path>
  <path fill="#a8d0ff" d="M24.216 3.704A13.229 13.229 0 0 0 11 16.934a13.229 13.229 0 0 0 13.23 13.228 13.229 13.229 0 0 0 1.628-.1 15.875 15.875 0 0 0 6.95-13.129 15.875 15.875 0 0 0-6.949-13.128 13.229 13.229 0 0 0-1.63-.1 13.229 13.229 0 0 0-.013 0z" paint-order="fill markers stroke"></path>
  <path fill="#fafdff" d="M21.777 13.483a3.539 2.315 50.484 0 1-.466-4.203 3.539 2.315 50.484 0 1 4.038 1.257 3.539 2.315 50.484 0 1 .466 4.203 3.539 2.315 50.484 0 1-4.038-1.257zm-6.665 2.944a1.745 1.89 59.77 0 1 2.615-.365 1.745 1.89 59.77 0 1 .199 2.495 1.745 1.89 59.77 0 1-2.615.365 1.745 1.89 59.77 0 1-.2-2.495m6.946 5.622a1.745 1.89 59.77 0 1 2.615-.365 1.745 1.89 59.77 0 1 .2 2.495 1.745 1.89 59.77 0 1-2.616.365 1.745 1.89 59.77 0 1-.199-2.495" paint-order="fill markers stroke"></path>
</svg>
