<?xml version="1.0" encoding="UTF-8"?>
<svg version="1.1" xmlns="http://www.w3.org/2000/svg" width="512" height="512">
<path d="M0 0 C1.01790619 0.00215515 2.03581238 0.0043103 3.08456421 0.00653076 C17.69363523 0.05620146 32.02575853 0.30709809 46.375 3.3125 C47.34985352 3.51117676 48.32470703 3.70985352 49.32910156 3.91455078 C97.7109774 14.03517194 141.69928269 35.9516877 177.375 70.3125 C178.3640332 71.26068604 178.3640332 71.26068604 179.37304688 72.22802734 C188.86130305 81.37247479 197.6012044 90.66984009 205.375 101.3125 C206.23306152 102.46355017 207.09113451 103.61459177 207.94921875 104.765625 C213.98700965 112.95705946 219.33168863 121.47913432 224.375 130.3125 C225.03113281 131.446875 225.68726563 132.58125 226.36328125 133.75 C247.35616265 170.96393755 256.84845392 213.42318969 256.6875 255.875 C256.68534485 256.89540375 256.6831897 257.9158075 256.68096924 258.96713257 C256.6313415 273.59225491 256.39249067 287.94849138 253.375 302.3125 C253.06900879 303.7987085 253.06900879 303.7987085 252.75683594 305.31494141 C242.18999585 355.2959412 219.08405371 399.75299798 183.375 436.3125 C182.77478027 436.93318359 182.17456055 437.55386719 181.55615234 438.19335938 C174.5423046 445.43418642 167.50326074 452.31333348 159.375 458.3125 C158.7464209 458.78510254 158.1178418 459.25770508 157.47021484 459.74462891 C141.99890756 471.35793299 125.86021392 481.05401134 108.375 489.3125 C107.75898926 489.60721191 107.14297852 489.90192383 106.50830078 490.20556641 C87.4244002 499.25592348 67.09544073 505.38676201 46.375 509.3125 C45.56562988 509.47621094 44.75625977 509.63992188 43.92236328 509.80859375 C13.88110013 515.67977137 -20.7615176 514.58512909 -50.625 508.3125 C-52.14794678 507.99901611 -52.14794678 507.99901611 -53.70166016 507.67919922 C-110.43494813 495.6246171 -165.53157395 463.03689011 -200.625 416.3125 C-201.54684721 415.1408795 -202.47013598 413.97039241 -203.39453125 412.80078125 C-211.42455209 402.51541505 -218.1504509 391.62738558 -224.625 380.3125 C-225.18912598 379.34908691 -225.18912598 379.34908691 -225.76464844 378.36621094 C-236.23806033 360.43848335 -243.38962265 340.34829336 -248.625 320.3125 C-248.81787598 319.57547852 -249.01075195 318.83845703 -249.20947266 318.07910156 C-250.54119546 312.85670472 -251.63014342 307.60841993 -252.625 302.3125 C-252.77598145 301.55984863 -252.92696289 300.80719727 -253.08251953 300.03173828 C-258.86517392 270.13285751 -257.98157391 235.9958619 -251.625 206.3125 C-251.41069336 205.26449219 -251.19638672 204.21648437 -250.97558594 203.13671875 C-238.96920429 145.32433086 -205.90829961 90.24521329 -158.625 54.3125 C-158.08472168 53.89581055 -157.54444336 53.47912109 -156.98779297 53.04980469 C-125.1187531 28.55165293 -88.56685217 12.06060062 -49.1875 4 C-48.46860596 3.85264404 -47.74971191 3.70528809 -47.0090332 3.5534668 C-31.36274391 0.57960912 -15.88931954 -0.06050362 0 0 Z " fill="#F26C00" transform="translate(255.625,-0.3125)"/>
<path d="M0 0 C-3.23327211 57.86442151 -32.01992262 113.06775543 -72 154 C-72.60021973 154.62068359 -73.20043945 155.24136719 -73.81884766 155.88085938 C-80.8326954 163.12168642 -87.87173926 170.00083348 -96 176 C-96.6285791 176.47260254 -97.2571582 176.94520508 -97.90478516 177.43212891 C-113.37609244 189.04543299 -129.51478608 198.74151134 -147 207 C-147.61601074 207.29471191 -148.23202148 207.58942383 -148.86669922 207.89306641 C-167.9505998 216.94342348 -188.27955927 223.07426201 -209 227 C-209.80937012 227.16371094 -210.61874023 227.32742188 -211.45263672 227.49609375 C-241.49389987 233.36727137 -276.1365176 232.27262909 -306 226 C-307.52294678 225.68651611 -307.52294678 225.68651611 -309.07666016 225.36669922 C-365.80994813 213.3121171 -420.90657395 180.72439011 -456 134 C-456.92184721 132.8283795 -457.84513598 131.65789241 -458.76953125 130.48828125 C-466.79955209 120.20291505 -473.5254509 109.31488558 -480 98 C-480.56412598 97.03658691 -480.56412598 97.03658691 -481.13964844 96.05371094 C-489.52213403 81.70509945 -497.85692136 64.37791441 -501 48 C-500.67 47.01 -500.34 46.02 -500 45 C-499.42378906 45.49886719 -498.84757812 45.99773437 -498.25390625 46.51171875 C-457.49302379 79.46354971 -395.80366913 90.72101792 -345 96 C-345.31453125 95.00484375 -345.6290625 94.0096875 -345.953125 92.984375 C-349.4115609 81.78143061 -351.86689773 70.52351898 -354 59 C-353.40098877 59.05478516 -352.80197754 59.10957031 -352.18481445 59.16601562 C-344.26176103 59.88862982 -336.33765032 60.59917557 -328.4128418 61.30224609 C-326.93460953 61.43360848 -325.45641897 61.565441 -323.97827148 61.69775391 C-321.79160697 61.89342967 -319.60480305 62.08748204 -317.41796875 62.28125 C-316.13688232 62.39533203 -314.8557959 62.50941406 -313.53588867 62.62695312 C-312.02401934 62.75243451 -310.51204325 62.87663202 -309 63 C-307.99130859 63.08627151 -306.98261719 63.17254303 -305.94335938 63.26142883 C-296.73726069 63.99436899 -287.57901819 64.16343736 -278.3515625 64.16796875 C-276.76671319 64.17119963 -275.18186414 64.17456489 -273.59701538 64.17805481 C-270.28407099 64.18400212 -266.97115247 64.18589979 -263.65820312 64.18530273 C-260.33490459 64.18522229 -257.01174629 64.19204021 -253.68847656 64.20581055 C-224.66284892 64.32400866 -195.90009342 63.34290393 -167.0625 59.75 C-166.18988525 59.64328979 -165.31727051 59.53657959 -164.41821289 59.42663574 C-108.74784576 52.57616989 -45.41043774 40.95501883 -2.96875 1.72265625 C-1 0 -1 0 0 0 Z " fill="#FFCF41" transform="translate(511,282)"/>
<path d="M0 0 C1.01790619 0.00215515 2.03581238 0.0043103 3.08456421 0.00653076 C17.69363523 0.05620146 32.02575853 0.30709809 46.375 3.3125 C47.34985352 3.51117676 48.32470703 3.70985352 49.32910156 3.91455078 C97.7109774 14.03517194 141.69928269 35.9516877 177.375 70.3125 C178.3640332 71.26068604 178.3640332 71.26068604 179.37304688 72.22802734 C186.96162897 79.54163575 194.38732377 86.91457372 200.9375 95.1875 C201.39648682 95.76411377 201.85547363 96.34072754 202.32836914 96.93481445 C205.375 100.92108851 205.375 100.92108851 205.375 104.3125 C163.11615851 120.10027382 118.85715708 130.54730706 73.79882812 134.10644531 C70.56551806 134.38131575 67.34318086 134.73791929 64.11787415 135.09310913 C43.79339384 137.28163505 23.39569444 137.49912279 2.97045898 137.49780273 C-0.79129393 137.49998768 -4.55275166 137.51823099 -8.31445312 137.53710938 C-24.19135518 137.57366482 -39.89773513 136.87805271 -55.71835327 135.55404663 C-58.18694382 135.34890311 -60.65557402 135.15794161 -63.1262207 134.97973633 C-110.69279404 131.4940798 -160.70007203 123.44811219 -204.625 104.3125 C-204.625 93.66345249 -184.59908407 78.17245162 -177.125 70.625 C-171.25873294 64.77194195 -165.23004535 59.33197205 -158.625 54.3125 C-158.08472168 53.89581055 -157.54444336 53.47912109 -156.98779297 53.04980469 C-125.1187531 28.55165293 -88.56685217 12.06060062 -49.1875 4 C-48.46860596 3.85264404 -47.74971191 3.70528809 -47.0090332 3.5534668 C-31.36274391 0.57960912 -15.88931954 -0.06050362 0 0 Z " fill="#FE7400" transform="translate(255.625,-0.3125)"/>
<path d="M0 0 C0.62640381 0.235979 1.25280762 0.47195801 1.89819336 0.71508789 C45.45951601 17.02144422 90.4926756 25.82921458 136.6875 30.3125 C137.52210754 30.39381165 138.35671509 30.47512329 139.21661377 30.55889893 C160.63841523 32.61384337 181.91871863 33.20288668 203.4375 33.1875 C204.73393433 33.18756042 206.03036865 33.18762085 207.36608887 33.18768311 C223.17818495 33.17720636 238.96164574 33.03875952 254.75 32.125 C255.79122513 32.06619156 255.79122513 32.06619156 256.85348511 32.00619507 C264.98333674 31.52905051 273.00582655 30.66325132 281.06835938 29.52807617 C285.32603268 28.9562091 289.58767743 28.49397897 293.859375 28.04296875 C302.70728081 27.08830582 311.47509531 25.78817376 320.25 24.3125 C321.01869415 24.18372467 321.78738831 24.05494934 322.57937622 23.92227173 C353.24831883 18.74367244 382.78031306 10.61281082 412 0 C419.01464901 8.36003365 424.50613971 17.60314969 430 27 C430.36770508 27.62648437 430.73541016 28.25296875 431.11425781 28.8984375 C438.80172191 42.16539375 444.66074566 56.57261076 449.85546875 70.9765625 C450.2270813 72.00257568 450.2270813 72.00257568 450.60620117 73.04931641 C451.07613897 75.37715461 450.79972685 76.77830835 450 79 C445.44247903 83.8653016 439.25011246 87.16298245 433.5 90.4375 C432.62299438 90.93963013 432.62299438 90.93963013 431.72827148 91.4519043 C418.71286357 98.66357675 405.18660028 104.37682349 391.0625 109 C390.29974762 109.25257568 389.53699524 109.50515137 388.75112915 109.76538086 C372.07574267 115.26151733 355.18361432 119.44106017 338 123 C336.49083008 123.31590088 336.49083008 123.31590088 334.95117188 123.63818359 C307.59982739 129.22217343 278.91654959 132.66585196 251 133 C251.70576172 134.10408203 251.70576172 134.10408203 252.42578125 135.23046875 C253.04839844 136.20628906 253.67101562 137.18210938 254.3125 138.1875 C255.23482422 139.63189453 255.23482422 139.63189453 256.17578125 141.10546875 C256.77777344 142.06066406 257.37976563 143.01585937 258 144 C258.56203125 144.88300781 259.1240625 145.76601562 259.703125 146.67578125 C261.40620095 149.72798062 261.50285348 151.55186187 261 155 C259.20006226 157.69990662 257.916227 159.5418865 255 161 C241.32653988 161.67577168 227.47079081 155.17765511 214.80474854 150.62902832 C192.03800798 142.47911684 170.07167626 135.86490159 146 133 C143.8783099 132.74002698 141.75687631 132.47801477 139.63543701 132.21600342 C130.75974391 131.12036454 121.88088232 130.05270986 113 129 C114.19994639 122.1601243 115.87493731 115.71151577 118.25 109.1875 C118.58064453 108.27403809 118.91128906 107.36057617 119.25195312 106.41943359 C124.21802907 93.20502956 130.68592627 80.60951402 137 68 C136.30890137 67.93530518 135.61780273 67.87061035 134.90576172 67.80395508 C116.10540423 66.00720229 97.5773843 63.42699012 79 60 C77.16405273 59.66162109 77.16405273 59.66162109 75.29101562 59.31640625 C42.86146864 53.22618894 11.5584007 43.74506825 -18 29 C-14.20272112 18.86163405 -7.6887252 7.6887252 0 0 Z " fill="#FFCF41" transform="translate(50,103)"/>
<path d="M0 0 C4.05139636 0.52636252 7.24337896 1.97331107 10.87207031 3.72924805 C41.66301921 18.56517445 75.50408421 26.27715301 109 32 C110.09586426 32.18836426 111.19172852 32.37672852 112.32080078 32.57080078 C123.93171885 34.54834204 135.52099749 36.33216172 147.25390625 37.4050293 C150.34142179 37.68946043 153.04532463 38.01510821 156 39 C154.5933369 43.95681282 152.3806275 48.32370857 150.06347656 52.89672852 C142.38313301 68.14108313 137.02342165 83.72445101 132 100 C132.89356201 100.05115967 133.78712402 100.10231934 134.70776367 100.1550293 C144.28509092 100.74319234 153.78864651 101.64836777 163.3125 102.8125 C164.0359964 102.90092163 164.7594928 102.98934326 165.50491333 103.08044434 C190.95007387 106.22714325 214.59942648 113.5147823 238.6875 122.25 C255.87455163 129.05643536 255.87455163 129.05643536 274 131 C277.06307631 129.02033737 277.06307631 129.02033737 279 126 C279.59813403 121.01554974 278.45380251 118.49596565 275.625 114.4375 C273.26259881 111.01056 271.48501132 107.88240644 270 104 C271.02319336 103.90501221 272.04638672 103.81002441 273.10058594 103.7121582 C306.02119846 100.63346234 338.79309894 97.28216954 371.02978516 89.69677734 C373.68610787 89.07363539 376.3468458 88.47971384 379.01171875 87.89453125 C408.66022545 81.17649878 439.37001481 70.78042785 464.20703125 52.9609375 C466.45507228 51.38259261 468.54222773 50.18138739 471 49 C474.56097508 61.85233691 477.4897364 74.66405935 479.375 87.875 C479.54225586 89.03161133 479.70951172 90.18822266 479.88183594 91.37988281 C482.29677239 109.26079938 482.29677239 109.26079938 479.33984375 113.2265625 C478.54707031 113.68804687 477.75429688 114.14953125 476.9375 114.625 C476.01710938 115.17542969 475.09671875 115.72585937 474.1484375 116.29296875 C473.10945313 116.85628906 472.07046875 117.41960937 471 118 C469.89914062 118.63550781 468.79828125 119.27101563 467.6640625 119.92578125 C401.12931186 157.62051396 314.02624293 166.35613205 228.75381088 166.38631821 C226.07452733 166.37478269 223.39527643 166.36873751 220.7159729 166.36392212 C187.97868049 166.2944592 155.34072589 165.6506101 123 160 C123.25305458 148.1950039 124.14442386 136.6237592 125.875 124.9375 C126.03645508 123.83365967 126.19791016 122.72981934 126.36425781 121.5925293 C127.49587165 114.27384429 129.08343345 107.15212431 131 100 C130.00597168 99.8548999 129.01194336 99.7097998 127.98779297 99.56030273 C90.98766813 94.11822637 53.35908505 87.41022087 19 72 C18.26668457 71.67563965 17.53336914 71.3512793 16.77783203 71.01708984 C7.05613286 66.68951889 -2.10097118 62.0068557 -10.921875 56.04296875 C-14.20927221 53.86110487 -17.5571807 51.92469169 -21 50 C-15.73926323 32.76345631 -9.48950367 15.4144222 0 0 Z " fill="#FF9300" transform="translate(31,132)"/>
<path d="M0 0 C1.37027637 4.11082912 -0.01418009 6.93962177 -1.375 10.875 C-1.64610596 11.66729004 -1.91721191 12.45958008 -2.1965332 13.27587891 C-14.90543883 49.55370632 -35.18701744 81.54843833 -62 109 C-62.60021973 109.62068359 -63.20043945 110.24136719 -63.81884766 110.88085938 C-83.86941246 131.58029241 -83.86941246 131.58029241 -91.8828125 132.39453125 C-96.54724397 132.87357596 -100.99632617 133.84905257 -105.55737305 134.91674805 C-139.38797268 142.77628172 -174.33130421 146.62620246 -209 148 C-210.30374573 148.05492615 -211.60749146 148.10985229 -212.95074463 148.16644287 C-222.00818646 148.54182518 -231.06278538 148.80187507 -240.12649536 148.96514893 C-243.18674452 149.02257219 -246.24344956 149.11181002 -249.30197144 149.22918701 C-274.9730879 150.17673271 -274.9730879 150.17673271 -281.73168945 145.0168457 C-284.62072577 142.23059358 -286.87319379 139.21596102 -288.92243958 135.77381897 C-290.60476828 133.0044647 -292.65246932 130.58120393 -294.6875 128.0625 C-296.14249889 126.05422914 -297.57938053 124.03273558 -299 122 C-299.39783691 121.43200684 -299.79567383 120.86401367 -300.20556641 120.27880859 C-306.76084834 110.85894775 -312.60060112 101.12356373 -318 91 C-318.34272949 90.35981934 -318.68545898 89.71963867 -319.03857422 89.06005859 C-323.33501691 80.95872411 -327.06834666 72.69133422 -330.5 64.1875 C-330.85070557 63.32092773 -331.20141113 62.45435547 -331.56274414 61.56152344 C-331.88235107 60.75102539 -332.20195801 59.94052734 -332.53125 59.10546875 C-332.81548828 58.38512451 -333.09972656 57.66478027 -333.39257812 56.92260742 C-334 55 -334 55 -334 52 C-323.72673762 52.52400533 -313.49011077 53.24607312 -303.25170898 54.25146484 C-284.30053634 56.01573496 -265.26870518 56.20602354 -246.25 56.1875 C-245.09291534 56.18689575 -243.93583069 56.1862915 -242.74368286 56.18566895 C-176.01149088 56.09159026 -105.2340296 49.36230841 -43 24 C-42.25105469 23.69626465 -41.50210937 23.3925293 -40.73046875 23.07958984 C-26.25424418 17.1269515 -12.21606923 9.87682193 0 0 Z " fill="#FFECB8" transform="translate(501,327)"/>
<path d="M0 0 C0.79680176 0.21156738 1.59360352 0.42313477 2.41455078 0.64111328 C12.96129144 3.6461404 22.87408371 8.25801465 32.77197266 12.92285156 C35.06303643 13.98493411 37.36251567 14.97442785 39.69921875 15.9296875 C47.7427771 19.53574269 50.8337114 24.26433635 54.421875 31.953125 C60.21066755 44.23273067 69.08217569 55.98688259 77.90263367 66.27388 C79.14955675 67.76767444 80.32505312 69.32116922 81.470047 70.89445496 C86.11393605 76.82414343 86.11393605 76.82414343 92.74041748 80.17765808 C96.5073027 80.50852422 100.13116632 80.50383369 103.91015625 80.3671875 C105.308319 80.35548757 106.7065273 80.3484364 108.10473633 80.34570312 C111.82459816 80.32375136 115.53954466 80.23210929 119.25777054 80.12374115 C122.35265062 80.04150416 125.44758621 79.99845975 128.54321957 79.95532417 C151.91136664 79.6255216 175.2700309 78.85340451 198.5 76.1875 C199.8008252 76.03831116 199.8008252 76.03831116 201.12792969 75.8861084 C222.25564154 73.4253179 243.16362914 70.27585782 263.87133789 65.37207031 C265.07653076 65.08686523 266.28172363 64.80166016 267.5234375 64.5078125 C268.56419434 64.25273926 269.60495117 63.99766602 270.67724609 63.73486328 C273.36770732 63.21315302 275.76849311 63.08150123 278.5 63.1875 C251.05363356 91.68564326 205.47707199 106.9922846 167.5 114.1875 C166.69062988 114.35121094 165.88125977 114.51492188 165.04736328 114.68359375 C135.00610013 120.55477137 100.3634824 119.46012909 70.5 113.1875 C69.48470215 112.97851074 68.4694043 112.76952148 67.42333984 112.55419922 C11.01800001 100.5692989 -44.86689663 68.00495743 -79.5 21.1875 C-80.25925781 20.16398437 -81.01851562 19.14046875 -81.80078125 18.0859375 C-83.72049314 15.46664149 -85.62024532 12.83554678 -87.5 10.1875 C-86.84 9.8575 -86.18 9.5275 -85.5 9.1875 C-82.56474152 10.24754055 -79.69776212 11.37838907 -76.8125 12.5625 C-57.69933633 20.13119762 -37.51047807 25.54973928 -17.5 30.1875 C-18.02400391 28.65029297 -18.02400391 28.65029297 -18.55859375 27.08203125 C-19.01839036 25.72140863 -19.4780168 24.36072849 -19.9375 23 C-20.16759766 22.32646484 -20.39769531 21.65292969 -20.63476562 20.95898438 C-22.67130952 14.90838293 -23.96656346 9.60274754 -23.5 3.1875 C-18.97418685 -5.00206665 -7.56919894 -2.02321878 0 0 Z " fill="#FE7400" transform="translate(134.5,394.8125)"/>
<path d="M0 0 C8.01451928 4.90652657 15.60727005 10.19882592 23 16 C23.96035156 16.7528125 24.92070312 17.505625 25.91015625 18.28125 C39.64254961 29.47979529 52.82715684 42.20860676 63.8125 56.125 C64.25609863 56.68614502 64.69969727 57.24729004 65.15673828 57.82543945 C67.14208001 60.45620283 68 61.61934153 68 65 C25.74115851 80.78777382 -18.51784292 91.23480706 -63.57617188 94.79394531 C-66.80943761 95.06881198 -70.03173051 95.42539794 -73.25698853 95.78062439 C-93.75295007 97.98738006 -114.3021941 98.16448468 -134.89892578 98.13037109 C-138.75947966 98.12498678 -142.61991825 98.13036675 -146.48046875 98.13671875 C-160.01988496 98.13996811 -173.49031999 97.92581166 -187 97 C-187 96.67 -187 96.34 -187 96 C-186.01 96 -185.02 96 -184 96 C-178.48220045 95.21015369 -175.50424642 90.99692265 -172 87 C-171.40058594 86.319375 -170.80117187 85.63875 -170.18359375 84.9375 C-169.02234273 83.60738697 -167.86476372 82.27405888 -166.7109375 80.9375 C-161.58938249 75.13774821 -155.90639559 69.98294984 -150 65 C-149.46793945 64.54351074 -148.93587891 64.08702148 -148.38769531 63.61669922 C-112.20998655 32.69059334 -64.95423402 11.09854245 -17.6015625 5.36279297 C-14.12390907 4.87782741 -10.7142881 4.15413037 -7.2890625 3.38696289 C-4.82125019 2.96978259 -2.49819077 2.93572455 0 3 C0 2.01 0 1.02 0 0 Z " fill="#FE9300" transform="translate(393,39)"/>
<path d="M0 0 C1.41952217 -0.01058945 1.41952217 -0.01058945 2.86772156 -0.02139282 C42.38370862 -0.24928599 42.38370862 -0.24928599 58.8671875 3.203125 C59.84204102 3.40180176 60.81689453 3.60047852 61.82128906 3.80517578 C88.91982562 9.47370388 129.50110268 18.83704018 149.8671875 39.203125 C149.8671875 40.193125 149.8671875 41.183125 149.8671875 42.203125 C61.27572785 63.89651936 -37.19862163 59.10871437 -126.1328125 42.203125 C-124.93919781 38.62228094 -124.2200928 38.37663722 -121.0390625 36.56640625 C-120.18280273 36.07567627 -119.32654297 35.58494629 -118.44433594 35.0793457 C-117.05263184 34.30530396 -117.05263184 34.30530396 -115.6328125 33.515625 C-114.67665039 32.9796167 -113.72048828 32.4436084 -112.73535156 31.89135742 C-83.61276122 15.73613174 -52.18548943 5.44541179 -19.1328125 1.203125 C-18.13200401 1.07213158 -18.13200401 1.07213158 -17.11097717 0.93849182 C-11.39460774 0.24225009 -5.75538618 0.02856336 0 0 Z " fill="#D55A00" transform="translate(243.1328125,-0.203125)"/>
<path d="M0 0 C4.04010605 3.77269295 7.05721821 7.74863112 10.0625 12.375 C10.48337891 13.00921875 10.90425781 13.6434375 11.33789062 14.296875 C19 25.93852955 19 25.93852955 19 29 C-32.20886414 54.81805665 -90.34085322 64.20698959 -147 69 C-148.1432373 69.10441406 -149.28647461 69.20882812 -150.46435547 69.31640625 C-190.55251756 72.91471877 -233.04332973 73.56485621 -273 68 C-269.81371375 61.65333227 -266.25392031 55.70525959 -262.125 49.9375 C-261.73908691 49.39722168 -261.35317383 48.85694336 -260.95556641 48.30029297 C-260.15728613 47.20196604 -259.34026326 46.1170199 -258.50518799 45.04640198 C-256.92710763 42.97296927 -256.92710763 42.97296927 -255.5173645 40.48768616 C-252.77898912 36.29196235 -250.71586604 33.45685096 -245.74795532 32.13414001 C-241.7053601 31.8740745 -237.77672429 31.92659744 -233.734375 32.09375 C-232.22843737 32.11834437 -230.72241488 32.13815061 -229.21635437 32.1534729 C-226.0348659 32.19443411 -222.85607029 32.26506192 -219.67575073 32.3604126 C-214.73742067 32.50748709 -209.79967042 32.5860709 -204.85961914 32.64794922 C-203.64117797 32.66347367 -203.64117797 32.66347367 -202.39812183 32.67931175 C-200.7684425 32.70003242 -199.1387609 32.7205762 -197.50907707 32.74094009 C-195.09071655 32.77332121 -192.67252851 32.81198449 -190.25428772 32.8522644 C-178.61966088 33.03843557 -167.05307895 32.88136328 -155.4375 32.125 C-154.1268457 32.04572266 -152.81619141 31.96644531 -151.46582031 31.88476562 C-144.25080899 31.38771011 -137.12107557 30.53034712 -129.96020508 29.52807617 C-125.69282026 28.95903891 -121.42150792 28.49530352 -117.140625 28.04296875 C-108.29272409 27.08822372 -99.52491103 25.78817482 -90.75 24.3125 C-89.98130585 24.18372467 -89.21261169 24.05494934 -88.42062378 23.92227173 C-58.16935701 18.81419903 -28.5546581 11.3183809 0 0 Z " fill="#FFECB7" transform="translate(461,103)"/>
<path d="M0 0 C4.00394178 0.62046555 6.91031441 2.77604622 10.1875 5 C22.70095435 13.23870277 35.87364903 19.97286824 50 25 C51.54083252 25.55107422 51.54083252 25.55107422 53.11279297 26.11328125 C80.48890934 35.8012202 108.07784369 42.11359559 136.7199707 46.7800293 C137.58627106 46.92160965 138.45257141 47.06319 139.34512329 47.20906067 C140.98379514 47.47547259 142.62299995 47.73863243 144.26278687 47.99809265 C149.78114965 48.89057483 149.78114965 48.89057483 152 50 C151.53249037 55.32960976 150.72593315 60.42608773 149.59375 65.65625 C147.72177582 74.68168091 146.76508781 83.77771813 145.8125 92.9375 C145.63408969 94.60358279 145.45505647 96.26959901 145.27539062 97.93554688 C144.84310641 101.9563032 144.4191536 105.97785454 144 110 C94.51304098 102.95390836 42.20198676 93.91111232 -0.99853516 67.22753906 C-2.98658882 65.97437957 -2.98658882 65.97437957 -5.09130859 64.92089844 C-7.11569441 63.76309359 -8.52582054 62.81044094 -10 61 C-10.80057606 57.58997659 -10.42339132 54.45167551 -10 51 C-9.89381348 50.0104834 -9.78762695 49.0209668 -9.67822266 48.00146484 C-9.28435278 44.71853649 -8.81175247 41.45601783 -8.3125 38.1875 C-8.13678467 37.01638672 -7.96106934 35.84527344 -7.7800293 34.63867188 C-5.96164588 22.98962842 -3.73608886 11.20826658 0 0 Z " fill="#FE7400" transform="translate(10,182)"/>
<path d="M0 0 C0.66 0.33 1.32 0.66 2 1 C-5.96204556 12.09728328 -14.45851124 22.23330518 -24 32 C-24.60166992 32.62213379 -25.20333984 33.24426758 -25.82324219 33.88525391 C-45.86937879 54.58028899 -45.86937879 54.58028899 -53.8828125 55.39453125 C-58.54724397 55.87357596 -62.99632617 56.84905257 -67.55737305 57.91674805 C-101.38797268 65.77628172 -136.33130421 69.62620246 -171 71 C-172.30374573 71.05492615 -173.60749146 71.10985229 -174.95074463 71.16644287 C-184.00818646 71.54182518 -193.06278538 71.80187507 -202.12649536 71.96514893 C-205.18674452 72.02257219 -208.24344956 72.11181002 -211.30197144 72.22918701 C-236.9730879 73.17673271 -236.9730879 73.17673271 -243.73168945 68.0168457 C-246.62072577 65.23059358 -248.87319379 62.21596102 -250.92243958 58.77381897 C-252.60476828 56.0044647 -254.65246932 53.58120393 -256.6875 51.0625 C-258.14249889 49.05422914 -259.57938053 47.03273558 -261 45 C-261.39783691 44.43200684 -261.79567383 43.86401367 -262.20556641 43.27880859 C-267.19578265 36.10792821 -271.84612092 28.76948195 -276.1875 21.1875 C-276.58646484 20.49946289 -276.98542969 19.81142578 -277.39648438 19.10253906 C-278.32986065 17.43675673 -279.17420222 15.72165039 -280 14 C-279.67 13.34 -279.34 12.68 -279 12 C-278.41210693 12.27150879 -277.82421387 12.54301758 -277.21850586 12.82275391 C-271.41219545 15.49858257 -265.59304519 18.14420682 -259.75976562 20.76074219 C-258.13385051 21.49085057 -256.50945847 22.22439666 -254.88867188 22.96582031 C-250.66958833 24.8842062 -246.38481554 26.51012327 -242 28 C-241.23768066 28.27360352 -240.47536133 28.54720703 -239.68994141 28.82910156 C-206.38681079 40.30312636 -166.41965565 34.55035351 -132 31 C-130.10773682 30.80784912 -130.10773682 30.80784912 -128.17724609 30.61181641 C-121.67872454 29.93809788 -115.19438781 29.18905332 -108.71533203 28.34863281 C-106.25863423 28.03320713 -103.80035098 27.74465826 -101.33984375 27.4609375 C-76.40319696 24.36206154 -50.784381 18.05367001 -27 10 C-26.13342773 9.70851074 -25.26685547 9.41702148 -24.37402344 9.11669922 C-13.57542965 5.52862419 -13.57542965 5.52862419 -3.05078125 1.23046875 C-2.04402344 0.82441406 -1.03726562 0.41835938 0 0 Z " fill="#FECF42" transform="translate(463,404)"/>
<path d="M0 0 C0.79680176 0.21156738 1.59360352 0.42313477 2.41455078 0.64111328 C12.96129144 3.6461404 22.87408371 8.25801465 32.77197266 12.92285156 C35.06303643 13.98493411 37.36251567 14.97442785 39.69921875 15.9296875 C47.7427771 19.53574269 50.8337114 24.26433635 54.421875 31.953125 C62.12996585 48.30408512 74.6578034 63.2325674 86.91796875 76.39453125 C88.5 78.1875 88.5 78.1875 88.5 79.1875 C49.47159697 80.68859242 8.8466156 73.68448825 -28.99682617 64.64306641 C-31.51698743 64.1032721 -31.51698743 64.1032721 -34.18945312 64.21264648 C-37.45002196 64.17716058 -38.49969743 62.85323941 -40.8125 60.625 C-43.58477593 57.99620601 -46.37215247 55.41992114 -49.265625 52.92578125 C-63.88873446 40.18412732 -76.29176349 25.9767596 -87.5 10.1875 C-86.84 9.8575 -86.18 9.5275 -85.5 9.1875 C-82.56474152 10.24754055 -79.69776212 11.37838907 -76.8125 12.5625 C-57.69933633 20.13119762 -37.51047807 25.54973928 -17.5 30.1875 C-18.02400391 28.65029297 -18.02400391 28.65029297 -18.55859375 27.08203125 C-19.01839036 25.72140863 -19.4780168 24.36072849 -19.9375 23 C-20.16759766 22.32646484 -20.39769531 21.65292969 -20.63476562 20.95898438 C-22.67130952 14.90838293 -23.96656346 9.60274754 -23.5 3.1875 C-18.97418685 -5.00206665 -7.56919894 -2.02321878 0 0 Z " fill="#FE9300" transform="translate(134.5,394.8125)"/>
<path d="M0 0 C0.43787842 0.37801758 0.87575684 0.75603516 1.3269043 1.14550781 C42.15329176 36.28274672 98.73132179 51.32094669 151.3828125 57.5078125 C154 58 154 58 157 60 C157.85961914 62.45507812 157.85961914 62.45507812 158.53515625 65.53125 C158.91317383 67.21347656 158.91317383 67.21347656 159.29882812 68.9296875 C159.6768457 70.69699219 159.6768457 70.69699219 160.0625 72.5 C160.31837891 73.64726562 160.57425781 74.79453125 160.83789062 75.9765625 C162.31262002 82.6336957 163.69417739 89.30777836 165 96 C156.24496099 96.4060595 147.84411889 94.90203793 139.25 93.4375 C138.06232025 93.23734283 138.06232025 93.23734283 136.85064697 93.03314209 C97.78452049 86.40692941 58.9832196 75.98184928 24.34326172 56.29833984 C22.18732186 55.10379013 20.00471051 54.02668955 17.78515625 52.95703125 C11.52115415 49.64252938 8.184462 46.33943307 5.88671875 39.515625 C2.3089946 26.67012087 0.86038954 13.27670065 0 0 Z " fill="#FE9300" transform="translate(1,282)"/>
<path d="M0 0 C5.85244863 0.60025114 11.48897653 1.70612046 17.2331543 2.9675293 C41.26032723 8.22004203 65.5105378 11.56936836 90 13.75 C90.71721222 13.81614502 91.43442444 13.88229004 92.17337036 13.95043945 C98.72050412 14.54984925 105.20873511 15.13101911 111.7890625 14.83984375 C118.86721674 14.56718333 123.70725038 14.53170412 129.3046875 19.30078125 C132.85528643 22.69890799 136.08423616 26.34688188 139.28515625 30.07226562 C145.92615373 37.53771495 154.84609452 43.20776869 162.87109375 49.10449219 C164.59776479 50.38025446 166.30137091 51.68713235 168 53 C168 53.33 168 53.66 168 54 C110.64842118 55.36003379 56.97099882 41.68419369 9.5625 8.5625 C8.83385742 8.05412598 8.10521484 7.54575195 7.35449219 7.02197266 C6.68192383 6.54163574 6.00935547 6.06129883 5.31640625 5.56640625 C4.42610718 4.93134155 4.42610718 4.93134155 3.51782227 4.28344727 C2 3 2 3 0 0 Z " fill="#D55A00" transform="translate(99,458)"/>
<path d="M0 0 C8.21029709 4.22639766 16.55449348 9.80187828 20.390625 18.515625 C21.45860879 22.5405435 21.26900645 26.55659314 20.96484375 30.6796875 C17.04358329 32.64031773 12.84171297 31.89864164 8.7109375 30.8671875 C-5.94971311 25.60527748 -21.12366906 18.04691828 -30.03515625 4.6796875 C-30.58155694 -0.56575916 -30.58155694 -0.56575916 -28.72265625 -3.1328125 C-20.57820773 -8.86409109 -8.0876253 -3.51816905 0 0 Z " fill="#FFCF41" transform="translate(158.03515625,415.3203125)"/>
<path d="M0 0 C3.91075925 1.98968453 5.57689098 3.36533646 8 7 C7.9375 9.4375 7.9375 9.4375 7 12 C2.13575161 16.49007544 -0.99519972 17.33963006 -7.453125 17.29296875 C-12.05921771 16.7631268 -14.83427766 14.16572234 -18 11 C-18 6.69195585 -17.66616041 4.68369094 -14.625 1.5625 C-9.65042937 -0.58171148 -5.34061252 -0.80148866 0 0 Z " fill="#FF9401" transform="translate(274,222)"/>
<path d="M0 0 C1.68496298 0.96885372 3.35178756 1.96986723 5 3 C5 3.33 5 3.66 5 4 C-0.08086796 4.84681133 -4.84828377 5.09038099 -10 5 C-10 4.67 -10 4.34 -10 4 C-6.7 3.67 -3.4 3.34 0 3 C0 2.01 0 1.02 0 0 Z " fill="#F67000" transform="translate(393,39)"/>
</svg>
