<?xml version="1.0" encoding="UTF-8"?>
<svg version="1.1" xmlns="http://www.w3.org/2000/svg" width="512" height="512">
<path d="M0 0 C4.96979208 2.30740347 7.35404781 5.26091356 10 10 C10.36028331 12.81522481 10.5095794 15.22233921 10.45410156 18.02490234 C10.45468567 18.80606415 10.45526978 19.58722595 10.45587158 20.39205933 C10.45309947 22.95714785 10.42205033 25.52105366 10.390625 28.0859375 C10.38315947 29.8709754 10.37746801 31.65602152 10.37347412 33.44107056 C10.3582423 38.12659555 10.31898184 42.81162018 10.2746582 47.49694824 C10.23365243 52.2830529 10.21545179 57.06923885 10.1953125 61.85546875 C10.15248504 71.23719833 10.0842636 80.61855747 10 90 C11.23180496 90.12932922 12.46360992 90.25865845 13.73274231 90.39190674 C15.36717555 90.5674134 17.00158921 90.74310257 18.63598633 90.91894531 C19.44570137 91.00346954 20.25541641 91.08799377 21.08966827 91.17507935 C27.14436192 91.83184274 32.86462054 92.93908212 38.6875 94.75 C39.56631836 95.01385498 40.44513672 95.27770996 41.35058594 95.54956055 C60.59998689 101.45746225 77.70748889 110.24691957 94 122 C95.99718576 123.33754507 97.99683405 124.67142786 100 126 C100.65066437 125.3426738 101.30132874 124.6853476 101.97171021 124.00810242 C108.11363025 117.80599899 114.26279694 111.61119171 120.42015266 105.42441082 C123.58523587 102.24369116 126.74747572 99.06024967 129.90332031 95.87036133 C132.95063601 92.79038055 136.00528351 89.71784827 139.06509018 86.65027809 C140.22947579 85.48036184 141.39122366 84.30781401 142.55023575 83.13257408 C144.17772763 81.48321333 145.8144628 79.84357428 147.45361328 78.20581055 C148.38182892 77.27093307 149.31004456 76.3360556 150.26638794 75.37284851 C155.20512628 71.0858913 159.41203339 69.46038389 165.828125 69.71875 C170.63541142 70.3412763 173.70223495 72.4378161 176.8125 76 C179.36361816 79.49867633 180.17179095 82.01391713 180.3125 86.25 C180.34988281 86.97703125 180.38726562 87.7040625 180.42578125 88.453125 C179.294388 95.220725 174.36090024 100.07601733 169.67431641 104.71386719 C169.04938797 105.34405258 168.42445953 105.97423798 167.78059387 106.6235199 C165.72835948 108.68887706 163.66544311 110.74316063 161.6015625 112.796875 C160.16389854 114.23656165 158.72668002 115.67669323 157.28988647 117.11724854 C154.28372133 120.12782638 151.27222303 123.13293707 148.25683594 126.13427734 C144.39762458 129.97638236 140.55205906 133.83181987 136.71038246 137.69144821 C133.74751335 140.66517032 130.7775206 143.63169479 127.80533981 146.59610748 C126.38460617 148.01484413 124.96608594 149.43580097 123.54985428 150.85903168 C121.56857426 152.84795251 119.57789202 154.82696689 117.58447266 156.80371094 C117.00453049 157.3897258 116.42458832 157.97574066 115.82707214 158.57951355 C111.96792447 162.37923803 108.16496862 165.46195533 102.65625 166.3984375 C101.9446875 166.39070312 101.233125 166.38296875 100.5 166.375 C99.7884375 166.38273438 99.076875 166.39046875 98.34375 166.3984375 C92.46217026 165.39856894 88.69217036 162.00859347 84.5625 157.9375 C59.26854608 133.9495816 24.73798335 122.32640851 -9.75390625 122.78515625 C-24.33675106 123.22573385 -38.32829859 125.98754306 -52 131 C-53.01964844 131.36867187 -54.03929687 131.73734375 -55.08984375 132.1171875 C-69.06990627 137.55909103 -81.49427565 145.46624191 -93 155 C-93.82113281 155.66773438 -94.64226562 156.33546875 -95.48828125 157.0234375 C-120.27812941 178.00275632 -134.68927445 210.09684599 -138.6875 241.8125 C-140.2811858 262.42869075 -138.12895777 282.55544751 -131 302 C-130.63132813 303.01964844 -130.26265625 304.03929687 -129.8828125 305.08984375 C-124.44090897 319.06990627 -116.53375809 331.49427565 -107 343 C-106.33226562 343.82113281 -105.66453125 344.64226562 -104.9765625 345.48828125 C-83.99724368 370.27812941 -51.90315401 384.68927445 -20.1875 388.6875 C0.42869075 390.2811858 20.55544751 388.12895777 40 381 C41.01964844 380.63132812 42.03929687 380.26265625 43.08984375 379.8828125 C57.06990627 374.44090897 69.49427565 366.53375809 81 357 C81.82113281 356.33226562 82.64226562 355.66453125 83.48828125 354.9765625 C106.98828637 335.08882069 123.37427362 302.80352486 126.26367188 272.20800781 C126.60195352 268.12109349 126.93442747 264.03637739 127.17871094 259.94262695 C127.59579284 253.88093287 128.2100514 248.98872356 132.53515625 244.35546875 C138.38790273 239.87983909 138.38790273 239.87983909 143.03448486 239.85282898 C143.87839279 239.84567368 144.72230072 239.83851837 145.59178162 239.83114624 C146.51958939 239.82845734 147.44739716 239.82576843 148.40332031 239.82299805 C149.37908524 239.81642685 150.35485016 239.80985565 151.36018372 239.80308533 C154.5994982 239.78332401 157.83876626 239.77168312 161.078125 239.76171875 C162.18309074 239.75764322 163.28805649 239.7535677 164.42650604 239.74936867 C170.27538365 239.72849536 176.12423771 239.71419937 181.97314453 239.70483398 C188.01710974 239.69376984 194.06070674 239.65937315 200.10454178 239.61966228 C204.74911182 239.59352533 209.39359378 239.5851447 214.0382309 239.58155251 C216.26616654 239.57667863 218.49409804 239.56504199 220.72196198 239.54651451 C223.84130565 239.52218691 226.95969221 239.52307678 230.07910156 239.5300293 C231.45866783 239.51081421 231.45866783 239.51081421 232.86610413 239.49121094 C238.42265944 239.5363282 241.59263604 240.29252118 246 244 C249.62833663 247.81930172 250.31000458 250.88279006 250.5 256 C250.31000458 261.11720994 249.62833663 264.18069828 246 268 C241.35548691 271.7337959 237.78860134 272.56918215 231.97509766 272.45410156 C231.19393585 272.45468567 230.41277405 272.45526978 229.60794067 272.45587158 C227.04285215 272.45309947 224.47894634 272.42205033 221.9140625 272.390625 C220.1290246 272.38315947 218.34397848 272.37746801 216.55892944 272.37347412 C211.87340445 272.3582423 207.18837982 272.31898184 202.50305176 272.2746582 C197.7169471 272.23365243 192.93076115 272.21545179 188.14453125 272.1953125 C178.76280167 272.15248504 169.38144253 272.0842636 160 272 C159.87067078 273.15821259 159.74134155 274.31642517 159.60809326 275.50973511 C159.43257289 277.04931421 159.25688446 278.58887417 159.08105469 280.12841797 C158.99653046 280.88942307 158.91200623 281.65042816 158.82492065 282.43449402 C158.12808808 288.49008734 156.95149306 294.26739183 155.25 300.125 C154.98614502 301.05530029 154.72229004 301.98560059 154.45043945 302.9440918 C149.0439611 321.53819995 140.77465923 338.54951982 129.1640625 354.046875 C127.26888798 356.63306984 125.6257527 359.24174622 124 362 C124.6573262 362.65066437 125.3146524 363.30132874 125.99189758 363.97171021 C132.19400101 370.11363025 138.38880829 376.26279694 144.57558918 382.42015266 C147.75630884 385.58523587 150.93975033 388.74747572 154.12963867 391.90332031 C157.20961945 394.95063601 160.28215173 398.00528351 163.34972191 401.06509018 C164.51963816 402.22947579 165.69218599 403.39122366 166.86742592 404.55023575 C168.51678667 406.17772763 170.15642572 407.8144628 171.79418945 409.45361328 C172.72906693 410.38182892 173.6639444 411.31004456 174.62715149 412.26638794 C178.9141087 417.20512628 180.53961611 421.41203339 180.28125 427.828125 C179.6587237 432.63541142 177.5621839 435.70223495 174 438.8125 C170.50132367 441.36361816 167.98608287 442.17179095 163.75 442.3125 C163.02296875 442.34988281 162.2959375 442.38726562 161.546875 442.42578125 C155.33834357 441.38785192 150.72405411 437.09611319 146.43188477 432.77246094 C145.92367691 432.26469116 145.41546906 431.75692139 144.89186096 431.23376465 C143.23448623 429.57432055 141.58795956 427.90455087 139.94140625 426.234375 C138.78621688 425.07358309 137.63035794 423.91345716 136.47386169 422.75396729 C133.44724457 419.71595329 130.42974984 416.66903605 127.41412354 413.62011719 C124.3291115 410.50429266 121.2354777 407.39705414 118.14257812 404.2890625 C112.08662454 398.20103587 106.04028982 392.10356772 100 386 C98.57237664 386.9482441 97.14522188 387.89719372 95.71826172 388.84643555 C94.92346405 389.37480515 94.12866638 389.90317474 93.30978394 390.44755554 C91.35703634 391.7600299 89.4260002 393.09483889 87.5078125 394.45703125 C69.96620162 406.77036257 50.3913261 414.55219086 29.5625 419.3125 C28.51727173 419.55190308 28.51727173 419.55190308 27.45092773 419.79614258 C23.38592186 420.66355458 19.36839967 421.18906691 15.22631836 421.54760742 C13.75418129 421.67651619 13.75418129 421.67651619 12.25230408 421.80802917 C11.50904373 421.87137955 10.76578339 421.93472992 10 422 C10.00888245 422.98892242 10.01776489 423.97784485 10.0269165 424.99673462 C10.10806854 434.32483637 10.16799715 443.65286632 10.20724869 452.98124123 C10.22810691 457.77686929 10.25639228 462.57221196 10.30175781 467.36767578 C10.34527858 471.99720432 10.36915039 476.62645865 10.37950897 481.25617599 C10.38688917 483.02080984 10.40130111 484.78542899 10.42292023 486.54994583 C10.45203762 489.02532409 10.45595261 491.49957518 10.45410156 493.97509766 C10.46848267 494.70158508 10.48286377 495.42807251 10.49768066 496.17657471 C10.45668022 501.2572508 9.15835085 504.07128985 6 508 C2.18069828 511.62833663 -0.88279006 512.31000458 -6 512.5 C-11.11720994 512.31000458 -14.18069828 511.62833663 -18 508 C-21.7337959 503.35548691 -22.56918215 499.78860134 -22.45410156 493.97509766 C-22.45468567 493.19393585 -22.45526978 492.41277405 -22.45587158 491.60794067 C-22.45309947 489.04285215 -22.42205033 486.47894634 -22.390625 483.9140625 C-22.38315947 482.1290246 -22.37746801 480.34397848 -22.37347412 478.55892944 C-22.3582423 473.87340445 -22.31898184 469.18837982 -22.2746582 464.50305176 C-22.23365243 459.7169471 -22.21545179 454.93076115 -22.1953125 450.14453125 C-22.15248504 440.76280167 -22.0842636 431.38144253 -22 422 C-23.15821259 421.87067078 -24.31642517 421.74134155 -25.50973511 421.60809326 C-27.04931421 421.43257289 -28.58887417 421.25688446 -30.12841797 421.08105469 C-30.88942307 420.99653046 -31.65042816 420.91200623 -32.43449402 420.82492065 C-38.49008734 420.12808808 -44.26739183 418.95149306 -50.125 417.25 C-51.05530029 416.98614502 -51.98560059 416.72229004 -52.9440918 416.45043945 C-71.53819995 411.0439611 -88.54951982 402.77465923 -104.046875 391.1640625 C-106.63306984 389.26888798 -109.24174622 387.6257527 -112 386 C-112.65066437 386.6573262 -113.30132874 387.3146524 -113.97171021 387.99189758 C-120.11363025 394.19400101 -126.26279694 400.38880829 -132.42015266 406.57558918 C-135.58523587 409.75630884 -138.74747572 412.93975033 -141.90332031 416.12963867 C-144.95063601 419.20961945 -148.00528351 422.28215173 -151.06509018 425.34972191 C-152.22947579 426.51963816 -153.39122366 427.69218599 -154.55023575 428.86742592 C-156.17772763 430.51678667 -157.8144628 432.15642572 -159.45361328 433.79418945 C-160.38182892 434.72906693 -161.31004456 435.6639444 -162.26638794 436.62715149 C-167.20512628 440.9141087 -171.41203339 442.53961611 -177.828125 442.28125 C-182.63541142 441.6587237 -185.70223495 439.5621839 -188.8125 436 C-191.36361816 432.50132367 -192.17179095 429.98608287 -192.3125 425.75 C-192.34988281 425.02296875 -192.38726562 424.2959375 -192.42578125 423.546875 C-191.38785192 417.33834357 -187.09611319 412.72405411 -182.77246094 408.43188477 C-182.01080627 407.66957298 -182.01080627 407.66957298 -181.23376465 406.89186096 C-179.57432055 405.23448623 -177.90455087 403.58795956 -176.234375 401.94140625 C-175.07358309 400.78621688 -173.91345716 399.63035794 -172.75396729 398.47386169 C-169.71595329 395.44724457 -166.66903605 392.42974984 -163.62011719 389.41412354 C-160.50429266 386.3291115 -157.39705414 383.2354777 -154.2890625 380.14257812 C-148.20103587 374.08662454 -142.10356772 368.04028982 -136 362 C-136.9482441 360.57237664 -137.89719372 359.14522188 -138.84643555 357.71826172 C-139.37480515 356.92346405 -139.90317474 356.12866638 -140.44755554 355.30978394 C-141.7600299 353.35703634 -143.09483889 351.4260002 -144.45703125 349.5078125 C-156.77036257 331.96620162 -164.55219086 312.3913261 -169.3125 291.5625 C-169.55190308 290.51727173 -169.55190308 290.51727173 -169.79614258 289.45092773 C-170.66355458 285.38592186 -171.18906691 281.36839967 -171.54760742 277.22631836 C-171.6335466 276.24489365 -171.71948578 275.26346893 -171.80802917 274.25230408 C-171.87137955 273.50904373 -171.93472992 272.76578339 -172 272 C-172.98892242 272.00888245 -173.97784485 272.01776489 -174.99673462 272.0269165 C-184.32483637 272.10806854 -193.65286632 272.16799715 -202.98124123 272.20724869 C-207.77686929 272.22810691 -212.57221196 272.25639228 -217.36767578 272.30175781 C-221.99720432 272.34527858 -226.62645865 272.36915039 -231.25617599 272.37950897 C-233.02080984 272.38688917 -234.78542899 272.40130111 -236.54994583 272.42292023 C-239.02532409 272.45203762 -241.49957518 272.45595261 -243.97509766 272.45410156 C-244.70158508 272.46848267 -245.42807251 272.48286377 -246.17657471 272.49768066 C-251.2572508 272.45668022 -254.07128985 271.15835085 -258 268 C-261.62833663 264.18069828 -262.31000458 261.11720994 -262.5 256 C-262.31000458 250.88279006 -261.62833663 247.81930172 -258 244 C-253.35548691 240.2662041 -249.78860134 239.43081785 -243.97509766 239.54589844 C-243.19393585 239.54531433 -242.41277405 239.54473022 -241.60794067 239.54412842 C-239.04285215 239.54690053 -236.47894634 239.57794967 -233.9140625 239.609375 C-232.1290246 239.61684053 -230.34397848 239.62253199 -228.55892944 239.62652588 C-223.87340445 239.6417577 -219.18837982 239.68101816 -214.50305176 239.7253418 C-209.7169471 239.76634757 -204.93076115 239.78454821 -200.14453125 239.8046875 C-190.76280167 239.84751496 -181.38144253 239.9157364 -172 240 C-171.87067078 238.84178741 -171.74134155 237.68357483 -171.60809326 236.49026489 C-171.43257289 234.95068579 -171.25688446 233.41112583 -171.08105469 231.87158203 C-170.99653046 231.11057693 -170.91200623 230.34957184 -170.82492065 229.56550598 C-170.12808808 223.50991266 -168.95149306 217.73260817 -167.25 211.875 C-166.98614502 210.94469971 -166.72229004 210.01439941 -166.45043945 209.0559082 C-161.0439611 190.46180005 -152.77465923 173.45048018 -141.1640625 157.953125 C-139.26888798 155.36693016 -137.6257527 152.75825378 -136 150 C-136.6573262 149.34933563 -137.3146524 148.69867126 -137.99189758 148.02828979 C-144.19400101 141.88636975 -150.38880829 135.73720306 -156.57558918 129.57984734 C-159.75630884 126.41476413 -162.93975033 123.25252428 -166.12963867 120.09667969 C-169.20961945 117.04936399 -172.28215173 113.99471649 -175.34972191 110.93490982 C-176.51963816 109.77052421 -177.69218599 108.60877634 -178.86742592 107.44976425 C-180.51678667 105.82227237 -182.15642572 104.1855372 -183.79418945 102.54638672 C-185.19650566 101.15406326 -185.19650566 101.15406326 -186.62715149 99.73361206 C-190.9141087 94.79487372 -192.53961611 90.58796661 -192.28125 84.171875 C-191.6587237 79.36458858 -189.5621839 76.29776505 -186 73.1875 C-182.50132367 70.63638184 -179.98608287 69.82820905 -175.75 69.6875 C-175.02296875 69.65011719 -174.2959375 69.61273438 -173.546875 69.57421875 C-167.33834357 70.61214808 -162.72405411 74.90388681 -158.43188477 79.22753906 C-157.66957298 79.98919373 -157.66957298 79.98919373 -156.89186096 80.76623535 C-155.23448623 82.42567945 -153.58795956 84.09544913 -151.94140625 85.765625 C-150.78621688 86.92641691 -149.63035794 88.08654284 -148.47386169 89.24603271 C-145.44724457 92.28404671 -142.42974984 95.33096395 -139.41412354 98.37988281 C-136.3291115 101.49570734 -133.2354777 104.60294586 -130.14257812 107.7109375 C-124.08662454 113.79896413 -118.04028982 119.89643228 -112 126 C-110.57237664 125.0517559 -109.14522188 124.10280628 -107.71826172 123.15356445 C-106.92346405 122.62519485 -106.12866638 122.09682526 -105.30978394 121.55244446 C-103.35703634 120.2399701 -101.4260002 118.90516111 -99.5078125 117.54296875 C-81.96620162 105.22963743 -62.3913261 97.44780914 -41.5625 92.6875 C-40.86568115 92.52789795 -40.1688623 92.3682959 -39.45092773 92.20385742 C-35.38592186 91.33644542 -31.36839967 90.81093309 -27.22631836 90.45239258 C-26.24489365 90.3664534 -25.26346893 90.28051422 -24.25230408 90.19197083 C-23.50904373 90.12862045 -22.76578339 90.06527008 -22 90 C-22.00888245 89.01107758 -22.01776489 88.02215515 -22.0269165 87.00326538 C-22.10806854 77.67516363 -22.16799715 68.34713368 -22.20724869 59.01875877 C-22.22810691 54.22313071 -22.25639228 49.42778804 -22.30175781 44.63232422 C-22.34527858 40.00279568 -22.36915039 35.37354135 -22.37950897 30.74382401 C-22.38688917 28.97919016 -22.40130111 27.21457101 -22.42292023 25.45005417 C-22.45203762 22.97467591 -22.45595261 20.50042482 -22.45410156 18.02490234 C-22.46848267 17.29841492 -22.48286377 16.57192749 -22.49768066 15.82342529 C-22.45668022 10.7427492 -21.15835085 7.92871015 -18 4 C-12.72867143 -1.00776214 -6.89190982 -0.92775709 0 0 Z " fill="#FFC61B" transform="translate(262,0)"/>
<path d="M0 0 C0.95648438 0.40605469 1.91296875 0.81210938 2.8984375 1.23046875 C27.09852319 12.29243822 45.95263011 33.57675884 56 58 C58.00074791 63.57812206 59.58037916 69.24965568 61 75 C61.37125 76.47146484 61.37125 76.47146484 61.75 77.97265625 C66.14213196 99.17079316 62.86538443 122.41246921 54 142 C53.59394531 142.95519531 53.18789063 143.91039062 52.76953125 144.89453125 C41.72096596 169.09769333 20.41775533 187.95488691 -4 198 C-9.57812206 200.00074791 -15.24965568 201.58037916 -21 203 C-21.98097656 203.2475 -22.96195313 203.495 -23.97265625 203.75 C-45.17079316 208.14213196 -68.41246921 204.86538443 -88 196 C-88.95519531 195.59394531 -89.91039062 195.18789063 -90.89453125 194.76953125 C-115.09111553 183.72396868 -133.96561208 162.41788391 -144 138 C-153.8705806 110.26620278 -154.11525691 81.08957151 -142 54 C-141.59394531 53.04351562 -141.18789062 52.08703125 -140.76953125 51.1015625 C-129.71056766 26.90805271 -108.42337024 8.03664249 -84 -2 C-56.26620278 -11.8705806 -27.08957151 -12.11525691 0 0 Z " fill="#FEC61B" transform="translate(300,158)"/>
<path d="M0 0 C2.47794729 1.92357169 4.83167887 3.92291203 7.1640625 6.01953125 C7.77507812 6.53773438 8.38609375 7.0559375 9.015625 7.58984375 C22.85679709 20.16698186 30.74841874 40.06509899 31.74267578 58.49804688 C32.16489054 78.60435825 24.21793516 97.06035962 11.1640625 112.01953125 C10.64457031 112.63441406 10.12507812 113.24929688 9.58984375 113.8828125 C1.03294788 123.25875633 -10.91723903 129.22518904 -22.8359375 133.01953125 C-23.77566406 133.33792969 -24.71539062 133.65632812 -25.68359375 133.984375 C-43.91697857 139.4268021 -62.65789303 135.75370379 -79.23852539 127.22680664 C-84.98192696 124.11374139 -90.00651778 120.42547573 -94.8359375 116.01953125 C-95.74859375 115.24416016 -95.74859375 115.24416016 -96.6796875 114.453125 C-110.04346343 102.33461001 -117.99239897 82.69751779 -119.15625 64.984375 C-119.97794525 44.43725768 -112.70103182 25.21726244 -98.8359375 10.01953125 C-98.31902344 9.41109375 -97.80210937 8.80265625 -97.26953125 8.17578125 C-72.31598758 -19.34191102 -29.31763188 -20.47388342 0 0 Z " fill="#FEE086" transform="translate(299.8359375,194.98046875)"/>
</svg>
