<?xml version="1.0" encoding="UTF-8"?>
<svg version="1.1" xmlns="http://www.w3.org/2000/svg" width="512" height="512">
<path d="M0 0 C1.01545898 0.19867676 2.03091797 0.39735352 3.07714844 0.60205078 C49.24025804 9.83605607 91.7351562 30.93677833 126.5078125 62.73046875 C128.13205496 64.20959863 129.77213216 65.67158119 131.4296875 67.11328125 C173.86904753 104.1968754 200.50495443 159.87137828 209 215 C209.17805176 216.13840332 209.35610352 217.27680664 209.53955078 218.44970703 C211.13534907 229.72012161 211.40030139 240.8778197 211.375 252.25 C211.37368576 253.69898682 211.37368576 253.69898682 211.37234497 255.17724609 C211.18692702 317.39555507 188.374998 378.94485506 145.40234375 424.4453125 C143.4148843 426.55880597 141.54159008 428.70889297 139.6875 430.9375 C105.99996897 469.48304378 54.92776258 494.30219063 5.625 504.8125 C4.71169922 505.00755127 3.79839844 505.20260254 2.85742188 505.40356445 C-12.95919084 508.58005817 -28.53317252 509.37688866 -44.625 509.3125 C-45.59555328 509.31034485 -46.56610657 509.3081897 -47.56607056 509.30596924 C-61.8908522 509.25494571 -75.92682151 508.92030817 -90 506 C-91.49055908 505.69400879 -91.49055908 505.69400879 -93.01123047 505.38183594 C-154.9823727 492.27604104 -210.03718951 458.0470583 -249 408 C-249.41572266 407.46745605 -249.83144531 406.93491211 -250.25976562 406.38623047 C-291.63624332 352.94927575 -307.68715611 284.84291932 -299.40649414 218.23413086 C-293.88764754 178.60155143 -279.42484111 139.6257807 -256 107 C-255.30519531 106.03191406 -254.61039063 105.06382813 -253.89453125 104.06640625 C-248.27179469 96.41351348 -242.24868736 89.14385833 -236 82 C-235.55930176 81.4946875 -235.11860352 80.989375 -234.66455078 80.46875 C-214.53833076 57.54411229 -189.97181944 39.14601737 -163 25 C-161.85265381 24.39671875 -161.85265381 24.39671875 -160.68212891 23.78125 C-139.71706802 12.91896385 -117.14264441 5.56768202 -94 1 C-93.0704248 0.80535156 -92.14084961 0.61070313 -91.18310547 0.41015625 C-62.18474036 -5.49075795 -29.03373123 -5.89036509 0 0 Z " fill="#FE9100" transform="translate(301,3)"/>
<path d="M0 0 C1.76296824 1.11616144 3.52519567 2.23349303 5.28710938 3.35131836 C6.26852905 3.97340683 7.24994873 4.5954953 8.2611084 5.23643494 C10.34547178 6.57855101 12.38889518 7.94017521 14.40625 9.37890625 C30.55025893 20.77347821 49.26785461 30.66318282 68 37 C69.24136719 37.4228125 70.48273438 37.845625 71.76171875 38.28125 C80.40596295 41.07835301 89.21858622 42.98715888 98.125 44.75 C99.17276611 44.96084229 100.22053223 45.17168457 101.30004883 45.38891602 C114.26433447 47.84330495 127.01269538 48.15259052 140.15231705 47.58612061 C144.74614667 47.40363711 149.34296737 47.3107491 153.93901253 47.20132446 C157.94106 47.10113817 161.93750763 46.9696358 165.93603516 46.77246094 C194.07861806 45.42398948 194.07861806 45.42398948 200.89086914 51.59399414 C203.8468358 55.04546024 205.99755677 58.72042402 207.92454529 62.82304382 C209.33781692 65.68381552 211.11042878 68.18604024 212.98065186 70.76303101 C234.98417112 101.29231585 248.30836972 139.06414958 254 176 C254.17805176 177.13840332 254.35610352 178.27680664 254.53955078 179.44970703 C256.13534907 190.72012161 256.40030139 201.8778197 256.375 213.25 C256.37412384 214.21599121 256.37324768 215.18198242 256.37234497 216.17724609 C256.20011462 273.97036266 236.59195307 331.60582519 199 376 C198.57203629 376.51940155 198.14407257 377.0388031 197.70314026 377.57394409 C195.49405096 379.42363606 194.27942616 379.37756202 191.42211914 379.38476562 C190.49066071 379.3950177 189.55920227 379.40526978 188.59951782 379.41583252 C187.5882785 379.41267029 186.57703918 379.40950806 185.53515625 379.40625 C183.36450084 379.42598455 181.19384658 379.44584626 179.02319336 379.46582031 C177.31726517 379.47337341 177.31726517 379.47337341 175.57687378 379.4810791 C155.910207 379.58696169 136.46121963 379.91160936 117 383 C115.38279053 383.25523437 115.38279053 383.25523437 113.73291016 383.515625 C93.39003832 386.84808316 73.8524819 392.29766865 54.58374023 399.57666016 C44.00392732 403.54790851 33.46643697 406.0821586 22.3125 407.75 C21.04817139 407.94190918 21.04817139 407.94190918 19.75830078 408.13769531 C15.03638668 408.78729016 10.44134246 409.05931815 5.67260742 409.03222656 C4.60612473 409.02757385 3.53964203 409.02292114 2.44084167 409.01812744 C1.63536392 409.01214539 0.82988617 409.00616333 0 409 C-1.29989315 283.16980484 -1.29989315 283.16980484 -0.52411652 227.03509521 C0.12544873 179.80251468 0.08734715 132.57160338 0.06401682 85.33547163 C0.06249835 82.24663897 0.06108989 79.15780627 0.05970383 76.06897354 C0.048108 50.7126406 0.02850291 25.35631951 0 0 Z " fill="#FE9000" transform="translate(256,42)"/>
<path d="M0 0 C5.98600836 3.80927805 11.74550868 7.50093353 17.5 11.5625 C32.76851432 21.96984949 50.49760259 31.07918899 68 37 C69.24136719 37.4228125 70.48273438 37.845625 71.76171875 38.28125 C80.40596295 41.07835301 89.21858622 42.98715888 98.125 44.75 C99.17276611 44.96084229 100.22053223 45.17168457 101.30004883 45.38891602 C114.26433447 47.84330495 127.01269538 48.15259052 140.15231705 47.58612061 C144.74614667 47.40363711 149.34296737 47.3107491 153.93901253 47.20132446 C157.94106 47.10113817 161.93750763 46.9696358 165.93603516 46.77246094 C194.07861806 45.42398948 194.07861806 45.42398948 200.89086914 51.59399414 C203.8468358 55.04546024 205.99755677 58.72042402 207.92454529 62.82304382 C209.33781692 65.68381552 211.11042878 68.18604024 212.98065186 70.76303101 C230.5355356 95.11995499 253.994533 138.08473848 252 169 C219.24224353 169.76180829 189.90744923 164.16856944 158.96875 154.05078125 C158.1599791 153.78679535 157.35120819 153.52280945 156.51792908 153.25082397 C152.43674194 151.918336 148.35789896 150.57951345 144.28344727 149.2265625 C118.27528972 140.64184162 88.60213212 134.48310135 62 144 C61.32356445 144.23605957 60.64712891 144.47211914 59.95019531 144.71533203 C49.45692958 148.44643133 40.26979609 153.5701215 30.99707031 159.68408203 C27.62372005 161.90686417 24.2220447 164.08329868 20.8125 166.25 C20.22009521 166.63776611 19.62769043 167.02553223 19.01733398 167.42504883 C12.85783716 171.34835342 6.83678166 173.84456231 0 177 C0 118.59 0 60.18 0 0 Z " fill="#FE6419" transform="translate(256,42)"/>
<path d="M0 0 C0.35811212 7.47364425 -0.88484831 13.81126184 -2.875 21 C-3.34256714 22.69926636 -3.34256714 22.69926636 -3.81958008 24.43286133 C-13.31741256 57.75028827 -29.96723067 89.23986067 -52 116 C-52.64008751 116.77822617 -52.64008751 116.77822617 -53.29310608 117.57217407 C-55.50500825 119.42244211 -56.71807611 119.37755572 -59.57788086 119.38476562 C-60.97506851 119.40014374 -60.97506851 119.40014374 -62.40048218 119.41583252 C-63.4117215 119.41267029 -64.42296082 119.40950806 -65.46484375 119.40625 C-67.63549916 119.42598455 -69.80615342 119.44584626 -71.97680664 119.46582031 C-73.68273483 119.47337341 -73.68273483 119.47337341 -75.42312622 119.4810791 C-95.089793 119.58696169 -114.53878037 119.91160936 -134 123 C-135.07813965 123.17015625 -136.1562793 123.3403125 -137.26708984 123.515625 C-157.60996168 126.84808316 -177.1475181 132.29766865 -196.41625977 139.57666016 C-206.99607268 143.54790851 -217.53356303 146.0821586 -228.6875 147.75 C-229.53038574 147.87793945 -230.37327148 148.00587891 -231.24169922 148.13769531 C-237.99376297 149.06657833 -244.02690073 149 -251 149 C-251 105.77 -251 62.54 -251 18 C-232.11111111 22.44444444 -232.11111111 22.44444444 -222.85546875 25.0703125 C-212.47966667 27.57227896 -202.53927837 28.33900169 -191.875 28.3125 C-190.60140625 28.32861328 -189.3278125 28.34472656 -188.015625 28.36132812 C-171.9677383 28.36936815 -157.05244226 25.00008498 -141.71984863 20.52908325 C-113.26113931 12.272288 -84.37467079 5.93394378 -54.94238281 2.35839844 C-52.27847301 2.03391955 -49.62024969 1.68008296 -46.9609375 1.3203125 C-31.38779269 -0.64191014 -15.66504114 -0.18975544 0 0 Z " fill="#FF6419" transform="translate(507,302)"/>
<path d="M0 0 C0 32.67 0 65.34 0 99 C-10.08222049 97.87975328 -10.08222049 97.87975328 -14.7734375 96.58203125 C-15.82668213 96.30004883 -16.87992676 96.01806641 -17.96508789 95.72753906 C-19.09035889 95.42557617 -20.21562988 95.12361328 -21.375 94.8125 C-31.50473158 92.20838652 -41.64409962 89.94315567 -51.94390869 88.12460327 C-53.93030306 87.77337469 -55.91423433 87.40829549 -57.89794922 87.04223633 C-84.89970919 82.30880549 -112.48361914 81.5386693 -139.82850623 81.49388909 C-143.79887916 81.484243 -147.76914974 81.45802881 -151.73945618 81.43388367 C-159.1933304 81.3909123 -166.64718407 81.36194676 -174.1011427 81.33856028 C-182.61455026 81.31112673 -191.12785123 81.26724626 -199.64118135 81.22227156 C-217.0940652 81.13042406 -234.54697237 81.05829698 -252 81 C-256.24700522 67.07963222 -256.27517447 52.91958266 -256.125 38.5 C-256.1149338 36.79036992 -256.10581449 35.080734 -256.09765625 33.37109375 C-256.07596845 29.24724711 -256.04164698 25.12369136 -256 21 C-255.11137897 20.99668985 -254.22275795 20.99337971 -253.30720901 20.98996925 C-231.60261591 20.9084567 -209.89809045 20.81627394 -188.19359207 20.71247292 C-177.69710979 20.66252642 -167.20063462 20.61608275 -156.70410156 20.578125 C-147.54655005 20.54500015 -138.38905684 20.5050588 -129.23157001 20.45720994 C-124.39074422 20.43214678 -119.54995609 20.41030811 -114.70908356 20.39665604 C-110.13559041 20.38364969 -105.56222783 20.36140396 -100.98880768 20.33261681 C-99.32661366 20.32368373 -97.66439871 20.31788509 -96.00218201 20.31578636 C-80.11041947 20.29216669 -64.09338046 19.3811033 -48.5625 15.8125 C-47.61640869 15.60036865 -46.67031738 15.3882373 -45.69555664 15.16967773 C-31.50044563 11.85831094 -17.78332836 7.0925442 -4.51953125 1.06640625 C-2 0 -2 0 0 0 Z " fill="#FDBE00" transform="translate(256,220)"/>
<path d="M0 0 C45.8025886 -0.63397961 89.22240375 2.20150345 132.87573242 16.97412109 C139.66774305 19.26144252 146.48553626 21.40027333 153.375 23.375 C154.1997583 23.613396 155.0245166 23.85179199 155.87426758 24.09741211 C168.96181412 27.78515164 181.27357815 28.75214347 195 30 C195 50.13 195 70.26 195 91 C169.32272118 91 169.32272118 91 161.6875 89.875 C160.75566895 89.74448242 159.82383789 89.61396484 158.86376953 89.47949219 C97.34340311 80.25706066 40.52914855 48.10144291 0 1 C0 0.67 0 0.34 0 0 Z " fill="#FDBE00" transform="translate(61,421)"/>
<path d="M0 0 C7.82673197 6.51073279 15.369588 14.37664518 17.20703125 24.8359375 C18.2247681 38.18394777 14.97102798 47.72519422 6.4609375 57.9296875 C-5.23983622 70.57917261 -21.95260483 76.11697803 -38.76953125 77.05859375 C-52.80753771 77.4755803 -66.35407213 75.75061115 -78.79296875 68.8359375 C-79.72882813 68.3203125 -80.6646875 67.8046875 -81.62890625 67.2734375 C-92.11591861 61.0674247 -98.7213943 53.36915267 -102.79296875 41.8359375 C-105.48898593 30.84580375 -103.51373837 21.5146177 -98.16796875 11.7734375 C-90.72628115 -0.01990034 -77.50136925 -7.59419178 -64.20703125 -11.11328125 C-41.95836449 -15.44833075 -18.68841211 -14.19451533 0 0 Z " fill="#FF6419" transform="translate(374.79296875,224.1640625)"/>
<path d="M0 0 C9.54808764 8.27405496 15.89866923 16.93981731 17.17578125 29.7109375 C17.73116256 40.00400453 13.75660882 49.1902984 6.98046875 56.7578125 C6.50222656 57.33917969 6.02398437 57.92054688 5.53125 58.51953125 C-3.8224584 69.00416661 -19.56166861 75.67306544 -33.40625 76.66015625 C-34.26863281 76.69238281 -35.13101563 76.72460938 -36.01953125 76.7578125 C-37.26347656 76.82097656 -38.50742188 76.88414062 -39.7890625 76.94921875 C-57.59356869 77.58369158 -74.77643114 73.21732453 -88.51953125 61.3203125 C-97.31789569 52.79644547 -102.9565686 43.7902823 -103.39453125 31.2578125 C-103.25102639 20.53408573 -98.7568834 12.57211364 -91.39453125 5.00390625 C-66.8850623 -18.17527902 -27.10025643 -20.12360568 0 0 Z " fill="#FDBE00" transform="translate(224.01953125,104.2421875)"/>
<path d="M0 0 C0 13.86 0 27.72 0 42 C-12 35 -12 35 -15.96875 32.6640625 C-32.50834377 23.0427813 -49.86227864 16.00088441 -68 10 C-65.76229741 7.76229741 -64.7791012 7.51940378 -61.765625 6.81640625 C-60.45658203 6.51029419 -60.45658203 6.51029419 -59.12109375 6.19799805 C-57.69990234 5.88342651 -57.69990234 5.88342651 -56.25 5.5625 C-55.26644531 5.34440674 -54.28289062 5.12631348 -53.26953125 4.90161133 C-35.35614143 1.04937678 -18.31974973 -0.35687824 0 0 Z " fill="#FDBE00" transform="translate(256,0)"/>
<path d="M0 0 C9.9 0 19.8 0 30 0 C30 9.9 30 19.8 30 30 C20.1 30 10.2 30 0 30 C0 20.1 0 10.2 0 0 Z " fill="#FDBF00" transform="translate(181,361)"/>
<path d="M0 0 C9.9 0 19.8 0 30 0 C30 9.9 30 19.8 30 30 C20.1 30 10.2 30 0 30 C0 20.1 0 10.2 0 0 Z " fill="#FF641A" transform="translate(422,241)"/>
</svg>
