<?xml version="1.0" encoding="UTF-8"?>
<svg version="1.1" xmlns="http://www.w3.org/2000/svg" width="512" height="512">
<path d="M0 0 C4.69994029 1.71728588 7.20959499 3.86606666 10 8 C11.66879733 13.006392 11.51555483 16.69516762 9.57007885 21.61902809 C6.60186911 27.28410845 2.07953454 31.45619916 -2.4337616 35.90805054 C-3.41080988 36.88612826 -4.38697597 37.8650879 -5.36233884 38.84484637 C-8.03323324 41.52271841 -10.71637966 44.18800688 -13.40174901 46.85135245 C-16.29993419 49.73015838 -19.18649209 52.62058211 -22.07447815 55.50961304 C-27.07606581 60.50988919 -32.08485584 65.5028548 -37.09859276 70.49094772 C-44.34913853 77.70451754 -51.58809893 84.92962352 -58.82421104 92.15766867 C-70.56749744 103.887331 -82.31932011 115.60840115 -94.0769043 127.32373047 C-105.49273489 138.69858455 -116.90577514 150.07622309 -128.31420898 161.45849609 C-129.01752364 162.16019446 -129.7208383 162.86189282 -130.44546553 163.58485477 C-138.11889658 171.24081562 -145.79151811 178.89758732 -153.46351337 186.55498695 C-154.13713894 187.22732469 -154.81076451 187.89966243 -155.50480298 188.59237403 C-159.54321687 192.62306885 -159.54321687 192.62306885 -163.58154706 196.65384753 C-171.47124212 204.52888189 -179.36342296 212.40140681 -187.26002154 220.26951905 C-192.20830056 225.19998861 -197.15506173 230.13197706 -202.10062214 235.06517355 C-205.50758431 238.46339657 -208.91660917 241.85953156 -212.32724388 245.2540684 C-214.38982962 247.30796026 -216.45035128 249.36391265 -218.51024941 251.42049964 C-219.90937314 252.81612956 -221.31100851 254.20924014 -222.71271199 255.60227907 C-223.5343176 256.42340893 -224.35592321 257.24453879 -225.20242596 258.09055138 C-225.91678993 258.80236734 -226.6311539 259.5141833 -227.36716527 260.24756944 C-230.42689604 263.53140803 -230.33082074 266.35380317 -230.2890625 270.67578125 C-229.84891575 274.21479905 -228.27904971 276.33025605 -226 279 C-222.83989643 281.10673571 -221.84087475 281.31888057 -218.1875 281.375 C-217.35605469 281.40335937 -216.52460938 281.43171875 -215.66796875 281.4609375 C-209.42354014 280.38210503 -204.97507082 275.24683939 -200.70678711 270.88623047 C-200.10922104 270.28413757 -199.51165497 269.68204468 -198.89598083 269.06170654 C-197.60720212 267.76202105 -196.32071183 266.46006308 -195.03629875 265.15606308 C-193.00227377 263.09174414 -190.96153073 261.03428687 -188.9188385 258.97854614 C-183.11525906 253.13531267 -177.3245886 247.27934478 -171.53686523 241.42041016 C-167.98956753 237.83040462 -164.43499344 234.24773324 -160.87603951 230.66928482 C-159.52354401 229.30622708 -158.17397136 227.94026264 -156.82740593 226.57134628 C-154.94630299 224.65905387 -153.05616428 222.75613841 -151.16381836 220.85498047 C-150.61147522 220.28870941 -150.05913208 219.72243835 -149.49005127 219.13900757 C-145.18625084 214.84542004 -142.13710099 213.20681623 -136.125 212.625 C-131.45421729 212.75744185 -128.76773085 214.2665482 -125 217 C-122.25376353 220.47856619 -121.17014693 223.57617991 -121 228 C-122.84452459 237.50552073 -129.06032573 242.89660455 -135.68481445 249.42944336 C-136.9051651 250.65465564 -138.12422243 251.88115725 -139.34208679 253.10884094 C-142.64307682 256.42858902 -145.96252185 259.72928753 -149.28620553 263.02629542 C-152.77529958 266.49266601 -156.24885947 269.97454345 -159.72465515 273.45423889 C-165.56949455 279.30084268 -171.42615808 285.13539013 -177.2902832 290.96264648 C-184.04256602 297.67271515 -190.77715364 304.40013754 -197.5021041 311.1375913 C-203.99650934 317.6434471 -210.50229865 324.13780014 -217.0136013 330.62674141 C-219.77148078 333.37540007 -222.52563806 336.12770747 -225.27678871 338.88310051 C-228.53026744 342.14038863 -231.7937712 345.38731189 -235.06479073 348.62698174 C-236.25400544 349.80781648 -237.4399874 350.99191883 -238.6221962 352.17976761 C-248.60555267 362.20345821 -259.42148078 371.61247824 -272.5 377.375 C-273.21373779 377.69678223 -273.92747559 378.01856445 -274.6628418 378.35009766 C-298.6448711 388.87644879 -326.30665155 389.81305767 -350.96484375 380.79785156 C-376.33706757 370.85106324 -396.61074713 352.03070408 -407.875 327.1875 C-418.235183 302.50054481 -418.66949935 273.56079793 -408.57104492 248.75366211 C-403.95703458 237.96383909 -398.53614589 228.10146694 -390.40625 219.546875 C-388.47589086 217.50370267 -386.63527126 215.43142987 -384.80264282 213.30263138 C-381.26387359 209.25064237 -377.55702684 205.41140269 -373.75146484 201.61102295 C-372.70859597 200.56369739 -372.70859597 200.56369739 -371.64465904 199.49521375 C-369.33577154 197.17771813 -367.02338321 194.86374945 -364.7109375 192.54980469 C-363.04621599 190.88044971 -361.3816907 189.21089905 -359.71734619 187.54116821 C-355.21170231 183.02245639 -350.7027727 178.50703772 -346.19281769 173.99262905 C-343.37392527 171.17079915 -340.55561805 168.34838604 -337.73748779 165.52579498 C-329.92410928 157.70023951 -322.10979596 149.87562017 -314.29202271 142.0544548 C-313.79303557 141.55524811 -313.29404844 141.05604141 -312.77994049 140.54170723 C-312.02976612 139.79120545 -312.02976612 139.79120545 -311.26443672 139.02554202 C-310.25115939 138.01182123 -309.23788361 136.99809889 -308.22460938 135.984375 C-307.72199955 135.48154374 -307.21938972 134.97871249 -306.70154929 134.46064392 C-298.5469516 126.30209309 -290.39913799 118.13680272 -282.25420165 109.96860775 C-273.87828172 101.56896383 -265.49673705 93.17496701 -257.1095295 84.78659368 C-252.40581666 80.08196528 -247.70469387 75.3747983 -243.00946045 70.66170502 C-238.59685867 66.23264291 -234.17717484 61.81077346 -229.7519455 57.39432907 C-228.13001703 55.77317184 -226.51064867 54.1494486 -224.8940506 52.52297592 C-222.68575751 50.30198739 -220.46839317 48.09046338 -218.24853516 45.88104248 C-217.61223867 45.23668959 -216.97594219 44.59233671 -216.320364 43.92845798 C-212.03849209 39.6934737 -207.6072459 35.78493671 -201.55859375 34.46875 C-196.25156361 34.54693829 -193.12022417 35.35887166 -189 39 C-186.08450109 42.29911719 -184.70818579 44.96593997 -184.375 49.3125 C-185.08052056 59.57515269 -194.69471376 67.09746995 -201.56347656 73.85644531 C-202.62581288 74.91301242 -203.6874596 75.97027326 -204.74847412 77.02816772 C-207.01950404 79.28977387 -209.2950934 81.54664936 -211.57440948 83.79990387 C-215.17949442 87.36418321 -218.77289503 90.94009162 -222.36468506 94.51776123 C-229.98423983 102.10413319 -237.61647212 109.67769211 -245.25 117.25 C-253.50644181 125.44031323 -261.76062503 133.63283091 -270.00028586 141.84003139 C-273.57068888 145.39550119 -277.14827404 148.94353239 -280.73156023 152.4860158 C-282.95647376 154.68855072 -285.17515368 156.89728405 -287.39218903 159.10774612 C-288.4207422 160.13068484 -289.45188475 161.15102757 -290.48579407 162.1685524 C-291.89736185 163.55844943 -293.29882967 164.95858168 -294.69976807 166.35919189 C-295.48656071 167.1393227 -296.27335335 167.91945351 -297.08398819 168.72322464 C-299.50708846 171.60256753 -300.90212974 174.27748337 -301.1171875 178.0625 C-300.52978938 182.76168499 -299.56806156 185.63016408 -296 189 C-292.35668071 191.29008641 -288.73638568 191.48394273 -284.56081104 190.84054756 C-281.39268651 189.80065852 -279.73894247 188.30648508 -277.30827332 186.03170776 C-276.43385778 185.21592129 -275.55944225 184.40013481 -274.65852928 183.55962753 C-270.46984071 179.5267652 -266.34254095 175.44058462 -262.25512695 171.30517578 C-260.84794023 169.88835132 -259.44075055 168.47152981 -258.03344858 167.05481982 C-256.54240103 165.55295282 -255.05258999 164.04986835 -253.56304359 162.5465126 C-250.44342912 159.39875266 -247.31813748 156.25666978 -244.19169617 153.11569214 C-243.11602892 152.03488333 -242.04036923 150.954067 -240.96471691 149.87324333 C-240.42668355 149.33262441 -239.8886502 148.7920055 -239.3343128 148.23500419 C-232.07192515 140.93670956 -224.81450134 133.6335283 -217.56713867 126.3203125 C-212.65557125 121.36420804 -207.73688014 116.41529359 -202.81004685 111.47436321 C-200.21057613 108.86684236 -197.61491704 106.25576577 -195.02807045 103.63571548 C-192.14837871 100.71911055 -189.25327206 97.81828778 -186.35668945 94.91845703 C-185.50924667 94.0550621 -184.66180389 93.19166718 -183.78868103 92.30210876 C-178.87010838 87.40862992 -174.72675225 83.56015083 -167.59375 82.71484375 C-162.67946217 83.23744525 -159.07576581 84.40700769 -155.48828125 87.91381836 C-153.63570107 90.51065197 -153.28990051 92.58760535 -152.80859375 95.7265625 C-152.65060303 96.71479004 -152.4926123 97.70301758 -152.32983398 98.72119141 C-152.22098877 99.47319824 -152.11214355 100.22520508 -152 101 C-150.90791985 99.89792709 -150.90791985 99.89792709 -149.79377747 98.77359009 C-142.93077578 91.84976698 -136.05986147 84.93388374 -129.18112659 78.02569008 C-125.644975 74.4738843 -122.11166757 70.91934269 -118.5847168 67.35839844 C-115.18076257 63.92184259 -111.76952708 60.4926722 -108.35312462 57.06849289 C-107.05115591 55.76098217 -105.7518301 54.45083425 -104.45520973 53.13801956 C-102.63828587 51.29931139 -100.81218096 49.47021454 -98.98364258 47.64306641 C-98.44992538 47.09856339 -97.91620819 46.55406036 -97.36631775 45.99305725 C-93.16853347 41.82966865 -89.4953416 39.73075475 -83.5625 39.625 C-78.14481003 39.75120243 -75.09280694 41.98193617 -71.25 45.6875 C-69.96392823 48.06673277 -69.47942401 50.01034844 -68.921875 52.64453125 C-68.7475293 53.45897705 -68.57318359 54.27342285 -68.39355469 55.11254883 C-68.26368164 55.73540771 -68.13380859 56.3582666 -68 57 C-67.02733437 56.01734161 -67.02733437 56.01734161 -66.03501892 55.01483154 C-59.90815122 48.82773122 -53.77400026 42.64796399 -47.63165951 36.47622299 C-44.4744453 33.30338548 -41.32006927 30.12783204 -38.17211914 26.94580078 C-35.13130627 23.87227566 -32.08311963 20.80624155 -29.02978706 17.74515533 C-27.86901481 16.57886085 -26.71087614 15.40993884 -25.55549431 14.23830414 C-23.93063251 12.59151057 -22.296463 10.95450267 -20.65991211 9.31933594 C-19.73391708 8.38667908 -18.80792206 7.45402222 -17.85386658 6.49310303 C-12.16587928 1.52414671 -7.57430854 -0.84158984 0 0 Z M-128.56640625 109.16137695 C-129.86366159 110.43684758 -131.16715377 111.70600344 -132.4765625 112.96899414 C-134.3844083 114.81009384 -136.27195626 116.66999583 -138.15625 118.53515625 C-138.74361938 119.09469498 -139.33098877 119.6542337 -139.93615723 120.23072815 C-142.57820292 122.88648163 -143.92765118 124.4917648 -144.46289062 128.25170898 C-144.17052837 131.08479625 -144.17052837 131.08479625 -142.4375 133.4375 C-140.03898183 135.2776009 -140.03898183 135.2776009 -136.83935547 135.04394531 C-131.53908879 133.6027689 -128.90079574 130.72903936 -125.1328125 126.859375 C-124.41261932 126.14017883 -123.69242615 125.42098267 -122.95040894 124.67999268 C-121.43562058 123.16053482 -119.92818641 121.63371418 -118.42773438 120.10009766 C-116.12932371 117.75441264 -113.80533585 115.43659633 -111.4765625 113.12109375 C-110.00621997 111.63959968 -108.53741575 110.15657695 -107.0703125 108.671875 C-106.37559845 107.97898376 -105.6808844 107.28609253 -104.96511841 106.57220459 C-104.32710297 105.91512512 -103.68908752 105.25804565 -103.03173828 104.58105469 C-102.46883087 104.0089325 -101.90592346 103.4368103 -101.32595825 102.84735107 C-99.69210675 100.57103708 -99.3068845 98.76766622 -99 96 C-99.84977097 93.29618326 -100.55124887 92.28951686 -102.9375 90.75 C-111.56465149 87.61285401 -122.79995351 103.46788929 -128.56640625 109.16137695 Z M-217.484375 168.21875 C-218.82958221 169.56108704 -218.82958221 169.56108704 -220.20196533 170.93054199 C-222.09044007 172.81765922 -223.97677899 174.70665097 -225.85986328 176.59912109 C-228.26951031 179.02019454 -230.68807072 181.43213309 -233.1094017 183.84151459 C-235.42675987 186.14990057 -237.73647681 188.46590115 -240.046875 190.78125 C-241.34839508 192.07669739 -241.34839508 192.07669739 -242.6762085 193.39831543 C-243.47754211 194.20595337 -244.27887573 195.01359131 -245.10449219 195.84570312 C-245.81031433 196.55311646 -246.51613647 197.26052979 -247.24334717 197.98937988 C-250.81387675 202.07611716 -251.44717515 205.44950071 -251.31640625 210.75 C-250.67389175 215.31899203 -248.18330141 218.01391549 -244.75 220.875 C-241.15780146 222.34453576 -237.77590496 222.86716081 -234 222 C-227.88220388 218.51314565 -223.23451868 213.52282189 -218.296875 208.5625 C-217.37787415 207.6454126 -216.45887329 206.7283252 -215.51202393 205.78344727 C-213.57571433 203.85007305 -211.64303505 201.91316135 -209.71289062 199.97363281 C-207.24270998 197.49202653 -204.76361443 195.01955125 -202.28174973 192.54963684 C-199.90692014 190.18377865 -197.53974658 187.81032234 -195.171875 185.4375 C-194.28232117 184.55199463 -193.39276733 183.66648926 -192.47625732 182.75415039 C-191.65490295 181.9264917 -190.83354858 181.09883301 -189.98730469 180.24609375 C-189.26371765 179.52091553 -188.54013062 178.7957373 -187.7946167 178.04858398 C-184.44623546 174.22635265 -183.53965792 171.18024638 -183.68359375 166.02734375 C-184.36745656 161.6455561 -186.92848262 158.91844347 -190.1875 156.125 C-202.37489892 151.25004043 -209.48527687 160.18197774 -217.484375 168.21875 Z " fill="#FE9737" transform="translate(415,106)"/>
<path d="M0 0 C4.10938936 2.98132169 5.54584348 5.29586522 7.0625 10.0625 C7.32594024 16.91194617 5.13985942 21.60129253 0.59449804 26.58738983 C-2.05345767 29.35630402 -4.7695775 32.05194469 -7.49731445 34.74194336 C-8.7176651 35.96715564 -9.93672243 37.19365725 -11.15458679 38.42134094 C-14.45557682 41.74108902 -17.77502185 45.04178753 -21.09870553 48.33879542 C-24.58779958 51.80516601 -28.06135947 55.28704345 -31.53715515 58.76673889 C-37.38199455 64.61334268 -43.23865808 70.44789013 -49.1027832 76.27514648 C-55.85506602 82.98521515 -62.58965364 89.71263754 -69.3146041 96.4500913 C-75.80900934 102.9559471 -82.31479865 109.45030014 -88.8261013 115.93924141 C-91.58398078 118.68790007 -94.33813806 121.44020747 -97.08928871 124.19560051 C-100.34276744 127.45288863 -103.6062712 130.69981189 -106.87729073 133.93948174 C-108.06650544 135.12031648 -109.2524874 136.30441883 -110.4346962 137.49226761 C-120.41805267 147.51595821 -131.23398078 156.92497824 -144.3125 162.6875 C-145.02623779 163.00928223 -145.73997559 163.33106445 -146.4753418 163.66259766 C-170.45442491 174.18765563 -198.11612946 175.12568215 -222.77294922 166.11474609 C-233.41151174 161.93012598 -242.87041743 156.43585391 -251.8125 149.3125 C-249.45298069 148.52599356 -248.0015836 148.27463864 -245.53735352 148.76806641 C-221.26941557 153.61687042 -194.37309058 147.38072151 -173.80517578 134.00732422 C-167.99054341 129.94562147 -162.76570601 125.39178762 -157.8125 120.3125 C-159.111875 120.395 -160.41125 120.4775 -161.75 120.5625 C-167.89250705 120.53352591 -173.18621798 118.88266488 -177.640625 114.5234375 C-178.66853073 113.31090792 -179.66603007 112.07147851 -180.62109375 110.80078125 C-182.47667942 108.48282014 -183.95027744 108.28438215 -186.875 107.6875 C-192.21527251 108.5351623 -193.91031663 111.19023022 -197.49609375 115.04296875 C-202.18815828 119.64008425 -207.30606565 121.48064168 -213.8125 121.8125 C-222.20306229 121.39686843 -228.23823968 117.77757544 -233.89453125 111.71484375 C-244.98162325 97.82775296 -248.30000825 82.79216893 -246.50390625 65.30859375 C-243.98627497 49.64580802 -235.68666263 36.55886129 -222.90625 27.1796875 C-208.97133264 18.01375885 -194.80222789 15.58465021 -178.5234375 17.75 C-163.54372589 20.9119444 -150.32589998 30.10923634 -141.875 42.8125 C-132.74872553 58.31406668 -130.7866177 73.36464031 -135.12548828 90.75610352 C-136.23881171 94.8904819 -137.78242927 98.54901645 -139.8125 102.3125 C-139.4825 101.9825 -139.1525 101.6525 -138.8125 101.3125 C-126.14583333 88.64583333 -113.47916667 75.97916667 -100.8125 63.3125 C-98.8125 64.3125 -96.8125 65.3125 -94.8125 66.3125 C-92.57732384 66.58718266 -92.57732384 66.58718266 -90.0625 66.625 C-89.22203125 66.66238281 -88.3815625 66.69976562 -87.515625 66.73828125 C-81.24910416 65.75121366 -76.78593356 60.55766672 -72.51928711 56.19873047 C-71.92172104 55.59663757 -71.32415497 54.99454468 -70.70848083 54.37420654 C-69.41970212 53.07452105 -68.13321183 51.77256308 -66.84879875 50.46856308 C-64.81477377 48.40424414 -62.77403073 46.34678687 -60.7313385 44.29104614 C-54.92775906 38.44781267 -49.1370886 32.59184478 -43.34936523 26.73291016 C-39.80206753 23.14290462 -36.24749344 19.56023324 -32.68853951 15.98178482 C-31.33604401 14.61872708 -29.98647136 13.25276264 -28.63990593 11.88384628 C-26.75880299 9.97155387 -24.86866428 8.06863841 -22.97631836 6.16748047 C-22.42397522 5.60120941 -21.87163208 5.03493835 -21.30255127 4.45150757 C-15.25746354 -1.57923519 -7.92483405 -4.13833829 0 0 Z " fill="#FE860A" transform="translate(286.8125,320.6875)"/>
<path d="M0 0 C12.38509644 9.40498268 20.72723682 22.19413148 23.6796875 37.546875 C25.80257516 53.80508782 21.79296787 69.32379877 12.15234375 82.53125 C6.9258902 88.93183725 1.71192706 92.32686756 -6.5 93.5 C-14.07812835 92.41741024 -19.20504883 89.61322563 -23.80859375 83.48828125 C-25.66417942 81.17032014 -27.13777744 80.97188215 -30.0625 80.375 C-35.40277251 81.2226623 -37.09781663 83.87773022 -40.68359375 87.73046875 C-45.37565828 92.32758425 -50.49356565 94.16814168 -57 94.5 C-65.39056229 94.08436843 -71.42573968 90.46507544 -77.08203125 84.40234375 C-88.16912325 70.51525296 -91.48750825 55.47966893 -89.69140625 37.99609375 C-87.17377497 22.33330802 -78.87416263 9.24636129 -66.09375 -0.1328125 C-45.19441069 -13.87970801 -20.8652438 -13.62785296 0 0 Z " fill="#FAC500" transform="translate(130,348)"/>
<path d="M0 0 C2.64432849 1.86947875 3.68688495 4.08917842 5 7 C5.47308594 7.92683594 5.94617188 8.85367187 6.43359375 9.80859375 C10.18125 17.45625 10.18125 17.45625 9 21 C8.34 20.67 7.68 20.34 7 20 C0.59890571 19.16714387 -4.03402697 19.78954355 -9.3125 23.578125 C-13.5340427 27.13516561 -15.73678651 30.63134266 -17 36 C-17.58811954 43.29268226 -16.4250515 48.95136383 -11.8125 54.75 C-6.27850933 59.17719254 -1.0496544 61.4125288 6 62 C3.23136542 69.89625882 -2.54871274 77.10500893 -10 81 C-14.38374042 82.75349617 -19.56928974 82.76856744 -24.05078125 81.3515625 C-28.75510584 79.21406356 -32.07218979 76.27043574 -35.5546875 72.48828125 C-37.72484819 70.25360227 -38.78250469 70.00925512 -41.9375 69.875 C-45.04198085 69.85995188 -45.04198085 69.85995188 -48 71 C-48.68486725 72.32407669 -49.34870203 73.65909241 -50 75 C-52 77.25 -52 77.25 -54 79 C-54.66 79 -55.32 79 -56 79 C-61.95155324 63.99173532 -61.65622931 47.3799103 -55.25390625 32.47265625 C-48.24066273 18.64280221 -36.90845224 8.30056367 -22.47265625 2.609375 C-15.28888872 0.35502143 -7.50126882 -1.69307635 0 0 Z " fill="#FDD302" transform="translate(100,338)"/>
<path d="M0 0 C5.13308791 2.61320839 8.1797908 5.53937241 10 11 C10.44971507 16.95872467 9.53127655 20.95170058 5.65501976 25.61969757 C3.97836268 27.41800246 2.25736888 29.15944298 0.51245117 30.89160156 C-0.46861351 31.88296112 -0.46861351 31.88296112 -1.46949768 32.89434814 C-3.62440273 35.06749104 -5.79014631 37.22943197 -7.95703125 39.390625 C-9.46331331 40.90146959 -10.96922322 42.41268528 -12.47477722 43.92425537 C-15.62799274 47.08639559 -18.78681257 50.24280497 -21.94946289 53.39550781 C-25.99991109 57.43445513 -30.03426887 61.48905707 -34.06435108 65.54831314 C-37.16885878 68.67117081 -40.28262805 71.78466217 -43.39917564 74.89550018 C-44.89057633 76.38674758 -46.37887845 77.88110061 -47.86399269 79.3786087 C-49.9412949 81.47079888 -52.03095661 83.54982035 -54.12426758 85.62597656 C-54.73383301 86.24520996 -55.34339844 86.86444336 -55.97143555 87.50244141 C-60.0150486 91.47702621 -63.49354676 93.77208054 -69.34375 94.15234375 C-75.1236856 93.57644437 -77.97092983 92.22561018 -82 88 C-83.8346811 84.99263613 -84.32033661 82.63438967 -84.375 79.125 C-84.40335938 78.30257812 -84.43171875 77.48015625 -84.4609375 76.6328125 C-83.34968725 70.28550173 -77.94750016 65.65886962 -73.55078125 61.29199219 C-72.91288666 60.65059296 -72.27499207 60.00919373 -71.61776733 59.34835815 C-69.52099326 57.24282587 -67.41704121 55.14464168 -65.3125 53.046875 C-63.8477706 51.58079759 -62.38333814 50.11442346 -60.91918945 48.64776611 C-57.85594263 45.58157631 -54.78912149 42.51901926 -51.71972656 39.45898438 C-47.78531998 35.53599192 -43.85998705 31.60406216 -39.93727112 27.669384 C-36.91775238 24.64264161 -33.89349051 21.62067473 -30.86776733 18.6001358 C-29.41821463 17.15191714 -27.97014582 15.70221165 -26.52359009 14.25099945 C-24.50359799 12.22593173 -22.47731164 10.20738009 -20.44921875 8.19042969 C-19.85273529 7.58989777 -19.25625183 6.98936584 -18.64169312 6.37063599 C-12.79574286 0.58408394 -8.31789323 -1.0775154 0 0 Z " fill="#FE8609" transform="translate(333,31)"/>
<path d="M0 0 C3.4562871 3.4562871 4.47013559 6.45335362 4.6875 11.3125 C4.75066406 12.19292969 4.81382812 13.07335937 4.87890625 13.98046875 C2.90619636 22.20861105 -5.38910974 28.93697602 -11.22265625 34.73828125 C-12.38504066 35.90353584 -12.38504066 35.90353584 -13.57090759 37.09233093 C-15.19626545 38.71903977 -16.82411144 40.34326607 -18.4543457 41.96508789 C-20.94131325 44.44129675 -23.41736524 46.92806285 -25.89257812 49.41601562 C-27.48112961 51.00324618 -29.07030103 52.58985658 -30.66015625 54.17578125 C-31.39468521 54.91435867 -32.12921417 55.6529361 -32.88600159 56.41389465 C-42.16288767 65.60695607 -42.16288767 65.60695607 -47.65625 66.65625 C-53.52785701 66.58876026 -57.36751826 66.29442061 -61.875 62.125 C-65.39110737 58.2572819 -65.32578868 54.1313561 -65.56640625 49.13671875 C-63.72051673 41.09614913 -55.79956065 34.75479471 -50.15234375 29.13671875 C-49.3292421 28.31170364 -48.50614044 27.48668854 -47.65809631 26.63667297 C-45.9284103 24.90563354 -44.1962264 23.17708677 -42.46166992 21.45092773 C-39.80999579 18.81000594 -37.16921493 16.1585271 -34.52929688 13.50585938 C-32.84178707 11.81967051 -31.15365733 10.1341018 -29.46484375 8.44921875 C-28.67826889 7.65859543 -27.89169403 6.86797211 -27.08128357 6.0533905 C-26.3402388 5.31865005 -25.59919403 4.58390961 -24.83569336 3.8269043 C-24.18982773 3.18262985 -23.5439621 2.53835541 -22.87852478 1.8745575 C-15.54292246 -4.5311821 -8.17034353 -5.32848491 0 0 Z " fill="#FE8809" transform="translate(507.875,22.875)"/>
<path d="M0 0 C4.33259924 3.02274366 6.22015447 6.19255609 7.625 11.25 C7.73675376 17.73171797 5.53664206 22.2575435 1.26098633 26.94848633 C-0.13923389 28.38141635 -1.55387648 29.80035446 -2.98046875 31.20703125 C-4.11093376 32.34467171 -4.11093376 32.34467171 -5.26423645 33.5052948 C-6.85434423 35.09879141 -8.45072927 36.68604604 -10.05297852 38.26733398 C-12.49254405 40.68012588 -14.90428447 43.11842942 -17.31445312 45.56054688 C-18.86819113 47.11098061 -20.42347957 48.65986247 -21.98046875 50.20703125 C-22.69534958 50.93203323 -23.41023041 51.65703522 -24.14677429 52.40400696 C-28.92953992 57.07759534 -33.49307393 60.68414874 -40.48454285 60.96101379 C-45.82536869 60.72578862 -48.64149656 58.63340828 -52.3125 54.875 C-54.15160318 51.87071159 -54.63285461 49.5082341 -54.6875 46 C-54.71585937 45.17757812 -54.74421875 44.35515625 -54.7734375 43.5078125 C-53.57066259 36.63772532 -47.3571511 31.62706266 -42.625 26.921875 C-41.88548096 26.1804425 -41.14596191 25.43901001 -40.3840332 24.67510986 C-38.82651325 23.11623404 -37.26648525 21.55986049 -35.70410156 20.00585938 C-33.31341439 17.62591028 -30.93361816 15.23544421 -28.5546875 12.84375 C-27.03709945 11.32748305 -25.51889138 9.81183636 -24 8.296875 C-23.28948486 7.5823114 -22.57896973 6.8677478 -21.84692383 6.13153076 C-21.17943115 5.47034241 -20.51193848 4.80915405 -19.82421875 4.12792969 C-19.24115967 3.54646179 -18.65810059 2.9649939 -18.05737305 2.36590576 C-12.66231884 -2.24389517 -6.50669751 -2.2098218 0 0 Z " fill="#FE8609" transform="translate(364.3125,242.125)"/>
<path d="M0 0 C3.875 2.625 3.875 2.625 5 6 C5.6760068 10.32490711 6.01669735 14.29207244 3.71875 18.15234375 C1.90899549 20.22944836 0.00719903 22.11330823 -2 24 C-3.43768695 25.47898496 -4.87519034 26.95814838 -6.3125 28.4375 C-10.71838176 32.86069367 -10.71838176 32.86069367 -14.875 33.3125 C-18 33 -18 33 -20.375 31.4375 C-22.62785968 28.05821048 -22.43683853 26.0076224 -22 22 C-19.98046875 19.18579102 -19.98046875 19.18579102 -17.1875 16.50390625 C-16.45503052 15.78629372 -16.45503052 15.78629372 -15.70776367 15.05418396 C-14.15423743 13.53964169 -12.5781404 12.05133441 -11 10.5625 C-9.93851333 9.53614796 -8.87859813 8.50816799 -7.8203125 7.47851562 C-5.2314653 4.96657588 -2.62179499 2.47758359 0 0 Z " fill="#FE860B" transform="translate(257,193)"/>
<path d="M0 0 C0.33 0 0.66 0 1 0 C1.16236745 2.58585205 1.28095486 5.16151954 1.375 7.75 C1.42527344 8.47960937 1.47554687 9.20921875 1.52734375 9.9609375 C1.5859375 12.109375 1.5859375 12.109375 1 16 C-2.46245672 19.12300018 -4.06318505 20 -8.75 20 C-12 19 -12 19 -13.5 17.3125 C-14.18645228 14.13765818 -13.98935388 12.09997549 -13 9 C-10.34916582 6.87933266 -8.06738632 6.0198195 -4.8125 5.0625 C-1.87759225 4.27161558 -1.87759225 4.27161558 -0.625 1.875 C-0.41875 1.25625 -0.2125 0.6375 0 0 Z " fill="#FDD301" transform="translate(111,365)"/>
<path d="M0 0 C2.32749345 3.49124017 2.50299316 4.89222251 2 9 C0.375 11.375 0.375 11.375 -2 13 C-5.38514427 13.49366687 -7.26453845 13.37766945 -10.3125 11.8125 C-12.47994914 9.48449908 -12.92432671 8.1782781 -13 5 C-11.75390398 2.17988796 -10.60174759 0.47724808 -8.1875 -1.4375 C-4.94378646 -2.27159777 -2.99333245 -1.36652133 0 0 Z " fill="#FAC600" transform="translate(75,397)"/>
<path d="M0 0 C3.375 0.3125 3.375 0.3125 7 1 C9.53418918 4.80128377 9.68690436 6.49696032 9 11 C5.31200339 15.80094233 0.79041469 17.81828272 -5 19 C-4.23915412 14.81134319 -3.12177302 10.77515205 -1.9375 6.6875 C-1.57527344 5.43324219 -1.21304688 4.17898438 -0.83984375 2.88671875 C-0.42412109 1.45779297 -0.42412109 1.45779297 0 0 Z " fill="#E8B800" transform="translate(112,381)"/>
</svg>
