<?xml version="1.0" encoding="UTF-8"?>
<svg version="1.1" xmlns="http://www.w3.org/2000/svg" width="512" height="512">
<path d="M0 0 C1.36359901 -0.01469078 1.36359901 -0.01469078 2.75474548 -0.02967834 C23.21497827 -0.20463588 43.05204186 0.02543331 63.1640625 4.23828125 C64.71311279 4.55974121 64.71311279 4.55974121 66.29345703 4.88769531 C103.16495586 12.80478226 138.51523113 28.87144355 168.1640625 52.23828125 C169.15664063 53.01945312 170.14921875 53.800625 171.171875 54.60546875 C186.80879757 67.19340921 202.02032059 81.19517267 214.1640625 97.23828125 C214.57930176 97.77710937 214.99454102 98.3159375 215.42236328 98.87109375 C223.10743914 108.86757594 229.85134311 119.32838574 236.1640625 130.23828125 C236.55835449 130.91552246 236.95264648 131.59276367 237.35888672 132.29052734 C252.26691621 158.20951934 261.82558069 187.70179763 266.1640625 217.23828125 C266.34138916 218.44291016 266.51871582 219.64753906 266.70141602 220.88867188 C268.3003875 232.54595479 268.5224678 244.11014223 268.4765625 255.86328125 C268.47382828 257.31811417 268.47382828 257.31811417 268.47103882 258.80233765 C268.42564559 273.1538418 267.9202972 287.11771043 265.1640625 301.23828125 C265.00309082 302.13530762 264.84211914 303.03233398 264.67626953 303.95654297 C253.52424376 365.58728671 217.85104067 424.0861274 167.1640625 461.23828125 C166.31013916 461.87540039 166.31013916 461.87540039 165.43896484 462.52539062 C156.6963474 469.04230084 147.63999188 474.84865282 138.1640625 480.23828125 C137.53226074 480.60276367 136.90045898 480.96724609 136.24951172 481.34277344 C110.16245899 496.27413527 80.82906003 505.74748393 51.1640625 510.23828125 C50.04523682 510.41560791 48.92641113 510.59293457 47.77368164 510.77563477 C36.05170303 512.45704466 24.42907274 512.59562466 12.6015625 512.55078125 C11.07095688 512.54754852 11.07095688 512.54754852 9.50942993 512.54425049 C-5.11804274 512.49461477 -19.46857588 512.24747837 -33.8359375 509.23828125 C-35.29821777 508.94026611 -35.29821777 508.94026611 -36.79003906 508.63623047 C-80.06325575 499.58424923 -120.25583133 481.19776481 -153.8359375 452.23828125 C-154.56941406 451.61566406 -155.30289063 450.99304688 -156.05859375 450.3515625 C-169.88773628 438.27774853 -183.14990864 425.20122521 -193.8359375 410.23828125 C-194.28340332 409.61920898 -194.73086914 409.00013672 -195.19189453 408.36230469 C-220.88314514 372.62966064 -237.22711477 331.95302738 -242.8359375 288.23828125 C-242.92285858 287.57198196 -243.00977966 286.90568268 -243.09933472 286.2191925 C-243.79661648 280.47858339 -244.02533143 274.80705946 -244.07421875 269.02734375 C-244.08890953 267.59079689 -244.08890953 267.59079689 -244.10389709 266.12522888 C-244.27136187 245.50351074 -244.2536685 225.47859821 -239.8359375 205.23828125 C-239.62694824 204.24006348 -239.41795898 203.2418457 -239.20263672 202.21337891 C-230.36311301 160.86294775 -211.4630714 122.26529203 -183.8359375 90.23828125 C-183.20171875 89.49320312 -182.5675 88.748125 -181.9140625 87.98046875 C-170.10292235 74.47548292 -157.35233522 61.80409382 -142.8359375 51.23828125 C-141.68598919 50.38179059 -140.53625161 49.52501692 -139.38671875 48.66796875 C-131.19504224 42.62733985 -122.67948672 37.26823054 -113.8359375 32.23828125 C-113.20413574 31.87379883 -112.57233398 31.50931641 -111.92138672 31.13378906 C-78.53937361 12.0270344 -38.54101604 0.34612239 0 0 Z " fill="#A3B4BE" transform="translate(243.8359375,-0.23828125)"/>
<path d="M0 0 C4.09221712 1.36392208 6.51423554 3.13897141 9.546875 6.18359375 C10.38742432 7.02317627 11.22797363 7.86275879 12.09399414 8.7277832 C12.97047607 9.62198975 13.84695801 10.51619629 14.75 11.4375 C16.10242798 12.80684692 16.10242798 12.80684692 17.48217773 14.20385742 C23.37602233 20.21985424 28.96797019 26.237901 34 33 C34.86034837 34.12004424 35.72104995 35.23981722 36.58203125 36.359375 C43.76407762 45.81330612 50.05671986 55.72858427 56 66 C56.39429199 66.67724121 56.78858398 67.35448242 57.19482422 68.05224609 C72.10285371 93.97123809 81.66151819 123.46351638 86 153 C86.17732666 154.20462891 86.35465332 155.40925781 86.53735352 156.65039062 C88.136325 168.30767354 88.3584053 179.87186098 88.3125 191.625 C88.30976578 193.07983292 88.30976578 193.07983292 88.30697632 194.5640564 C88.26158309 208.91556055 87.7562347 222.87942918 85 237 C84.83902832 237.89702637 84.67805664 238.79405273 84.51220703 239.71826172 C73.36018126 301.34900546 37.68697817 359.84784615 -13 397 C-13.85392334 397.63711914 -13.85392334 397.63711914 -14.72509766 398.28710938 C-23.4677151 404.80401959 -32.52407062 410.61037157 -42 416 C-42.63180176 416.36448242 -43.26360352 416.72896484 -43.91455078 417.10449219 C-70.00160351 432.03585402 -99.33500247 441.50920268 -129 446 C-130.11882568 446.17732666 -131.23765137 446.35465332 -132.39038086 446.53735352 C-144.11235947 448.21876341 -155.73498976 448.35734341 -167.5625 448.3125 C-168.58290375 448.31034485 -169.6033075 448.3081897 -170.65463257 448.30596924 C-185.28210524 448.25633352 -199.63263838 448.00919712 -214 445 C-215.46228027 444.70198486 -215.46228027 444.70198486 -216.95410156 444.39794922 C-255.84245615 436.26320253 -291.08970321 420.60821848 -323 397 C-324.51400391 395.89011719 -324.51400391 395.89011719 -326.05859375 394.7578125 C-330.54635732 391.38323833 -330.54635732 391.38323833 -332 390 C-332 389.34 -332 388.68 -332 388 C-330.89785156 388.25394531 -329.79570312 388.50789063 -328.66015625 388.76953125 C-318.15519636 391.16472286 -307.65172729 393.36524379 -297 395 C-296.34177246 395.10586426 -295.68354492 395.21172852 -295.00537109 395.32080078 C-268.515495 399.41463174 -240.39024597 397.86965783 -214 394 C-213.14438477 393.88253418 -212.28876953 393.76506836 -211.40722656 393.64404297 C-199.97746616 392.06665337 -189.01854939 389.40145695 -178 386 C-177.17628906 385.74734375 -176.35257813 385.4946875 -175.50390625 385.234375 C-141.6515638 374.72314538 -109.31542808 358.76013065 -82 336 C-81.45150391 335.5477002 -80.90300781 335.09540039 -80.33789062 334.62939453 C-74.1783396 329.54397389 -68.15919921 324.31176118 -62.25 318.9375 C-61.73614746 318.47214844 -61.22229492 318.00679688 -60.69287109 317.52734375 C-57.97654605 315.05676939 -57.97654605 315.05676939 -56 312 C-56.87914062 311.896875 -57.75828125 311.79375 -58.6640625 311.6875 C-67.91137837 309.78172999 -75.71246113 302.55877716 -81 295 C-86.98300015 284.30080841 -89.95775431 273.15572525 -87.34765625 260.94921875 C-83.38735693 247.84453732 -76.22760846 237.9668067 -64.08984375 231.43359375 C-53.1480656 226.26459761 -41.01115254 224.90571963 -29.37890625 228.94921875 C-20.86856109 232.70830389 -13.74225014 237.68403695 -8 245 C-1.79830138 234.26248457 2.85286221 223.24808576 7.06030273 211.59301758 C7.70259959 209.82065206 8.35630287 208.05238962 9.01977539 206.2878418 C12.95801179 195.74329078 15.59584349 184.98602373 18 174 C18.24991699 172.86498047 18.49983398 171.72996094 18.75732422 170.56054688 C30.16287197 116.31446518 24.31353515 54.24003701 0.74316406 3.8125 C0 2 0 2 0 0 Z " fill="#7B8890" transform="translate(424,64)"/>
<path d="M0 0 C8.64349499 5.7909698 13.5880281 12.8890843 16.875 22.75 C17.86899331 35.79971214 16.752483 46.24923639 8.0625 56.6875 C0.38095637 64.64235698 -8.42731617 68.79438696 -19.5 69.1875 C-30.13216747 68.89009671 -38.47738106 65.0801706 -46.125 57.75 C-54.73464269 48.43684566 -56.90821938 40.4897855 -56.4609375 27.9453125 C-55.77894954 17.15442499 -51.01457778 9.9495652 -43.125 2.75 C-40.57117714 0.78515842 -37.98696527 -0.78018068 -35.125 -2.25 C-34.114375 -2.848125 -33.10375 -3.44625 -32.0625 -4.0625 C-21.65151138 -8.25082876 -9.32647437 -5.38270806 0 0 Z " fill="#748189" transform="translate(245.125,276.25)"/>
<path d="M0 0 C7.6757024 4.85605662 13.28139386 10.06081876 16.0625 18.9375 C17.67449396 28.03111476 15.29616681 35.43702209 10.0625 42.9375 C7.61580753 45.44350623 5.11208119 47.23332228 2.0625 48.9375 C0.4228125 49.865625 0.4228125 49.865625 -1.25 50.8125 C-8.74099804 53.09788923 -15.78742264 52.84580564 -22.8046875 49.26171875 C-29.20644771 45.2869995 -35.01329891 40.47697972 -36.9375 32.9375 C-37.92835808 23.19975678 -37.34694966 15.09478456 -31.3125 7.25 C-23.13744678 -1.42231923 -11.4791948 -4.19584362 0 0 Z " fill="#748189" transform="translate(183.9375,186.0625)"/>
<path d="M0 0 C4.90404652 4.46988546 9.46847568 9.74780544 10.3125 16.5 C10.60437847 23.06726566 9.71977507 28.49804857 6 34 C1.30368987 39.12770396 -3.22541034 42.57158182 -10.26953125 43.37109375 C-17.895367 43.51402562 -23.27092523 43.30272502 -29 38 C-34.36541532 32.82706595 -37.0193622 28.13510774 -37.25 20.5625 C-36.97654992 11.95601861 -34.12455529 6.87267964 -28 1 C-20.28035842 -4.565323 -8.14722082 -5.18459507 0 0 Z " fill="#748189" transform="translate(137,375)"/>
<path d="M0 0 C4.10054121 1.79781191 6.4527956 4.18801928 8.9375 7.875 C10.7126527 13.09603736 10.60646721 17.14839082 8.4375 22.1875 C6.14435784 26.33124812 3.499099 28.52473536 -1 30 C-6.87561535 30.83937362 -10.42596837 29.95069986 -15.30078125 26.55078125 C-19.00738817 23.16796988 -19.83572111 19.31423113 -20.4375 14.5 C-19.72394515 8.7915612 -17.55742266 5.44617819 -13.375 1.5625 C-8.77980775 -0.56490382 -4.97868318 -0.90593127 0 0 Z " fill="#748189" transform="translate(75,147)"/>
<path d="M0 0 C4.40626866 1.92722779 7.17488805 4.05391 9.28125 8.42578125 C10.77603119 13.06054307 10.39334944 17.00775744 8.71484375 21.6015625 C6.08796342 25.58717404 3.43292783 27.84136781 -1.09765625 29.3515625 C-5.82137435 29.90041356 -9.19900507 29.81752978 -13.47265625 27.6015625 C-18.43480717 23.34829029 -19.81748352 20.37742798 -20.41015625 13.9765625 C-19.93557421 8.47141079 -17.54147148 5.62349496 -13.47265625 2.0390625 C-9.06990366 -1.08920908 -5.30286637 -1.63924733 0 0 Z " fill="#748189" transform="translate(334.09765625,110.6484375)"/>
<path d="M0 0 C4.36492736 2.40706674 5.93942071 4.83284673 7.8125 9.4375 C8.54463478 14.47092659 7.63175508 18.25403108 5.1953125 22.6328125 C2.67016 25.92835051 -0.18927168 27.45163548 -4.1875 28.4375 C-9.22784362 28.81085879 -13.60498098 28.32406949 -17.6875 25.1875 C-21.86690604 20.59015335 -22.6681113 16.73988264 -22.49609375 10.6484375 C-21.90819671 6.43641565 -19.88938363 3.78973922 -16.609375 1.18359375 C-11.07677683 -2.39265777 -6.06815108 -2.59582018 0 0 Z " fill="#748189" transform="translate(335.1875,214.5625)"/>
<path d="M0 0 C4.07024037 2.03512018 6.55025251 4.20904997 9 8 C10.22468625 12.69721434 10.42703558 16.78631994 8.8125 21.375 C6.23727753 25.10463255 4.35778575 27.54740475 0 29 C-4.5623129 29.57392153 -9.04401862 30.03165036 -13.20703125 27.8359375 C-16.58905261 25.05911996 -19.06425246 22.36682184 -20 18 C-20.45503372 13.22214592 -20.52947247 11.01972475 -18.3125 6.75 C-12.741242 0.12472021 -8.59735963 -1.26246103 0 0 Z " fill="#748189" transform="translate(55,284)"/>
<path d="M0 0 C4.7344316 1.91391916 7.72684393 5.45368786 10 10 C10.45348117 16.80221749 9.59908545 20.99480745 5 26.3125 C1.09057357 29.61107855 -3.29500405 29.45303639 -8.19921875 29.4140625 C-12.73205585 28.74393596 -15.19304598 26.49402933 -18 23 C-20.63452545 19.04821182 -20.17753078 15.0029898 -19.61328125 10.44140625 C-17.13841493 0.58923139 -8.83860659 -0.83064732 0 0 Z " fill="#748189" transform="translate(198,56)"/>
</svg>
