<?xml version="1.0" encoding="UTF-8"?>
<svg version="1.1" xmlns="http://www.w3.org/2000/svg" width="512" height="512">
<path d="M0 0 C11.92698482 9.68035056 18.41499581 22.973907 21 38 C23.66528212 79.68636188 10.88820179 119.30842667 -8.62109375 155.86328125 C-9.2246167 156.99467529 -9.82813965 158.12606934 -10.44995117 159.29174805 C-11.62171851 161.46157572 -12.8124177 163.62132036 -14.0246582 165.76879883 C-17.12041137 171.32756224 -17.12041137 171.32756224 -18.0390625 177.50390625 C-17.52472656 179.23447266 -17.52472656 179.23447266 -17 181 C-16.56047355 182.74493389 -16.1261068 184.49117105 -15.6953125 186.23828125 C-15.31656982 187.69488159 -15.31656982 187.69488159 -14.93017578 189.1809082 C-0.03256861 247.122572 -8.82246863 307.79280959 -38.57421875 359.58203125 C-52.86014075 383.48045625 -71.86748949 406.05248191 -94 423 C-94.54317871 423.41958984 -95.08635742 423.83917969 -95.64599609 424.27148438 C-144.20656355 461.59433286 -203.61095872 477.75158615 -264.37841797 470.49389648 C-275.21299328 469.0259702 -285.77355563 466.45039751 -296.32299805 463.61669922 C-302.63044344 462.16365708 -306.21188637 461.51131977 -312.0078125 464.76171875 C-313.14468506 465.38046875 -314.28155762 465.99921875 -315.45288086 466.63671875 C-316.34908646 467.13824463 -316.34908646 467.13824463 -317.26339722 467.64990234 C-320.46561863 469.43471781 -323.70576988 471.14701293 -326.94921875 472.85546875 C-327.61508499 473.20652679 -328.28095123 473.55758484 -328.96699524 473.91928101 C-363.76632375 492.06670962 -411.08052086 509.43393089 -450.75 499.3125 C-452.85514531 498.60339842 -454.94327575 497.83925392 -457 497 C-457.90878906 496.649375 -458.81757813 496.29875 -459.75390625 495.9375 C-472.28318886 490.42844139 -481.58803967 479.54531013 -486.82543945 467.11083984 C-501.05840461 429.4146349 -484.78090774 384.94505529 -469.34423828 350.16064453 C-466.85763125 344.72355723 -464.19392324 339.41125756 -461.37890625 334.13671875 C-460.47362183 332.43962769 -460.47362183 332.43962769 -459.55004883 330.70825195 C-458.37828149 328.53842428 -457.1875823 326.37867964 -455.9753418 324.23120117 C-452.87958863 318.67243776 -452.87958863 318.67243776 -451.9609375 312.49609375 C-452.30382812 311.34238281 -452.64671875 310.18867188 -453 309 C-453.43952645 307.25506611 -453.8738932 305.50882895 -454.3046875 303.76171875 C-454.55718262 302.79065186 -454.80967773 301.81958496 -455.06982422 300.8190918 C-469.96743139 242.877428 -461.17753137 182.20719041 -431.42578125 130.41796875 C-417.13985925 106.51954375 -398.13251051 83.94751809 -376 67 C-375.45682129 66.58041016 -374.91364258 66.16082031 -374.35400391 65.72851562 C-327.55730158 29.7613447 -269.01949097 12.22052741 -210.10961914 18.9387207 C-196.77068235 20.69739816 -183.05138046 23.01735986 -170.35375977 27.53149414 C-165.09830136 28.57757076 -160.97020321 26.71567002 -156.421875 24.2265625 C-155.35694824 23.65437988 -154.29202148 23.08219727 -153.19482422 22.49267578 C-151.48963623 21.56817627 -151.48963623 21.56817627 -149.75 20.625 C-109.02746661 -1.0158321 -43.44966677 -29.45548838 0 0 Z M-127 44 C-127 44.66 -127 45.32 -127 46 C-125.30489453 47.26062878 -125.30489453 47.26062878 -123.08203125 48.46875 C-121.82821655 49.19396851 -121.82821655 49.19396851 -120.54907227 49.93383789 C-119.64600342 50.45067139 -118.74293457 50.96750488 -117.8125 51.5 C-109.33075393 56.47437497 -101.59036112 61.72754753 -94 68 C-92.97132813 68.82628906 -91.94265625 69.65257812 -90.8828125 70.50390625 C-77.99843352 80.98544249 -66.26268334 92.68967048 -56.33203125 106.01171875 C-54.04134524 108.94701992 -51.68249294 111.43185845 -49 114 C-39.10535856 92.30022439 -27.88699946 66.76890824 -35.7109375 42.82421875 C-38.5290625 36.16672161 -43.87911648 31.14285943 -50.24609375 27.83203125 C-75.04863741 18.92319179 -105.0239284 33.72883071 -127 44 Z M-436 353 C-446.59365248 375.46816741 -458.92393755 401.89568985 -453.0625 427.375 C-450.62143445 434.12785422 -445.68873293 439.68154265 -439.64453125 443.48046875 C-423.19049856 450.91565155 -403.26867395 445.6766488 -387 440 C-379.90070709 437.23369446 -372.93444134 434.15379959 -366 431 C-369.2006065 427.7135096 -372.47007554 424.72509844 -376.0625 421.875 C-399.6702439 402.74130434 -419.6852976 379.8995314 -434 353 C-434.66 353 -435.32 353 -436 353 Z " fill="#FEA95A" transform="translate(491,11)"/>
<path d="M0 0 C11.92698482 9.68035056 18.41499581 22.973907 21 38 C23.66528212 79.68636188 10.88820179 119.30842667 -8.62109375 155.86328125 C-9.2246167 156.99467529 -9.82813965 158.12606934 -10.44995117 159.29174805 C-11.62171851 161.46157572 -12.8124177 163.62132036 -14.0246582 165.76879883 C-17.12041137 171.32756224 -17.12041137 171.32756224 -18.0390625 177.50390625 C-17.52472656 179.23447266 -17.52472656 179.23447266 -17 181 C-16.56047355 182.74493389 -16.1261068 184.49117105 -15.6953125 186.23828125 C-15.31656982 187.69488159 -15.31656982 187.69488159 -14.93017578 189.1809082 C-0.03256861 247.122572 -8.82246863 307.79280959 -38.57421875 359.58203125 C-52.86014075 383.48045625 -71.86748949 406.05248191 -94 423 C-94.54317871 423.41958984 -95.08635742 423.83917969 -95.64599609 424.27148438 C-144.20656355 461.59433286 -203.61095872 477.75158615 -264.37841797 470.49389648 C-275.21299328 469.0259702 -285.77355563 466.45039751 -296.32299805 463.61669922 C-302.63044344 462.16365708 -306.21188637 461.51131977 -312.0078125 464.76171875 C-313.14468506 465.38046875 -314.28155762 465.99921875 -315.45288086 466.63671875 C-316.34908646 467.13824463 -316.34908646 467.13824463 -317.26339722 467.64990234 C-320.46561863 469.43471781 -323.70576988 471.14701293 -326.94921875 472.85546875 C-327.61508499 473.20652679 -328.28095123 473.55758484 -328.96699524 473.91928101 C-363.76632375 492.06670962 -411.08052086 509.43393089 -450.75 499.3125 C-452.85514531 498.60339842 -454.94327575 497.83925392 -457 497 C-457.90878906 496.649375 -458.81757813 496.29875 -459.75390625 495.9375 C-472.28318886 490.42844139 -481.58803967 479.54531013 -486.82543945 467.11083984 C-501.0256318 429.50143414 -484.87292976 384.85777401 -469.33764648 350.17382812 C-464.74260877 340.19779138 -459.76502901 330.40703014 -454.65234375 320.6875 C-454.18820068 319.80449219 -453.72405762 318.92148437 -453.24584961 318.01171875 C-452 316 -452 316 -450 315 C-449.72325439 315.70495605 -449.44650879 316.40991211 -449.16137695 317.13623047 C-447.88313815 320.38436695 -446.59786637 323.62967782 -445.3125 326.875 C-444.65991211 328.53789063 -444.65991211 328.53789063 -443.99414062 330.234375 C-441.58408408 336.30414703 -439.04185271 342.10482468 -435.80932617 347.78564453 C-434.213251 352.15258324 -436.26016503 355.90667056 -438.109375 359.921875 C-438.5321875 360.85676758 -438.955 361.79166016 -439.390625 362.75488281 C-440.06351562 364.23746582 -440.06351562 364.23746582 -440.75 365.75 C-445.01248381 375.34967058 -448.49735204 384.80362208 -451 395 C-451.24363281 395.96550781 -451.48726563 396.93101562 -451.73828125 397.92578125 C-454.02518906 408.42688855 -455.06475445 422.19449897 -450 432 C-445.38496166 438.98342732 -440.16476323 443.07751674 -432 445 C-403.11673187 449.98115564 -371.72069686 434.36253885 -347 421 C-346.2481543 420.59652344 -345.49630859 420.19304687 -344.72167969 419.77734375 C-307.19621483 399.46052641 -272.97035157 373.03600165 -240.61523438 345.37695312 C-238.95165457 343.95878654 -237.28104124 342.54924683 -235.609375 341.140625 C-227.54260589 334.31839121 -219.78390638 327.21605931 -212.10522461 319.96166992 C-210.56845306 318.5296904 -209.0178053 317.11256108 -207.45922852 315.7043457 C-199.18271316 308.21935619 -191.25858251 300.41193059 -183.38012695 292.51049805 C-181.1770789 290.30205337 -178.96868531 288.09905449 -176.75976562 285.89648438 C-175.33301235 284.46907076 -173.90656905 283.04134723 -172.48046875 281.61328125 C-171.83240768 280.96724442 -171.18434662 280.32120758 -170.51664734 279.65559387 C-166.7226316 275.84233306 -163.109342 271.92120746 -159.60319519 267.84130859 C-156.87065418 264.70291891 -153.98700193 261.70731963 -151.125 258.6875 C-146.30741768 253.5649753 -141.71232895 248.35089469 -137.32421875 242.8515625 C-135.07776256 240.09540616 -132.75916562 237.42498931 -130.40844727 234.75830078 C-123.42904515 226.83262612 -116.96953868 218.59931811 -110.62939453 210.15722656 C-109.00559558 208.00740823 -107.36389526 205.87268172 -105.71484375 203.7421875 C-83.48283182 175.00130924 -59.73257698 142.86343883 -47.28125 108.49609375 C-46.32838094 105.89603945 -45.33484795 103.34381196 -44.28125 100.78515625 C-36.86766696 82.66459914 -30.21258583 62.15013831 -36.74609375 42.7890625 C-39.45785558 36.49777505 -44.08415611 31.97897487 -50.1796875 28.8984375 C-71.73276375 21.13352451 -98.22583562 31.79271178 -117.625 40.875 C-118.47884277 41.29289795 -119.33268555 41.7107959 -120.21240234 42.14135742 C-121.0214502 42.52525635 -121.83049805 42.90915527 -122.6640625 43.3046875 C-123.38029785 43.65515137 -124.0965332 44.00561523 -124.83447266 44.36669922 C-129.04850008 45.59907657 -132.62467167 43.87197726 -136.44140625 42.07421875 C-137.26737305 41.69128662 -138.09333984 41.30835449 -138.94433594 40.91381836 C-139.80833008 40.5091333 -140.67232422 40.10444824 -141.5625 39.6875 C-148.93322998 36.29371991 -156.19635031 33.26813395 -164 31 C-164 30.01 -164 29.02 -164 28 C-119.6595254 4.29945329 -48.37760363 -32.79624558 0 0 Z " fill="#FBC700" transform="translate(491,11)"/>
<path d="M0 0 C-1.30570327 15.85496833 -6.50725467 30.84104658 -13.75 44.9375 C-14.28560547 45.99843872 -14.28560547 45.99843872 -14.83203125 47.08081055 C-22.91254328 62.04516556 -35.51638415 73.97867844 -47.42578125 85.859375 C-49.10324062 87.54140867 -50.78033206 89.22380934 -52.45707703 90.90655518 C-55.95264104 94.41099453 -59.45373778 97.90978672 -62.95874023 101.40478516 C-67.41844882 105.8529944 -71.86207678 110.3168884 -76.30143452 114.78539658 C-79.75447331 118.25689905 -83.21690439 121.71891604 -86.68202782 125.17835236 C-88.32311623 126.8192889 -89.96116616 128.46327079 -91.59591103 130.11052704 C-103.14946074 141.74004942 -114.76171172 152.30596189 -129.5 159.8125 C-130.2130127 160.18012451 -130.92602539 160.54774902 -131.66064453 160.92651367 C-148.40142127 169.36779011 -165.90318402 172.55420787 -184.375 174.5625 C-201.2520711 176.41440536 -215.77599245 180.38799622 -231 188 C-230.79066547 202.3489306 -228.74286422 216.79979814 -223.77734375 230.33203125 C-222.84129855 233.5446889 -222.92280013 234.83165264 -224 238 C-225.88950496 240.01937009 -227.71683784 241.76794821 -229.80395508 243.55566406 C-231.00040057 244.61933118 -232.1949057 245.6851843 -233.38760376 246.75305176 C-233.99392765 247.29299271 -234.60025154 247.83293365 -235.22494888 248.38923645 C-237.91205089 250.8276372 -240.47882358 253.37671742 -243.03393555 255.95214844 C-243.5277815 256.44874088 -244.02162745 256.94533333 -244.53043842 257.45697403 C-245.54564878 258.47987213 -246.55987833 259.50374454 -247.57315636 260.52855682 C-249.18905659 262.16229046 -250.80885421 263.79207496 -252.42964172 265.42095947 C-257.02547773 270.04090659 -261.61511694 274.66697753 -266.20092773 279.296875 C-269.03219897 282.15483432 -271.86825004 285.00797657 -274.70734596 287.85816193 C-275.78217717 288.93920218 -276.85510698 290.02213636 -277.92609215 291.106987 C-279.40938901 292.60937718 -280.89863178 294.10561886 -282.3894043 295.60058594 C-283.23399704 296.45263611 -284.07858978 297.30468628 -284.94877625 298.18255615 C-287 300 -287 300 -289 300 C-311.41767363 244.59974375 -314.27783517 182.8341767 -291 127 C-275.39660487 91.1934649 -252.25332146 57.93159287 -221 34 C-220.45682129 33.58041016 -219.91364258 33.16082031 -219.35400391 32.72851562 C-158.0906142 -14.35751181 -72.43072536 -30.73809564 0 0 Z " fill="#FE9838" transform="translate(336,44)"/>
<path d="M0 0 C6.1231446 9.1847169 7.46357571 22.68407939 9.25 33.375 C9.41290527 34.34783936 9.57581055 35.32067871 9.74365234 36.32299805 C18.81644206 93.34851851 4.71674028 153.11412421 -28.8671875 200.03515625 C-41.85374279 217.8563398 -56.44023695 234.55396993 -74 248 C-74.54317871 248.41958984 -75.08635742 248.83917969 -75.64599609 249.27148438 C-124.18125433 286.57488061 -183.63033029 302.79367058 -244.3762207 295.49169922 C-258.06559072 293.62864265 -271.96325352 290.63380955 -285 286 C-282.92691427 283.78037682 -280.91282573 282.22200116 -278.28125 280.71484375 C-277.52730957 280.27575684 -276.77336914 279.83666992 -275.99658203 279.38427734 C-275.17270996 278.90684082 -274.34883789 278.4294043 -273.5 277.9375 C-249.22716034 263.6229799 -226.26376552 247.23886502 -204 230 C-203.37561035 229.51885742 -202.7512207 229.03771484 -202.10791016 228.54199219 C-194.91258467 222.99336778 -187.89686686 217.28391423 -181.03173828 211.33081055 C-177.64084692 208.39168966 -174.20165922 205.54221715 -170.6875 202.75 C-164.31944562 197.58417417 -158.43653409 191.91227059 -152.50390625 186.2578125 C-149.18861824 183.10012731 -145.81537941 180.01478485 -142.421875 176.94140625 C-135.6344833 170.76085691 -129.14137033 164.2927133 -122.66186523 157.79223633 C-120.67610324 155.80107223 -118.6849926 153.81536779 -116.69335938 151.83007812 C-108.33092377 143.47832959 -108.33092377 143.47832959 -100.43969727 134.68481445 C-97.9381276 131.75733739 -95.26665641 128.9880196 -92.625 126.1875 C-87.97684467 121.22026907 -83.55521464 116.14423967 -79.30078125 110.83203125 C-76.64089623 107.55797922 -73.88728621 104.3750231 -71.125 101.1875 C-65.74698038 94.94825276 -60.59813917 88.56409697 -55.57373047 82.03759766 C-53.83124931 79.78150896 -52.07339032 77.53777852 -50.31640625 75.29296875 C-40.20287717 62.2862877 -30.98388553 48.80510637 -22 35 C-20.97963327 33.44500622 -19.95883744 31.89029388 -18.9375 30.3359375 C-12.40603163 20.35724225 -6.17068044 10.20489706 0 0 Z " fill="#FFA95A" transform="translate(471,186)"/>
<path d="M0 0 C-20.52951065 33.82316854 -43.91906121 65.20220035 -69.55859375 95.30419922 C-71.00199616 97.00234846 -72.43881423 98.70590193 -73.875 100.41015625 C-80.69345398 108.47029859 -87.7907947 116.22370611 -95.0402832 123.89672852 C-96.46594016 125.4268188 -97.8766019 126.9709228 -99.27807617 128.52319336 C-106.90143701 136.95698242 -114.86746881 145.02050165 -122.91674805 153.04711914 C-125.19761977 155.32259584 -127.47304975 157.60341717 -129.74804688 159.88476562 C-131.22103341 161.35709181 -132.69432986 162.829108 -134.16796875 164.30078125 C-134.83587936 164.97071609 -135.50378998 165.64065094 -136.19194031 166.33088684 C-140.05868917 170.1787268 -144.02798609 173.84990369 -148.16638184 177.40449524 C-151.30287287 180.13368198 -154.29532468 183.01550419 -157.3125 185.875 C-162.43156999 190.68933327 -167.64270886 195.28090011 -173.13671875 199.66796875 C-176.60168628 202.49005008 -179.9524973 205.42954863 -183.3125 208.375 C-189.7073222 213.95178639 -196.24827383 219.27690465 -202.97851562 224.44238281 C-205.22920041 226.17660612 -207.46570432 227.92838914 -209.703125 229.6796875 C-222.70816114 239.79457677 -236.16868754 249.05481377 -250 258 C-250.85899902 258.55703613 -251.71799805 259.11407227 -252.60302734 259.68798828 C-293.7233765 286.264685 -293.7233765 286.264685 -301.4140625 285.87890625 C-312.10695394 282.24461535 -321.96268139 270.73899562 -330 263 C-330.79494873 262.23792236 -330.79494873 262.23792236 -331.60595703 261.46044922 C-340.60115644 252.79768711 -340.60115644 252.79768711 -343 248 C-323.53 228.53 -304.06 209.06 -284 189 C-279.83831899 191.08084051 -278.94965729 192.10666105 -276.4375 195.8125 C-269.79412386 205.2446068 -262.34535311 214.02555147 -254 222 C-229.2451112 201.42228469 -212.53077468 180.49827722 -204.44140625 148.953125 C-197.66565449 122.66844545 -188.09214837 104.42577009 -168.86328125 85.296875 C-167.61263049 84.04096726 -166.36249417 82.78454705 -165.11283875 81.52764893 C-162.51156587 78.91606255 -159.90310368 76.31194 -157.28930664 73.71289062 C-153.9774145 70.41818067 -150.6863151 67.10354834 -147.4006319 63.78272629 C-144.82955982 61.18946262 -142.24663711 58.60825095 -139.66032982 56.03018951 C-138.44357003 54.8142372 -137.23051901 53.59455946 -136.02166176 52.37075043 C-118.74068102 34.90885211 -100.49868725 25.8935217 -76.8359375 19.7890625 C-70.45239103 18.139544 -64.13119056 16.31820484 -57.8125 14.4375 C-49.05387161 11.8437894 -40.25896409 9.46566619 -31.40649414 7.21435547 C-23.92928507 5.29459291 -16.55001338 3.11325231 -9.20410156 0.73999023 C-3.3208483 -1.10694943 -3.3208483 -1.10694943 0 0 Z " fill="#FE9838" transform="translate(427,155)"/>
<path d="M0 0 C10.5635779 9.93291654 17.44044624 24.14882983 18.37255859 38.72753906 C19.54122308 87.66979111 2.42153033 137.98830241 -25.29516602 178.43652344 C-28.162486 182.71248838 -30.74002656 187.16914957 -33.3828125 191.5859375 C-39.81547646 202.24100208 -46.65497894 212.53778582 -53.8203125 222.7109375 C-54.47676758 223.65090576 -54.47676758 223.65090576 -55.14648438 224.60986328 C-65.58285522 239.55210875 -76.81407803 253.87564222 -88.38037109 267.95507812 C-89.66396951 269.52029342 -90.93994322 271.0917545 -92.21484375 272.6640625 C-101.20731236 283.74667246 -110.47797431 294.50244862 -120.30517578 304.85424805 C-123.52447381 308.2464982 -126.67910389 311.67673126 -129.7734375 315.18359375 C-135.84184456 321.9509357 -142.29640283 328.33652311 -148.73168945 334.75268555 C-150.88543772 336.90105616 -153.03376476 339.05474444 -155.18164062 341.20898438 C-156.57259604 342.59927918 -157.96386153 343.98926386 -159.35546875 345.37890625 C-159.98590591 346.01136765 -160.61634308 346.64382904 -161.2658844 347.29545593 C-165.05065498 351.06070114 -168.94771523 354.64216476 -172.99514771 358.12388611 C-175.95195868 360.69494763 -178.7829618 363.39772503 -181.6328125 366.0859375 C-186.57645862 370.71240424 -191.6293331 375.10738204 -196.91796875 379.33984375 C-200.41553187 382.19720689 -203.80056378 385.1704596 -207.1953125 388.1484375 C-213.24967783 393.43132406 -219.47171664 398.42667842 -225.89697266 403.25146484 C-228.09936502 404.9226887 -230.27814165 406.62247113 -232.45703125 408.32421875 C-245.49259649 418.45769644 -258.98548993 427.7077137 -272.8203125 436.7109375 C-274.37530628 437.73130423 -275.93001862 438.75210006 -277.484375 439.7734375 C-287.46102743 446.30524194 -297.57536133 452.60865173 -307.8203125 458.7109375 C-308.79919434 459.29439941 -308.79919434 459.29439941 -309.79785156 459.88964844 C-349.55536911 483.38550581 -406.21758501 509.10520336 -453.5703125 497.0234375 C-455.67545781 496.31433592 -457.76358825 495.55019142 -459.8203125 494.7109375 C-460.72910156 494.3603125 -461.63789063 494.0096875 -462.57421875 493.6484375 C-475.10350136 488.13937889 -484.40835217 477.25624763 -489.64575195 464.82177734 C-501.72866201 432.82002303 -491.37783761 394.1625763 -478.8203125 363.7109375 C-478.1603125 363.0509375 -477.5003125 362.3909375 -476.8203125 361.7109375 C-478.11095715 368.92835823 -479.92617905 375.94981609 -481.91796875 383 C-483.87261372 391.03858321 -484.00289845 398.8499962 -484.0078125 407.0859375 C-484.02005859 408.1584375 -484.03230469 409.2309375 -484.04492188 410.3359375 C-484.0696168 423.86875546 -481.12049874 436.73327183 -472.8203125 447.7109375 C-471.92119141 448.91943359 -471.92119141 448.91943359 -471.00390625 450.15234375 C-463.18626647 459.31254779 -449.52207815 464.27567713 -437.8203125 465.7109375 C-353.94629453 471.04267829 -269.60671792 404.68549827 -209.8203125 352.7109375 C-207.03665042 350.23527792 -204.28945406 347.72063878 -201.55078125 345.1953125 C-199.3674413 343.20875426 -197.16353232 341.25827635 -194.9375 339.3203125 C-183.78747412 329.58738608 -173.23220143 319.22249918 -162.7578125 308.7734375 C-162.26521942 308.28343262 -161.77262634 307.79342773 -161.2651062 307.28857422 C-156.14505456 302.18978179 -151.1269765 297.04821297 -146.4230957 291.55883789 C-143.6953329 288.41391228 -140.80850511 285.41953562 -137.9453125 282.3984375 C-133.11177783 277.25858792 -128.49468304 272.02798316 -124.08984375 266.51171875 C-121.92063125 263.83473877 -119.69181969 261.22571518 -117.43408203 258.6237793 C-111.74629696 252.06859358 -106.3287287 245.37095583 -101.11523438 238.43115234 C-99.75883139 236.62926406 -98.39169227 234.83587049 -97.0234375 233.04296875 C-58.1671065 181.93364701 -8.76451122 110.48556341 -14.8203125 42.7109375 C-16.79131185 28.31921712 -22.46744354 16.06147017 -33.8203125 6.7109375 C-51.29563791 -5.46883476 -74.43638162 -5.57239385 -94.70678711 -2.00268555 C-101.30974008 -0.70450439 -107.58622973 0.84717495 -113.89038086 3.22924805 C-115.8203125 3.7109375 -115.8203125 3.7109375 -118.8203125 2.7109375 C-83.20117376 -11.04822695 -33.3222493 -27.04548212 0 0 Z " fill="#FEDF2E" transform="translate(493.8203125,13.2890625)"/>
<path d="M0 0 C-6.76498357 26.39233721 -24.64354331 44.78585508 -43.3515625 63.58984375 C-44.03067059 64.27302736 -44.70977867 64.95621098 -45.40946579 65.66009712 C-49.00294991 69.27429939 -52.59960198 72.88531544 -56.19873047 76.49389648 C-59.87477388 80.18099155 -63.5389775 83.87962327 -67.20064735 87.58098507 C-70.05614116 90.46286098 -72.92071251 93.33558921 -75.78763962 96.20608711 C-77.14073835 97.56399382 -78.49051845 98.92521732 -79.83659744 100.29008293 C-90.96682154 111.56597487 -102.77307915 122.39751488 -117.4375 128.875 C-118.62581421 129.4174939 -118.62581421 129.4174939 -119.83813477 129.97094727 C-133.01902683 135.8389271 -146.47890372 139.58957019 -160.9375 140.3125 C-171.35920181 140.98527734 -182.09672982 143.69890994 -192 147 C-191.60301929 136.46083581 -189.91667258 126.71273875 -187.4375 116.5 C-187.25948853 115.75710724 -187.08147705 115.01421448 -186.89807129 114.24880981 C-179.84096197 84.96635306 -167.91735647 57.96388022 -151 33 C-150.27296875 31.91589844 -149.5459375 30.83179688 -148.796875 29.71484375 C-135.2243121 9.89776136 -103.83685625 3.85994311 -81.48901367 -0.52880859 C-55.64236653 -5.28591285 -25.42521793 -7.9100678 0 0 Z " fill="#FFA95A" transform="translate(295,33)"/>
<path d="M0 0 C6.1231446 9.1847169 7.46357571 22.68407939 9.25 33.375 C9.41290527 34.34783936 9.57581055 35.32067871 9.74365234 36.32299805 C12.85772678 55.89599831 12.91452924 76.06694873 11.5 95.8125 C11.47188232 96.55121338 11.44376465 97.28992676 11.41479492 98.05102539 C11.11506941 101.25170564 10.67325483 103.31013468 8.38100624 105.65893745 C7.71681868 106.20003088 7.05263111 106.74112431 6.36831665 107.2986145 C2.31997614 110.70228773 -1.4091666 114.30476903 -5.11181641 118.07763672 C-6.10396149 119.08160995 -6.10396149 119.08160995 -7.1161499 120.10586548 C-8.53901542 121.54580084 -9.96081739 122.98678781 -11.38164139 124.42873764 C-14.42216078 127.51175561 -17.47237811 130.58510425 -20.52199364 133.65912056 C-26.18154393 139.36413812 -31.83727544 145.07280344 -37.47607422 150.79833984 C-41.41648322 154.7986067 -45.36939647 158.78614881 -49.3304863 162.76593399 C-50.82516731 164.27224911 -52.31533747 165.78305592 -53.8005867 167.29867172 C-76.43631778 190.38532836 -100.48780366 200.37716876 -132.6875 201.3125 C-134.55020405 201.38417372 -136.41283641 201.45773602 -138.27539062 201.53320312 C-148.51925541 201.92854226 -158.74890524 202.0978554 -169 202 C-166.18003912 199.16582896 -163.35050349 196.35155755 -160.43359375 193.6171875 C-159.45616211 192.70066406 -159.45616211 192.70066406 -158.45898438 191.765625 C-157.79189453 191.14171875 -157.12480469 190.5178125 -156.4375 189.875 C-155.4774707 188.97394531 -155.4774707 188.97394531 -154.49804688 188.0546875 C-151.46255082 185.21168632 -148.41988144 182.37986708 -145.33569336 179.58959961 C-137.55484195 172.54087905 -130.07322658 165.22758565 -122.66186523 157.79223633 C-120.67610324 155.80107223 -118.6849926 153.81536779 -116.69335938 151.83007812 C-108.33092377 143.47832959 -108.33092377 143.47832959 -100.43969727 134.68481445 C-97.9381276 131.75733739 -95.26665641 128.9880196 -92.625 126.1875 C-87.97684467 121.22026907 -83.55521464 116.14423967 -79.30078125 110.83203125 C-76.64089623 107.55797922 -73.88728621 104.3750231 -71.125 101.1875 C-65.74698038 94.94825276 -60.59813917 88.56409697 -55.57373047 82.03759766 C-53.83124931 79.78150896 -52.07339032 77.53777852 -50.31640625 75.29296875 C-40.20287717 62.2862877 -30.98388553 48.80510637 -22 35 C-20.97963327 33.44500622 -19.95883744 31.89029388 -18.9375 30.3359375 C-12.40603163 20.35724225 -6.17068044 10.20489706 0 0 Z " fill="#FF9837" transform="translate(471,186)"/>
<path d="M0 0 C0.99 0.495 0.99 0.495 2 1 C1.23429687 2.05960938 1.23429687 2.05960938 0.453125 3.140625 C-19.61152651 31.45882111 -34.23077774 62.08336453 -41.9375 96 C-42.22004639 97.23862793 -42.50259277 98.47725586 -42.79370117 99.75341797 C-45.75348911 113.44958477 -47.20685447 126.36177833 -46.80859375 140.3515625 C-46.78125656 141.43080994 -46.75391937 142.51005737 -46.72575378 143.62200928 C-46.60778193 148.09770458 -46.48606041 152.57082513 -46.2800293 157.04345703 C-45.44910532 175.97111653 -45.44910532 175.97111653 -49.13720703 180.79589844 C-51.91015625 182.5234375 -51.91015625 182.5234375 -54.63696289 183.54443359 C-63.77193583 187.49816925 -70.80101298 195.53950571 -77.66981316 202.55004883 C-79.19093414 204.10186923 -80.71909777 205.64645133 -82.24916077 207.18945312 C-86.59000602 211.56965893 -90.91738268 215.96308978 -95.24243164 220.35888672 C-97.90609219 223.06515268 -100.57694412 225.76415166 -103.25219917 228.45895386 C-104.75760264 229.98005306 -106.2541393 231.50953092 -107.75071716 233.03930664 C-109.11342491 234.41203735 -109.11342491 234.41203735 -110.50366211 235.8125 C-111.70085121 237.02873047 -111.70085121 237.02873047 -112.92222595 238.26953125 C-115 240 -115 240 -118 240 C-126.77058879 178.13935782 -114.71698511 117.52640078 -77.125 66.875 C-64.79788233 50.62427262 -51.24127249 35.43642284 -35 23 C-34.45682129 22.58041016 -33.91364258 22.16082031 -33.35400391 21.72851562 C-22.89533956 13.6901593 -11.8235677 5.91178385 0 0 Z " fill="#FF9838" transform="translate(150,55)"/>
<path d="M0 0 C4.9419609 1.99926188 4.9419609 1.99926188 7.3190918 3.32641602 C11.12675692 5.32690691 14.96086975 6.68471068 19.07299805 7.92016602 C20.06348145 8.22374023 20.06348145 8.22374023 21.07397461 8.53344727 C28.03778339 10.62225299 35.09053303 12.29895258 42.19116211 13.84985352 C44.029153 14.25769967 45.86014568 14.69675873 47.69018555 15.13891602 C71.19207643 20.46814297 96.27982265 20.32458696 120.19799805 18.29516602 C120.19799805 18.95516602 120.19799805 19.61516602 120.19799805 20.29516602 C63.42578345 51.44764545 2.19448537 60.9763835 -60.80200195 43.29516602 C-62.81010959 42.65333414 -64.8155679 42.00122846 -66.80200195 41.29516602 C-64.72891622 39.07554283 -62.71482769 37.51716718 -60.08325195 36.01000977 C-59.32923096 35.57084229 -58.57520996 35.1316748 -57.79833984 34.67919922 C-56.97454834 34.20184326 -56.15075684 33.7244873 -55.30200195 33.23266602 C-46.63610254 28.12506797 -38.22011291 22.70200135 -29.86450195 17.10766602 C-29.30939941 16.73656708 -28.75429687 16.36546814 -28.18237305 15.98312378 C-26.54509899 14.88735788 -24.90986967 13.78853879 -23.2746582 12.68969727 C-22.212229 11.98039062 -21.1497998 11.27108398 -20.05517578 10.5402832 C-17.76397862 8.95905625 -15.55489035 7.36057154 -13.3515625 5.66723633 C-12.78066391 5.24012863 -12.20976532 4.81302094 -11.62156677 4.37297058 C-10.0351026 3.18104982 -8.46721615 1.96451734 -6.90063477 0.74658203 C-3.80200195 -0.70483398 -3.80200195 -0.70483398 0 0 Z " fill="#FF9838" transform="translate(252.802001953125,430.704833984375)"/>
<path d="M0 0 C0.95107381 2.85322143 1.18110551 4.84580898 1.28808594 7.81933594 C1.34122955 9.28666168 1.34122955 9.28666168 1.39544678 10.78363037 C1.51972649 15.25676163 1.60995161 19.72979692 1.6796875 24.20410156 C1.72643096 26.56140019 1.79467597 28.91837382 1.88476562 31.27441406 C2.62005162 50.84728835 2.62005162 50.84728835 -1.15039062 55.85742188 C-3.921875 57.578125 -3.921875 57.578125 -6.64355469 58.57519531 C-15.78804741 62.45701518 -22.81803765 70.5568817 -29.66981316 77.55004883 C-31.19093414 79.10186923 -32.71909777 80.64645133 -34.24916077 82.18945312 C-38.59000602 86.56965893 -42.91738268 90.96308978 -47.24243164 95.35888672 C-49.90609219 98.06515268 -52.57694412 100.76415166 -55.25219917 103.45895386 C-56.75760264 104.98005306 -58.2541393 106.50953092 -59.75071716 108.03930664 C-60.659189 108.95446045 -61.56766083 109.86961426 -62.50366211 110.8125 C-63.70085121 112.02873047 -63.70085121 112.02873047 -64.92222595 113.26953125 C-67 115 -67 115 -70 115 C-71.9381171 101.33008897 -73.35324032 87.68700206 -73.625 73.875 C-73.67205078 72.70936523 -73.71910156 71.54373047 -73.76757812 70.34277344 C-73.77466797 69.23708008 -73.78175781 68.13138672 -73.7890625 66.9921875 C-73.80662598 66.02651855 -73.82418945 65.06084961 -73.84228516 64.06591797 C-72.53661943 59.31329473 -69.38344655 56.4768239 -66 53 C-65.39071655 52.35886261 -64.78143311 51.71772522 -64.15368652 51.05715942 C-62.24390326 49.06417887 -60.31208012 47.09540318 -58.37109375 45.1328125 C-57.65953629 44.41318329 -56.94797882 43.69355408 -56.21485901 42.95211792 C-54.71624235 41.43976527 -53.21613438 39.92888905 -51.71459961 38.41943359 C-50.2045356 36.89787451 -48.69894 35.37186686 -47.19799805 33.84130859 C-35.73234818 22.15029897 -24.29114653 11.3643438 -9.25 4.4375 C-8.56679687 4.10943359 -7.88359375 3.78136719 -7.1796875 3.44335938 C-5.45815919 2.61831863 -3.72965092 1.80787354 -2 1 C-1.34 0.67 -0.68 0.34 0 0 Z " fill="#FF8706" transform="translate(102,180)"/>
<path d="M0 0 C5.66237647 4.21225567 10.21557427 9.92682707 12.4140625 16.69140625 C12.4759375 17.51640625 12.5378125 18.34140625 12.6015625 19.19140625 C12.7253125 20.30515625 12.8490625 21.41890625 12.9765625 22.56640625 C12.61731345 43.72218349 -4.1800401 61.44347052 -18.3984375 75.19140625 C-21.8850899 72.01886668 -24.27756157 68.4732052 -26.6484375 64.44140625 C-27.23105347 63.45829468 -27.23105347 63.45829468 -27.82543945 62.45532227 C-34.62213656 50.8237616 -40.34352307 38.67212419 -45.3984375 26.19140625 C-45.82511719 25.14339844 -46.25179687 24.09539062 -46.69140625 23.015625 C-49.4436111 15.92376609 -49.4436111 15.92376609 -49.26953125 13.1015625 C-45.54465163 4.93355294 -31.86279379 0.96030214 -24.0859375 -2.12109375 C-16.03274839 -3.62253579 -7.23147166 -4.41581355 0 0 Z " fill="#FFB97D" transform="translate(163.3984375,267.80859375)"/>
<path d="M0 0 C3.41630371 1.60803876 5.52158303 3.36787576 8.125 6.125 C12.75225684 10.87544504 17.74162999 14.97114448 23 19 C21.76276082 22.71171753 20.57403165 23.23914858 17.35546875 25.37109375 C16.37803711 26.02215088 15.40060547 26.67320801 14.39355469 27.34399414 C13.33555664 28.03485107 12.27755859 28.72570801 11.1875 29.4375 C10.10758789 30.14962646 9.02767578 30.86175293 7.91503906 31.59545898 C-1.21071729 37.57276239 -10.48670688 43.26587416 -19.90380859 48.77050781 C-21.7838499 49.87322014 -23.65371467 50.99063623 -25.51953125 52.1171875 C-42.43930603 62.23864456 -42.43930603 62.23864456 -47.640625 61.75390625 C-50.68667157 60.78058342 -52.62527819 59.10332503 -55 57 C-53.42476254 53.14691234 -50.82252556 50.55256086 -47.90771484 47.68066406 C-47.39048355 47.16314072 -46.87325226 46.64561737 -46.34034729 46.1124115 C-44.63524329 44.40869711 -42.92317232 42.71217022 -41.2109375 41.015625 C-40.025087 39.83350593 -38.83967826 38.65094355 -37.6546936 37.46795654 C-34.53882362 34.35971272 -31.41699366 31.25752263 -28.29388428 28.15655518 C-25.10636381 24.98951498 -21.9245168 21.81678613 -18.7421875 18.64453125 C-12.50033024 12.42410597 -6.25216515 6.21006463 0 0 Z " fill="#FE8706" transform="translate(173,379)"/>
<path d="M0 0 C6.96032383 2.36702189 12.344714 7.45477858 18 12 C18.52658203 12.41926758 19.05316406 12.83853516 19.59570312 13.27050781 C26.90580792 19.12506077 33.6651793 25.46704665 40.3125 32.0625 C41.07272461 32.81345947 41.83294922 33.56441895 42.61621094 34.33813477 C43.31649414 35.04252686 44.01677734 35.74691895 44.73828125 36.47265625 C45.36774658 37.10437744 45.99721191 37.73609863 46.64575195 38.38696289 C48 40 48 40 48 42 C43.38289526 43.30158967 38.76064516 44.58229764 34.1328125 45.84521484 C32.56423717 46.27625163 30.99712082 46.71263921 29.43164062 47.15478516 C7.15394665 53.43641114 7.15394665 53.43641114 -1.4375 49.375 C-6.07993944 45.07225125 -9.78437471 41.44577662 -10.19921875 34.81640625 C-9.97649976 30.54980912 -9.08462901 26.98910203 -7.8125 22.9375 C-7.59053955 22.20668213 -7.3685791 21.47586426 -7.13989258 20.72290039 C-4.9863805 13.73401567 -2.55203431 6.8524836 0 0 Z " fill="#FFBA7D" transform="translate(379,66)"/>
</svg>
