<?xml version="1.0" encoding="UTF-8"?>
<svg version="1.1" xmlns="http://www.w3.org/2000/svg" width="512" height="512">
<path d="M0 0 C0.825 -0.01289063 1.65 -0.02578125 2.5 -0.0390625 C6.12069908 0.92268569 7.56404414 2.81020366 10 5.625 C11.44752502 8.89237976 11.44752502 8.89237976 12.61547852 12.64331055 C12.8341156 13.33023483 13.05275269 14.01715912 13.27801514 14.72489929 C13.99287192 16.98288222 14.68575429 19.24698871 15.37890625 21.51171875 C15.87637739 23.09533528 16.3753393 24.6784842 16.87571716 26.26118469 C18.18797879 30.42397053 19.48224633 34.59212472 20.77209473 38.76190186 C22.83482535 45.41823003 24.92663532 52.06549606 27.01499748 58.71381569 C27.73756065 61.02200363 28.45360551 63.33212671 29.16835022 65.64274597 C31.28082313 72.43863162 33.45415121 79.15727654 36.21177673 85.72639465 C36.87827727 87.33180461 37.45031244 88.97593733 38 90.625 C43.21148486 93.90630528 48.90549614 95.25546592 55 94.625 C61.93919923 91.59197252 67.8525644 87.38429308 74 83 C77.99456014 80.2005219 81.99608383 77.41107834 86 74.625 C87.23532471 73.76479248 87.23532471 73.76479248 88.49560547 72.88720703 C90.6270257 71.41988863 92.77636229 69.9855471 94.9375 68.5625 C95.54400391 68.13952637 96.15050781 67.71655273 96.77539062 67.28076172 C100.04359711 65.17573798 102.44574148 64.3688224 106.25390625 64.734375 C109.96618399 65.61696032 111.92901662 66.43643318 114.17578125 69.58544922 C117.2592891 77.21566978 114.71499234 88.16841778 114 96.1875 C113.34640742 104.24577593 112.75415204 112.28927491 112.625 120.375 C112.59921875 121.12982666 112.5734375 121.88465332 112.546875 122.66235352 C112.52803602 127.80951613 113.77695057 130.65952968 117 134.625 C121.55853627 138.73880102 124.90642609 139.95455312 131.08624268 139.875 C136.86471803 139.37920756 142.49401847 137.96478807 148.134655 136.66186523 C150.50550153 136.1147154 152.87890372 135.58023033 155.25332642 135.04882812 C161.14846074 133.72706082 167.03924849 132.38638255 172.92926025 131.04199219 C177.91633282 129.9039752 182.90535311 128.77542144 187.89751053 127.65991211 C190.21874865 127.13731255 192.53657011 126.60114311 194.85458374 126.06445312 C210.65552779 122.48161876 210.65552779 122.48161876 218 123.625 C221.48265627 125.99320626 222.62870771 127.55753466 224 131.5 C224 136.76633307 222.50228434 139.96710055 219.0390625 143.7890625 C217.4776134 145.33985324 215.89996109 146.87445717 214.30859375 148.39453125 C212.35580824 150.28123265 210.57171868 152.18638725 208.8125 154.25 C205.3238837 158.31869067 201.6669642 162.21790001 198 166.125 C193.86552639 170.53367427 189.77320475 174.95615233 185.8359375 179.54296875 C183.79900311 181.85293902 181.70238051 184.09991788 179.59936523 186.34960938 C168.20509916 197.39514896 168.20509916 197.39514896 163.9375 211.8125 C163.95103516 213.16408203 163.95103516 213.16408203 163.96484375 214.54296875 C163.97644531 215.23003906 163.98804688 215.91710937 164 216.625 C165.0202124 216.80039307 166.0404248 216.97578613 167.09155273 217.15649414 C238.48952416 229.510617 238.48952416 229.510617 253.4375 246.375 C256.96280754 251.45144285 256.55382644 256.5962036 256 262.625 C254.4375 266 254.4375 266 252 268.625 C251.57203125 269.10066406 251.1440625 269.57632812 250.703125 270.06640625 C232.75370821 287.78451612 198.66904576 290.37947662 175 294.625 C172.86058969 295.01384241 170.72125798 295.40311766 168.58203125 295.79296875 C167.05470344 296.07040029 165.52736645 296.34778131 164 296.625 C163.95685669 297.68920166 163.95685669 297.68920166 163.9128418 298.77490234 C163.84423828 300.4671224 163.77563477 302.15934245 163.70703125 303.8515625 C164.38689719 310.28762672 168.33237467 314.42576372 172.625 318.875 C173.71016557 320.02423922 174.79479674 321.17398326 175.87890625 322.32421875 C176.4114502 322.88544434 176.94399414 323.44666992 177.49267578 324.02490234 C179.55350635 326.21257379 181.56021907 328.44624883 183.5625 330.6875 C188.66242988 336.3755299 193.83108092 341.99979013 199 347.625 C204.32803115 353.42336769 209.65294898 359.22441172 214.9375 365.0625 C215.62714844 365.82433594 216.31679688 366.58617187 217.02734375 367.37109375 C223.89178454 375.21422709 223.89178454 375.21422709 224 380.625 C222.5500457 384.97486291 221.85115325 387.0575645 218 389.625 C209.44929242 390.91442282 200.87843722 388.58025043 192.59275436 386.66186523 C190.22260128 386.11323266 187.84951563 385.57936332 185.47525024 385.04882812 C180.43884037 383.92059097 175.40681895 382.77350856 170.375 381.625 C164.53055768 380.29304779 158.68445135 378.96906689 152.83485794 377.65991211 C150.5104883 377.13616521 148.18903646 376.60069626 145.86752319 376.06445312 C133.81875851 373.10129982 133.81875851 373.10129982 121.75 374.75 C117.91915651 377.36193874 115.09838185 380.42823629 113 384.625 C112.86907145 387.30446797 112.81030854 389.94457318 112.8125 392.625 C112.81185547 393.45008057 112.81121094 394.27516113 112.81054688 395.12524414 C112.87854785 403.54422875 113.53879786 411.90453401 114.28833008 420.28710938 C116.09231738 440.99039378 116.09231738 440.99039378 112.9375 445.3125 C109.33916449 448.14523221 107.57938766 448.78023348 103 448.625 C97.47954916 446.49750764 92.60760138 443.1573604 87.8125 439.75 C86.430622 438.78511858 85.04775376 437.8216543 83.6640625 436.859375 C82.92446289 436.34439453 82.18486328 435.82941406 81.42285156 435.29882812 C76.87351685 432.15591813 72.28208417 429.07621922 67.6875 426 C66.77395752 425.38398926 65.86041504 424.76797852 64.91918945 424.13330078 C64.06284912 423.5607959 63.20650879 422.98829102 62.32421875 422.3984375 C61.1808606 421.63152588 61.1808606 421.63152588 60.0144043 420.84912109 C55.88191801 418.33787564 51.71505614 418.0981282 47 418.625 C43.73249119 419.96626843 43.73249119 419.96626843 41 421.625 C40.01 421.955 39.02 422.285 38 422.625 C36.86309519 424.83809663 36.86309519 424.83809663 36 427.625 C35.45230957 429.19616577 35.45230957 429.19616577 34.89355469 430.79907227 C33.76693872 434.15798187 32.64035908 437.51688064 31.52005005 440.87789917 C31.00370402 442.42656892 30.4861732 443.97484411 29.96749878 445.5227356 C26.6189629 455.5195341 23.38192575 465.5442727 20.26953125 475.6171875 C19.64563247 477.62430633 19.02160979 479.63138665 18.39746094 481.63842773 C17.18424084 485.54176365 15.99190972 489.45074122 14.80957031 493.36352539 C14.25011364 495.16836872 13.68992769 496.9729862 13.12890625 498.77734375 C12.88654739 499.59979584 12.64418854 500.42224792 12.39448547 501.2696228 C10.83690777 506.20526876 9.14654603 509.27411029 5 512.625 C2.5 513.2890625 2.5 513.2890625 0 513.25 C-0.825 513.26289062 -1.65 513.27578125 -2.5 513.2890625 C-6.11203215 512.32961646 -7.56552533 510.42600073 -10 507.625 C-11.40283203 504.49169922 -11.40283203 504.49169922 -12.5078125 500.9296875 C-12.71508972 500.2768428 -12.92236694 499.62399811 -13.13592529 498.95137024 C-13.81352262 496.80517819 -14.46910412 494.65291284 -15.125 492.5 C-15.59764361 490.9908288 -16.07179104 489.48212784 -16.54736328 487.97387695 C-17.79512992 484.0045709 -19.02492667 480.02993502 -20.25024414 476.0536499 C-22.20608011 469.71819981 -24.19037998 463.39159594 -26.17230225 457.06427002 C-26.855721 454.87427888 -27.53228394 452.68227209 -28.20751953 450.48974609 C-30.54449749 442.94518371 -33.07954741 435.53838396 -35.98876953 428.19262695 C-36.71185456 426.35663342 -37.37600287 424.4969914 -38 422.625 C-43.21148486 419.34369472 -48.90549614 417.99453408 -55 418.625 C-61.97713334 421.6736368 -67.93967629 425.91026357 -74.125 430.3125 C-76.16821741 431.74629402 -78.21248557 433.17859185 -80.2578125 434.609375 C-81.24168945 435.29837891 -82.22556641 435.98738281 -83.23925781 436.69726562 C-86.80431879 439.18662904 -90.37682478 441.65843708 -94 444.0625 C-95.010625 444.74183594 -96.02125 445.42117188 -97.0625 446.12109375 C-100.45436799 447.85762191 -103.2085342 448.39140258 -107 448.625 C-110.73670317 447.01142363 -112.87650661 445.06625074 -115 441.625 C-115.328125 439.05102539 -115.328125 439.05102539 -115.25 436.16015625 C-115.22292969 435.09684082 -115.19585937 434.03352539 -115.16796875 432.93798828 C-114.89903827 427.63364735 -114.47163434 422.35217139 -114 417.0625 C-113.34640742 409.00422407 -112.75415204 400.96072509 -112.625 392.875 C-112.59921875 392.12017334 -112.5734375 391.36534668 -112.546875 390.58764648 C-112.52803602 385.44048387 -113.77695057 382.59047032 -117 378.625 C-121.55853627 374.51119898 -124.90642609 373.29544688 -131.08624268 373.375 C-136.86471803 373.87079244 -142.49401847 375.28521193 -148.134655 376.58813477 C-150.50550153 377.1352846 -152.87890372 377.66976967 -155.25332642 378.20117188 C-161.14846074 379.52293918 -167.03924849 380.86361745 -172.92926025 382.20800781 C-177.91633282 383.3460248 -182.90535311 384.47457856 -187.89751053 385.59008789 C-190.21874865 386.11268745 -192.53657011 386.64885689 -194.85458374 387.18554688 C-210.65552779 390.76838124 -210.65552779 390.76838124 -218 389.625 C-221.48265627 387.25679374 -222.62870771 385.69246534 -224 381.75 C-224 376.48366693 -222.50228434 373.28289945 -219.0390625 369.4609375 C-217.48022624 367.91274176 -215.90522482 366.38069224 -214.31640625 364.86328125 C-212.32098268 362.93515695 -210.49101318 360.97983725 -208.6875 358.875 C-205.61752209 355.30163079 -202.45092016 351.83059634 -199.25 348.375 C-198.73550293 347.8193335 -198.22100586 347.26366699 -197.69091797 346.69116211 C-196.64284619 345.55947278 -195.59466879 344.42788126 -194.54638672 343.29638672 C-190.34575388 338.75620162 -186.17132469 334.19209796 -182 329.625 C-181.2059375 328.76003906 -180.411875 327.89507812 -179.59375 327.00390625 C-168.26265584 315.83118691 -168.26265584 315.83118691 -163.9375 301.4375 C-163.94652344 300.53644531 -163.95554687 299.63539063 -163.96484375 298.70703125 C-163.97644531 298.01996094 -163.98804688 297.33289063 -164 296.625 C-165.0202124 296.44960693 -166.0404248 296.27421387 -167.09155273 296.09350586 C-238.48952416 283.739383 -238.48952416 283.739383 -253.4375 266.875 C-256.96280754 261.79855715 -256.55382644 256.6537964 -256 250.625 C-254.4375 247.25 -254.4375 247.25 -252 244.625 C-251.57203125 244.14933594 -251.1440625 243.67367187 -250.703125 243.18359375 C-232.75370821 225.46548388 -198.66904576 222.87052338 -175 218.625 C-172.86058969 218.23615759 -170.72125798 217.84688234 -168.58203125 217.45703125 C-167.05470344 217.17959971 -165.52736645 216.90221869 -164 216.625 C-163.97123779 215.91553223 -163.94247559 215.20606445 -163.9128418 214.47509766 C-163.84423828 212.7828776 -163.77563477 211.09065755 -163.70703125 209.3984375 C-164.38689719 202.96237328 -168.33237467 198.82423628 -172.625 194.375 C-173.71016557 193.22576078 -174.79479674 192.07601674 -175.87890625 190.92578125 C-176.67772217 190.08394287 -176.67772217 190.08394287 -177.49267578 189.22509766 C-179.55350635 187.03742621 -181.56021907 184.80375117 -183.5625 182.5625 C-186.85053693 178.89393076 -190.16671251 175.25243489 -193.5 171.625 C-197.56340335 167.20301986 -201.58947211 162.74940454 -205.59765625 158.27734375 C-207.42707729 156.25754394 -209.2673721 154.25121421 -211.12109375 152.25390625 C-211.66000244 151.67310303 -212.19891113 151.0922998 -212.75415039 150.49389648 C-213.81019697 149.35768008 -214.86789716 148.22299768 -215.92749023 147.09008789 C-223.76328454 138.66124426 -223.76328454 138.66124426 -224 132.625 C-222.5500457 128.27513709 -221.85115325 126.1924355 -218 123.625 C-209.44929242 122.33557718 -200.87843722 124.66974957 -192.59275436 126.58813477 C-190.22260128 127.13676734 -187.84951563 127.67063668 -185.47525024 128.20117188 C-180.43884037 129.32940903 -175.40681895 130.47649144 -170.375 131.625 C-164.53055768 132.95695221 -158.68445135 134.28093311 -152.83485794 135.59008789 C-150.5104883 136.11383479 -148.18903646 136.64930374 -145.86752319 137.18554688 C-133.81875851 140.14870018 -133.81875851 140.14870018 -121.75 138.5 C-117.91915651 135.88806126 -115.09838185 132.82176371 -113 128.625 C-112.86907145 125.94553203 -112.81030854 123.30542682 -112.8125 120.625 C-112.8115332 119.38737915 -112.8115332 119.38737915 -112.81054688 118.12475586 C-112.87854785 109.70577125 -113.53879786 101.34546599 -114.28833008 92.96289062 C-116.09138416 72.27031626 -116.09138416 72.27031626 -113 67.9375 C-110.12439645 65.72088893 -108.00192313 64.41806371 -104.328125 64.1796875 C-98.53783622 65.28722596 -93.10594573 69.51905427 -89 73.625 C-89.00570796 75.00061933 -89.0532009 76.37624384 -89.125 77.75 C-88.83095194 81.44660421 -88.18377464 82.45425312 -85.41015625 85.03125 C-80.10727962 89.17912892 -80.10727962 89.17912892 -73.85546875 90.35546875 C-72.93701172 89.99388672 -72.93701172 89.99388672 -72 89.625 C-65.74336798 89.1204329 -63.11775992 89.69741681 -58 93.625 C-51.499199 95.79193367 -46.90011594 94.4615942 -41 91.625 C-40.01 91.295 -39.02 90.965 -38 90.625 C-36.86309519 88.41190337 -36.86309519 88.41190337 -36 85.625 C-35.63487305 84.57755615 -35.26974609 83.5301123 -34.89355469 82.45092773 C-33.76693872 79.09201813 -32.64035908 75.73311936 -31.52005005 72.37210083 C-31.00370402 70.82343108 -30.4861732 69.27515589 -29.96749878 67.7272644 C-26.6189629 57.7304659 -23.38192575 47.7057273 -20.26953125 37.6328125 C-19.64563247 35.62569367 -19.02160979 33.61861335 -18.39746094 31.61157227 C-17.18424084 27.70823635 -15.99190972 23.79925878 -14.80957031 19.88647461 C-14.25011364 18.08163128 -13.68992769 16.2770138 -13.12890625 14.47265625 C-12.76536797 13.23897812 -12.76536797 13.23897812 -12.39448547 11.9803772 C-10.38825423 5.62303969 -7.47554465 -0.11680539 0 0 Z " fill="#FBE259" transform="translate(256,-0.625)"/>
<path d="M0 0 C0.825 -0.01289063 1.65 -0.02578125 2.5 -0.0390625 C6.12069908 0.92268569 7.56404414 2.81020366 10 5.625 C11.44752502 8.89237976 11.44752502 8.89237976 12.61547852 12.64331055 C12.8341156 13.33023483 13.05275269 14.01715912 13.27801514 14.72489929 C13.99287192 16.98288222 14.68575429 19.24698871 15.37890625 21.51171875 C15.87637739 23.09533528 16.3753393 24.6784842 16.87571716 26.26118469 C18.18797879 30.42397053 19.48224633 34.59212472 20.77209473 38.76190186 C22.83482535 45.41823003 24.92663532 52.06549606 27.01499748 58.71381569 C27.73756065 61.02200363 28.45360551 63.33212671 29.16835022 65.64274597 C31.28082313 72.43863162 33.45415121 79.15727654 36.21177673 85.72639465 C36.87827727 87.33180461 37.45031244 88.97593733 38 90.625 C43.21148486 93.90630528 48.90549614 95.25546592 55 94.625 C61.93919923 91.59197252 67.8525644 87.38429308 74 83 C77.99456014 80.2005219 81.99608383 77.41107834 86 74.625 C87.23532471 73.76479248 87.23532471 73.76479248 88.49560547 72.88720703 C90.6270257 71.41988863 92.77636229 69.9855471 94.9375 68.5625 C95.54400391 68.13952637 96.15050781 67.71655273 96.77539062 67.28076172 C100.04359711 65.17573798 102.44574148 64.3688224 106.25390625 64.734375 C109.96618399 65.61696032 111.92901662 66.43643318 114.17578125 69.58544922 C117.2592891 77.21566978 114.71499234 88.16841778 114 96.1875 C113.34640742 104.24577593 112.75415204 112.28927491 112.625 120.375 C112.59921875 121.12982666 112.5734375 121.88465332 112.546875 122.66235352 C112.52803602 127.80951613 113.77695057 130.65952968 117 134.625 C121.55853627 138.73880102 124.90642609 139.95455312 131.08624268 139.875 C136.86471803 139.37920756 142.49401847 137.96478807 148.134655 136.66186523 C150.50550153 136.1147154 152.87890372 135.58023033 155.25332642 135.04882812 C161.14846074 133.72706082 167.03924849 132.38638255 172.92926025 131.04199219 C177.91633282 129.9039752 182.90535311 128.77542144 187.89751053 127.65991211 C190.21874865 127.13731255 192.53657011 126.60114311 194.85458374 126.06445312 C210.65552779 122.48161876 210.65552779 122.48161876 218 123.625 C221.48265627 125.99320626 222.62870771 127.55753466 224 131.5 C224 136.76633307 222.50228434 139.96710055 219.0390625 143.7890625 C217.4776134 145.33985324 215.89996109 146.87445717 214.30859375 148.39453125 C212.35580824 150.28123265 210.57171868 152.18638725 208.8125 154.25 C205.3238837 158.31869067 201.6669642 162.21790001 198 166.125 C193.86552639 170.53367427 189.77320475 174.95615233 185.8359375 179.54296875 C183.79900311 181.85293902 181.70238051 184.09991788 179.59936523 186.34960938 C168.20509916 197.39514896 168.20509916 197.39514896 163.9375 211.8125 C163.95103516 213.16408203 163.95103516 213.16408203 163.96484375 214.54296875 C163.97644531 215.23003906 163.98804688 215.91710937 164 216.625 C165.0202124 216.80039307 166.0404248 216.97578613 167.09155273 217.15649414 C238.48952416 229.510617 238.48952416 229.510617 253.4375 246.375 C256.96280754 251.45144285 256.55382644 256.5962036 256 262.625 C254.4375 266 254.4375 266 252 268.625 C251.57203125 269.10066406 251.1440625 269.57632812 250.703125 270.06640625 C232.75370821 287.78451612 198.66904576 290.37947662 175 294.625 C172.86058969 295.01384241 170.72125798 295.40311766 168.58203125 295.79296875 C167.05470344 296.07040029 165.52736645 296.34778131 164 296.625 C163.95685669 297.68920166 163.95685669 297.68920166 163.9128418 298.77490234 C163.84423828 300.4671224 163.77563477 302.15934245 163.70703125 303.8515625 C164.38689719 310.28762672 168.33237467 314.42576372 172.625 318.875 C173.71016557 320.02423922 174.79479674 321.17398326 175.87890625 322.32421875 C176.4114502 322.88544434 176.94399414 323.44666992 177.49267578 324.02490234 C179.55350635 326.21257379 181.56021907 328.44624883 183.5625 330.6875 C188.66242988 336.3755299 193.83108092 341.99979013 199 347.625 C204.32803115 353.42336769 209.65294898 359.22441172 214.9375 365.0625 C215.62714844 365.82433594 216.31679688 366.58617187 217.02734375 367.37109375 C223.89178454 375.21422709 223.89178454 375.21422709 224 380.625 C222.5500457 384.97486291 221.85115325 387.0575645 218 389.625 C209.44929242 390.91442282 200.87843722 388.58025043 192.59275436 386.66186523 C190.22260128 386.11323266 187.84951563 385.57936332 185.47525024 385.04882812 C180.43884037 383.92059097 175.40681895 382.77350856 170.375 381.625 C164.53055768 380.29304779 158.68445135 378.96906689 152.83485794 377.65991211 C150.5104883 377.13616521 148.18903646 376.60069626 145.86752319 376.06445312 C133.81875851 373.10129982 133.81875851 373.10129982 121.75 374.75 C117.91915651 377.36193874 115.09838185 380.42823629 113 384.625 C112.86907145 387.30446797 112.81030854 389.94457318 112.8125 392.625 C112.81185547 393.45008057 112.81121094 394.27516113 112.81054688 395.12524414 C112.87854785 403.54422875 113.53879786 411.90453401 114.28833008 420.28710938 C116.09231738 440.99039378 116.09231738 440.99039378 112.9375 445.3125 C109.33916449 448.14523221 107.57938766 448.78023348 103 448.625 C97.47954916 446.49750764 92.60760138 443.1573604 87.8125 439.75 C86.430622 438.78511858 85.04775376 437.8216543 83.6640625 436.859375 C82.92446289 436.34439453 82.18486328 435.82941406 81.42285156 435.29882812 C76.87351685 432.15591813 72.28208417 429.07621922 67.6875 426 C66.77395752 425.38398926 65.86041504 424.76797852 64.91918945 424.13330078 C64.06284912 423.5607959 63.20650879 422.98829102 62.32421875 422.3984375 C61.1808606 421.63152588 61.1808606 421.63152588 60.0144043 420.84912109 C55.88191801 418.33787564 51.71505614 418.0981282 47 418.625 C43.73249119 419.96626843 43.73249119 419.96626843 41 421.625 C40.01 421.955 39.02 422.285 38 422.625 C36.86309519 424.83809663 36.86309519 424.83809663 36 427.625 C35.45230957 429.19616577 35.45230957 429.19616577 34.89355469 430.79907227 C33.76693872 434.15798187 32.64035908 437.51688064 31.52005005 440.87789917 C31.00370402 442.42656892 30.4861732 443.97484411 29.96749878 445.5227356 C26.6189629 455.5195341 23.38192575 465.5442727 20.26953125 475.6171875 C19.64563247 477.62430633 19.02160979 479.63138665 18.39746094 481.63842773 C17.18424084 485.54176365 15.99190972 489.45074122 14.80957031 493.36352539 C14.25011364 495.16836872 13.68992769 496.9729862 13.12890625 498.77734375 C12.88654739 499.59979584 12.64418854 500.42224792 12.39448547 501.2696228 C10.83690777 506.20526876 9.14654603 509.27411029 5 512.625 C2.5 513.2890625 2.5 513.2890625 0 513.25 C-0.825 513.26289062 -1.65 513.27578125 -2.5 513.2890625 C-6.11203215 512.32961646 -7.56552533 510.42600073 -10 507.625 C-11.40283203 504.49169922 -11.40283203 504.49169922 -12.5078125 500.9296875 C-12.71508972 500.2768428 -12.92236694 499.62399811 -13.13592529 498.95137024 C-13.81352262 496.80517819 -14.46910412 494.65291284 -15.125 492.5 C-15.59764361 490.9908288 -16.07179104 489.48212784 -16.54736328 487.97387695 C-17.79512992 484.0045709 -19.02492667 480.02993502 -20.25024414 476.0536499 C-22.20608011 469.71819981 -24.19037998 463.39159594 -26.17230225 457.06427002 C-26.855721 454.87427888 -27.53228394 452.68227209 -28.20751953 450.48974609 C-30.54449749 442.94518371 -33.07954741 435.53838396 -35.98876953 428.19262695 C-36.71185456 426.35663342 -37.37600287 424.4969914 -38 422.625 C-43.21148486 419.34369472 -48.90549614 417.99453408 -55 418.625 C-61.97713334 421.6736368 -67.93967629 425.91026357 -74.125 430.3125 C-76.16821741 431.74629402 -78.21248557 433.17859185 -80.2578125 434.609375 C-81.24168945 435.29837891 -82.22556641 435.98738281 -83.23925781 436.69726562 C-86.80431879 439.18662904 -90.37682478 441.65843708 -94 444.0625 C-95.010625 444.74183594 -96.02125 445.42117188 -97.0625 446.12109375 C-100.45436799 447.85762191 -103.2085342 448.39140258 -107 448.625 C-110.73670317 447.01142363 -112.87650661 445.06625074 -115 441.625 C-115.328125 439.05102539 -115.328125 439.05102539 -115.25 436.16015625 C-115.22292969 435.09684082 -115.19585937 434.03352539 -115.16796875 432.93798828 C-114.89903827 427.63364735 -114.47163434 422.35217139 -114 417.0625 C-113.34640742 409.00422407 -112.75415204 400.96072509 -112.625 392.875 C-112.59921875 392.12017334 -112.5734375 391.36534668 -112.546875 390.58764648 C-112.52803602 385.44048387 -113.77695057 382.59047032 -117 378.625 C-121.55853627 374.51119898 -124.90642609 373.29544688 -131.08624268 373.375 C-136.86471803 373.87079244 -142.49401847 375.28521193 -148.134655 376.58813477 C-150.50550153 377.1352846 -152.87890372 377.66976967 -155.25332642 378.20117188 C-161.14846074 379.52293918 -167.03924849 380.86361745 -172.92926025 382.20800781 C-177.91633282 383.3460248 -182.90535311 384.47457856 -187.89751053 385.59008789 C-190.21874865 386.11268745 -192.53657011 386.64885689 -194.85458374 387.18554688 C-210.65552779 390.76838124 -210.65552779 390.76838124 -218 389.625 C-221.48265627 387.25679374 -222.62870771 385.69246534 -224 381.75 C-224 376.48366693 -222.50228434 373.28289945 -219.0390625 369.4609375 C-217.48022624 367.91274176 -215.90522482 366.38069224 -214.31640625 364.86328125 C-212.32098268 362.93515695 -210.49101318 360.97983725 -208.6875 358.875 C-205.61752209 355.30163079 -202.45092016 351.83059634 -199.25 348.375 C-198.73550293 347.8193335 -198.22100586 347.26366699 -197.69091797 346.69116211 C-196.64284619 345.55947278 -195.59466879 344.42788126 -194.54638672 343.29638672 C-190.34575388 338.75620162 -186.17132469 334.19209796 -182 329.625 C-181.2059375 328.76003906 -180.411875 327.89507812 -179.59375 327.00390625 C-168.26265584 315.83118691 -168.26265584 315.83118691 -163.9375 301.4375 C-163.94652344 300.53644531 -163.95554687 299.63539063 -163.96484375 298.70703125 C-163.97644531 298.01996094 -163.98804688 297.33289063 -164 296.625 C-165.0202124 296.44960693 -166.0404248 296.27421387 -167.09155273 296.09350586 C-238.48952416 283.739383 -238.48952416 283.739383 -253.4375 266.875 C-256.96280754 261.79855715 -256.55382644 256.6537964 -256 250.625 C-254.4375 247.25 -254.4375 247.25 -252 244.625 C-251.57203125 244.14933594 -251.1440625 243.67367187 -250.703125 243.18359375 C-232.75370821 225.46548388 -198.66904576 222.87052338 -175 218.625 C-172.86058969 218.23615759 -170.72125798 217.84688234 -168.58203125 217.45703125 C-167.05470344 217.17959971 -165.52736645 216.90221869 -164 216.625 C-163.97123779 215.91553223 -163.94247559 215.20606445 -163.9128418 214.47509766 C-163.84423828 212.7828776 -163.77563477 211.09065755 -163.70703125 209.3984375 C-164.38689719 202.96237328 -168.33237467 198.82423628 -172.625 194.375 C-173.71016557 193.22576078 -174.79479674 192.07601674 -175.87890625 190.92578125 C-176.67772217 190.08394287 -176.67772217 190.08394287 -177.49267578 189.22509766 C-179.55350635 187.03742621 -181.56021907 184.80375117 -183.5625 182.5625 C-186.85053693 178.89393076 -190.16671251 175.25243489 -193.5 171.625 C-197.56340335 167.20301986 -201.58947211 162.74940454 -205.59765625 158.27734375 C-207.42707729 156.25754394 -209.2673721 154.25121421 -211.12109375 152.25390625 C-211.66000244 151.67310303 -212.19891113 151.0922998 -212.75415039 150.49389648 C-213.81019697 149.35768008 -214.86789716 148.22299768 -215.92749023 147.09008789 C-223.76328454 138.66124426 -223.76328454 138.66124426 -224 132.625 C-222.5500457 128.27513709 -221.85115325 126.1924355 -218 123.625 C-209.44929242 122.33557718 -200.87843722 124.66974957 -192.59275436 126.58813477 C-190.22260128 127.13676734 -187.84951563 127.67063668 -185.47525024 128.20117188 C-180.43884037 129.32940903 -175.40681895 130.47649144 -170.375 131.625 C-164.53055768 132.95695221 -158.68445135 134.28093311 -152.83485794 135.59008789 C-150.5104883 136.11383479 -148.18903646 136.64930374 -145.86752319 137.18554688 C-133.81875851 140.14870018 -133.81875851 140.14870018 -121.75 138.5 C-117.91915651 135.88806126 -115.09838185 132.82176371 -113 128.625 C-112.86907145 125.94553203 -112.81030854 123.30542682 -112.8125 120.625 C-112.8115332 119.38737915 -112.8115332 119.38737915 -112.81054688 118.12475586 C-112.87854785 109.70577125 -113.53879786 101.34546599 -114.28833008 92.96289062 C-116.09138416 72.27031626 -116.09138416 72.27031626 -113 67.9375 C-110.12439645 65.72088893 -108.00192313 64.41806371 -104.328125 64.1796875 C-98.53783622 65.28722596 -93.10594573 69.51905427 -89 73.625 C-88.66046388 76.63231988 -88.43268447 78.72538729 -89 81.625 C-91.25 84.125 -91.25 84.125 -94 85.625 C-95.32 85.625 -96.64 85.625 -98 85.625 C-97.93941406 86.43018066 -97.87882813 87.23536133 -97.81640625 88.06494141 C-97.58866174 91.12503934 -97.36562344 94.18543832 -97.14550781 97.24609375 C-97.00414144 99.19296492 -96.85761711 101.13945942 -96.7109375 103.0859375 C-94.52385832 133.70504606 -94.52385832 133.70504606 -103.40234375 145 C-110.62698274 152.34828807 -119.17132465 156.50547413 -129.44921875 156.88671875 C-136.12462106 156.80603249 -142.36967386 155.12112807 -148.8125 153.5 C-151.45935205 152.85275926 -154.10841091 152.21483953 -156.7578125 151.578125 C-157.43178574 151.41531036 -158.10575897 151.25249573 -158.80015564 151.08474731 C-167.47072976 149.00616696 -176.20728264 147.25464734 -184.9465332 145.49169922 C-186.09210693 145.2598291 -187.23768066 145.02795898 -188.41796875 144.7890625 C-189.42625732 144.58748535 -190.4345459 144.3859082 -191.47338867 144.17822266 C-194 143.625 -194 143.625 -197 142.625 C-192.49035146 147.85803926 -187.86510603 152.97860037 -183.18798828 158.06176758 C-179.55422625 162.01288064 -175.96107959 165.99849701 -172.3828125 170 C-170.62457376 171.93694498 -168.8519017 173.84992274 -167.0546875 175.75 C-147.07262728 196.92708428 -147.07262728 196.92708428 -146.625 210.5625 C-146.82848123 217.56933208 -147.89831617 223.1555215 -152.5 228.5625 C-156.06600572 231.50445472 -158.38651768 232.87036424 -162.92578125 233.44921875 C-163.93527832 233.5869873 -164.94477539 233.72475586 -165.98486328 233.86669922 C-167.0829834 234.01381348 -168.18110352 234.16092773 -169.3125 234.3125 C-192.83672635 237.71483272 -218.55610552 241.79077736 -239 254.625 C-239 255.945 -239 257.265 -239 258.625 C-213.14648446 273.0327583 -182.89323738 277.56220424 -153.82421875 281.14453125 C-152.58285156 281.30308594 -151.34148437 281.46164062 -150.0625 281.625 C-149.00160156 281.74875 -147.94070312 281.8725 -146.84765625 282 C-143.66989013 282.6974521 -141.59666575 283.67171489 -139 285.625 C-137.875 289 -137.875 289 -138 292.625 C-140.1875 295.5625 -140.1875 295.5625 -143 297.625 C-144.32 297.625 -145.64 297.625 -147 297.625 C-146.95359375 298.21925781 -146.9071875 298.81351562 -146.859375 299.42578125 C-146.34598595 311.21539413 -150.6503074 319.36814792 -158.46289062 327.96142578 C-163.00589701 332.87820556 -167.58700842 337.75747073 -172.19921875 342.609375 C-175.81302366 346.41486792 -179.34337141 350.28650636 -182.83203125 354.20703125 C-184.52378346 356.0938684 -186.22906137 357.96350589 -187.94921875 359.82421875 C-188.70851685 360.64635864 -188.70851685 360.64635864 -189.4831543 361.48510742 C-190.4736732 362.55597745 -191.46594834 363.62522644 -192.46020508 364.69262695 C-195.02761475 367.44406015 -195.02761475 367.44406015 -197 370.625 C-196.34966797 370.4798999 -195.69933594 370.3347998 -195.02929688 370.18530273 C-191.85301175 369.47703971 -188.67653435 368.76964447 -185.5 368.0625 C-184.31212891 367.79800049 -183.12425781 367.53350098 -181.90039062 367.26098633 C-174.99921601 365.72714404 -168.09544185 364.20620683 -161.1875 362.703125 C-160.09798035 362.46584435 -160.09798035 362.46584435 -158.9864502 362.22377014 C-155.41655076 361.4464654 -151.84626867 360.67098987 -148.27539062 359.89819336 C-146.96482965 359.61318333 -145.6542821 359.32811154 -144.34375 359.04296875 C-143.19068359 358.79313232 -142.03761719 358.5432959 -140.84960938 358.28588867 C-137.94910235 357.66010036 -137.94910235 357.66010036 -135 356.625 C-125.25838766 355.621219 -116.78462961 357.78613207 -108.6875 363.3125 C-104.446166 366.7629295 -101.62842712 370.8676288 -99 375.625 C-98.65839844 376.23988281 -98.31679687 376.85476563 -97.96484375 377.48828125 C-93.19892035 387.84031021 -96.17254587 402.01946011 -97 413 C-97.0968137 414.33330005 -97.1931697 415.66663341 -97.2890625 417 C-97.52157612 420.20868791 -97.75861129 423.4169697 -98 426.625 C-97.02651611 425.96902832 -96.05303223 425.31305664 -95.05004883 424.63720703 C-91.42836753 422.19857113 -87.80258 419.76610196 -84.17553711 417.33544922 C-82.60800783 416.2837357 -81.04158849 415.23036585 -79.47631836 414.17529297 C-77.22280862 412.65673226 -74.96533962 411.14422479 -72.70703125 409.6328125 C-72.01100296 409.16191193 -71.31497467 408.69101135 -70.59785461 408.20584106 C-61.83327207 402.36144928 -53.3942106 401.10712979 -43 402.625 C-34.9619336 404.79049771 -28.27888954 409.23455464 -23.4296875 416.0234375 C-18.24619648 425.45569166 -15.26005757 435.6661901 -12 445.875 C-11.47439368 447.50665072 -10.94835487 449.13816219 -10.421875 450.76953125 C-9.16420042 454.67320967 -7.91684009 458.58004601 -6.67724609 462.48950195 C-6.24131512 463.86408313 -5.80423234 465.23829984 -5.36572266 466.61206055 C-4.80198044 468.38062284 -4.24454614 470.15119223 -3.6875 471.921875 C-3.22923828 473.37352051 -3.22923828 473.37352051 -2.76171875 474.85449219 C-1.96215654 477.76264346 -1.44493921 480.64368706 -1 483.625 C-0.34 483.625 0.32 483.625 1 483.625 C1.38478516 481.74748047 1.38478516 481.74748047 1.77734375 479.83203125 C3.02987291 474.20934785 4.7709963 468.78325795 6.5625 463.3125 C7.28192945 461.10699235 8.00065146 458.90125384 8.71875 456.6953125 C9.27949219 454.97296387 9.27949219 454.97296387 9.8515625 453.21582031 C11.03145644 449.52664512 12.16133736 445.82498046 13.28125 442.1171875 C13.6620874 440.87751221 14.0429248 439.63783691 14.43530273 438.3605957 C15.16730575 435.97528372 15.88634337 433.58594012 16.59008789 431.19213867 C19.48961614 421.85708874 23.60972063 413.12274268 32.0625 407.625 C33.25552734 406.820625 33.25552734 406.820625 34.47265625 406 C42.53505541 401.6136561 52.76643267 401.0941092 61.65625 403.27734375 C63.91629261 404.23131101 65.91733143 405.32911733 68 406.625 C68.79921875 407.099375 69.5984375 407.57375 70.421875 408.0625 C78.26897895 412.89148704 85.79801015 418.24622067 93.36523438 423.49926758 C94.89997373 424.5561199 96.44953467 425.59135645 98 426.625 C97.93941406 425.81981934 97.87882812 425.01463867 97.81640625 424.18505859 C97.58866174 421.12496066 97.36562344 418.06456168 97.14550781 415.00390625 C97.00414144 413.05703508 96.85761711 411.11054058 96.7109375 409.1640625 C94.61675621 379.8455245 94.61675621 379.8455245 103.25 369.375 C109.7698456 362.50835411 116.70198791 357.2998393 126.3762207 356.40527344 C134.23211367 356.26384781 141.28874397 357.82810188 148.875 359.75 C151.51266358 360.39752241 154.15269226 361.03510114 156.79296875 361.671875 C157.46385025 361.83468964 158.13473175 361.99750427 158.82594299 362.16525269 C167.48639873 364.25122108 176.21553368 365.99708226 184.94677734 367.75830078 C186.66501709 368.10610596 186.66501709 368.10610596 188.41796875 368.4609375 C189.42625732 368.66251465 190.4345459 368.8640918 191.47338867 369.07177734 C194 369.625 194 369.625 197 370.625 C191.607584 364.36758894 186.04234471 358.27452998 180.44824219 352.19824219 C176.29039963 347.68152988 172.14274978 343.15555548 168 338.625 C167.20464844 337.75875 166.40929687 336.8925 165.58984375 336 C163.36892049 333.56193673 161.17566523 331.10350508 159 328.625 C158.27554687 327.80257813 157.55109375 326.98015625 156.8046875 326.1328125 C149.17829581 317.09933747 146.18828852 309.48500663 147 297.625 C145.97261719 297.75777344 144.94523437 297.89054687 143.88671875 298.02734375 C132.22806533 299.52048687 120.77770439 300.83002774 109 300.625 C108.81179688 301.20378906 108.62359375 301.78257812 108.4296875 302.37890625 C106.38451158 305.59195586 103.42030682 306.86786666 100.125 308.5625 C94.27828302 311.5702441 90.39832418 314.31622655 87.7734375 320.52734375 C86.69262596 324.85604856 86.65420765 329.06035022 86.5390625 333.50390625 C85.89260771 337.24678579 84.61298055 338.91904823 82 341.625 C79.27828562 342.98585719 76.91217859 342.85201682 73.875 343 C66.90315422 343.515578 61.62466142 344.12532245 56.375 349.125 C53.57800188 352.87961443 51.47956272 357.08663612 49.33203125 361.234375 C48 363.625 48 363.625 46 365.625 C41.4959953 366.01327627 38.27930428 365.90662237 34.125 364.125 C28.8092603 361.94658903 23.44191938 361.60588421 17.90234375 363.24609375 C12.82496953 365.517285 9.14034161 369.07684535 5.2734375 373.015625 C2.27860113 375.13568099 0.59849021 375.15391195 -3 374.625 C-5.125 373.234375 -5.125 373.234375 -7 371.375 C-13.7328991 365.01543565 -18.82533951 362.34123043 -28.22265625 362.390625 C-31.87173275 362.69856395 -34.6837859 364.12331814 -38 365.625 C-40.97697165 366.16626757 -42.90660377 366.03069131 -46 365.625 C-48.58372101 363.42123796 -49.79807979 361.02228843 -51.32421875 358.01953125 C-54.68328891 351.48653652 -57.44421112 346.46093023 -64.80859375 344.02734375 C-68.76236039 343.30142938 -72.79763405 343.33400187 -76.80859375 343.19921875 C-80.58075863 342.5205061 -82.27110201 341.26475069 -85 338.625 C-86.36085719 335.90328562 -86.22701682 333.53717859 -86.375 330.5 C-86.89464124 323.47320954 -87.52277385 318.22306645 -92.5625 312.9375 C-96.00054337 310.36973829 -99.87699467 308.65572226 -103.73828125 306.8203125 C-106.32317093 305.454205 -108.01829162 303.7535016 -110 301.625 C-111.66392045 300.95150839 -113.33032028 300.2840841 -115 299.625 C-117 296.625 -117 296.625 -116.8125 293.125 C-115.77928937 288.67424651 -115.77928937 288.67424651 -113 286.625 C-110.72938538 286.30895996 -110.72938538 286.30895996 -108.07446289 286.39648438 C-107.09067657 286.42379639 -106.10689026 286.4511084 -105.09329224 286.47924805 C-104.0725058 286.52734619 -103.05171936 286.57544434 -102 286.625 C-101.04535858 286.66729736 -100.09071716 286.70959473 -99.10714722 286.75317383 C-96.00618924 286.90899859 -92.90776748 287.09334486 -89.80859375 287.28125 C-59.2393571 289.00943147 -28.74209149 289.9386174 1.87824631 289.93685913 C4.44717392 289.93748709 7.01606972 289.9419543 9.58499146 289.94726562 C42.1816573 289.9989129 74.68265262 288.61005099 107.17138672 285.92993164 C110.19562397 285.68170321 113.220728 285.44692472 116.24609375 285.21289062 C129.5741679 284.15363931 142.77425028 282.57472421 156 280.625 C157.18754883 280.45411865 158.37509766 280.2832373 159.59863281 280.10717773 C180.50306753 277.04570932 201.70203935 273.67110342 221.8125 267.0625 C222.63524414 266.79397217 223.45798828 266.52544434 224.30566406 266.2487793 C229.40592505 264.47114136 235.04139435 262.40751712 239 258.625 C239 257.305 239 255.985 239 254.625 C236.89975606 253.53348636 234.7952115 252.45193288 232.6875 251.375 C231.51574219 250.77171875 230.34398437 250.1684375 229.13671875 249.546875 C220.50975959 245.38417136 211.50237733 242.79551181 202.1875 240.6875 C201.08889648 240.43371582 199.99029297 240.17993164 198.85839844 239.91845703 C192.54803421 238.50388224 186.23212985 237.28595617 179.84765625 236.26953125 C179.17071213 236.16127518 178.49376801 236.0530191 177.79631042 235.94148254 C174.49232643 235.41832391 171.18780476 234.92011152 167.87573242 234.44946289 C155.188274 232.52954377 155.188274 232.52954377 150.57421875 226.87890625 C146.50381299 219.11465209 145.68102502 210.59603538 147.578125 202.0078125 C151.94486015 189.58246611 163.24157426 180.05348563 172.1328125 170.73828125 C175.26456211 167.44026817 178.27162981 164.05427363 181.25 160.61791992 C184.23674239 157.21658368 187.33861612 153.92391765 190.4375 150.625 C191.07365234 149.94566406 191.70980469 149.26632813 192.36523438 148.56640625 C193.90899754 146.9181779 195.45392542 145.27105985 197 143.625 C193.8766248 143.625 191.33717796 144.14308744 188.29296875 144.83203125 C187.15561279 145.08750732 186.01825684 145.3429834 184.84643555 145.60620117 C183.63898682 145.88052979 182.43153809 146.1548584 181.1875 146.4375 C178.71883143 146.9925498 176.25008228 147.54724132 173.78125 148.1015625 C172.60046875 148.36743164 171.4196875 148.63330078 170.203125 148.90722656 C165.48406829 149.96469811 160.75880256 150.98660021 156.0234375 151.96875 C153.91484643 152.42642868 151.81596038 152.93019398 149.7265625 153.46875 C138.89283111 156.14619391 124.95518135 158.45022961 114.375 153.6875 C105.38022168 148.10507639 99.56172616 140.94943707 96.46679688 130.89233398 C94.42465688 120.97321569 96.21623143 109.75893644 97 99.75 C97.09539062 98.47769531 97.19078125 97.20539063 97.2890625 95.89453125 C97.52141037 92.80430458 97.75844069 89.71451785 98 86.625 C97.28980713 87.11379639 96.57961426 87.60259277 95.84790039 88.10620117 C93.17185758 89.94517762 90.49335904 91.78050686 87.81323242 93.61352539 C86.6612187 94.40247246 85.51014933 95.19280053 84.36010742 95.98461914 C70.44030444 105.56546742 60.21611901 111.98595802 43 110.625 C39.59606822 109.77882487 36.94220355 108.51178384 34 106.625 C33.30519531 106.2125 32.61039062 105.8 31.89453125 105.375 C17.86528336 96.10990571 14.2675093 75.4698639 9.92480469 60.23168945 C7.8726103 53.04647343 5.56461142 45.94553362 3.234375 38.84619141 C2.94433594 37.95077637 2.65429688 37.05536133 2.35546875 36.1328125 C2.09403076 35.33504395 1.83259277 34.53727539 1.56323242 33.71533203 C1 31.625 1 31.625 1 28.625 C0.34 28.625 -0.32 28.625 -1 28.625 C-1.23976562 29.82640625 -1.47953125 31.0278125 -1.7265625 32.265625 C-3.17347862 38.77039027 -5.29811032 45.04930986 -7.375 51.375 C-8.15446462 53.76535816 -8.9331143 56.15598222 -9.7109375 58.546875 C-10.09330566 59.72096924 -10.47567383 60.89506348 -10.86962891 62.10473633 C-11.97915275 65.56007634 -13.05062085 69.02489623 -14.109375 72.49609375 C-22.54678756 100.05272503 -22.54678756 100.05272503 -35.53515625 107.3984375 C-43.97135221 111.59648113 -54.05077627 112.47080365 -63.16015625 109.64453125 C-65.59016203 108.45335194 -67.77539384 107.16135475 -70 105.625 C-71.010625 105.00625 -72.02125 104.3875 -73.0625 103.75 C-75.76086799 100.79049962 -75.92947741 98.57426477 -76 94.625 C-75.04357118 91.82928498 -74.64701022 90.94850511 -72 89.625 C-65.77580343 89.10631695 -63.08836276 89.71997742 -58 93.625 C-51.499199 95.79193367 -46.90011594 94.4615942 -41 91.625 C-40.01 91.295 -39.02 90.965 -38 90.625 C-36.86309519 88.41190337 -36.86309519 88.41190337 -36 85.625 C-35.63487305 84.57755615 -35.26974609 83.5301123 -34.89355469 82.45092773 C-33.76693872 79.09201813 -32.64035908 75.73311936 -31.52005005 72.37210083 C-31.00370402 70.82343108 -30.4861732 69.27515589 -29.96749878 67.7272644 C-26.6189629 57.7304659 -23.38192575 47.7057273 -20.26953125 37.6328125 C-19.64563247 35.62569367 -19.02160979 33.61861335 -18.39746094 31.61157227 C-17.18424084 27.70823635 -15.99190972 23.79925878 -14.80957031 19.88647461 C-14.25011364 18.08163128 -13.68992769 16.2770138 -13.12890625 14.47265625 C-12.76536797 13.23897812 -12.76536797 13.23897812 -12.39448547 11.9803772 C-10.38825423 5.62303969 -7.47554465 -0.11680539 0 0 Z " fill="#020200" transform="translate(256,-0.625)"/>
<path d="M0 0 C2.18122306 1.58160397 4.08489442 3.33018708 6.04296875 5.1796875 C11.69082045 10.4329787 16.71746449 12.27885362 24.37890625 12.234375 C27.60841678 11.94559611 30.09573716 10.93545736 33.0546875 9.68359375 C36.56625439 8.4496094 39.29764331 8.56805839 43 9 C47.38138441 12.53014401 49.08566379 17.10175775 51.33984375 22.125 C53.77203057 26.33697529 56.45076946 28.34527808 60.90234375 30.2265625 C65.23104856 31.30737404 69.43535022 31.34579235 73.87890625 31.4609375 C77.62178579 32.10739229 79.29404823 33.38701945 82 36 C83.36823886 38.73647771 83.22745953 41.1348175 83.375 44.1875 C83.9361647 52.01790596 85.62261761 57.09488804 91 63 C94.16407844 64.93813315 94.16407844 64.93813315 97.625 66.5625 C103.6938298 69.51508798 103.6938298 69.51508798 105.3984375 72.21484375 C105.59695313 72.80394531 105.79546875 73.39304687 106 74 C107.15757812 73.95359375 108.31515625 73.9071875 109.5078125 73.859375 C111.04684906 73.82183752 112.5859137 73.78543949 114.125 73.75 C114.88554687 73.71648437 115.64609375 73.68296875 116.4296875 73.6484375 C121.73348855 73.55699265 124.89247526 74.31161044 129 78 C129.76171875 80 129.76171875 80 129.6875 82 C129.69136719 82.66 129.69523437 83.32 129.69921875 84 C128.54911897 87.28967089 127.01383811 88.28715459 124 90 C120.75100339 90.3590665 117.62292228 90.10530511 114.375 89.8125 C113.51648438 89.75513672 112.65796875 89.69777344 111.7734375 89.63867188 C108.28895264 89.38550227 105.33091703 89.11030568 102 88 C103.37968605 98.03112918 104.96432935 104.44759964 112.4765625 111.484375 C114.58087253 113.5778937 114.97085728 114.78628669 115.375 117.75 C114.88274697 122.01619294 113.21861427 124.32665686 110 127 C80.88772866 144.97576837 28.57430731 139.40025276 -4.92629242 139.31745148 C-7.167683 139.31240388 -9.40905588 139.31095198 -11.65045166 139.30999756 C-101.04317919 139.22896567 -101.04317919 139.22896567 -117.58203125 125.46484375 C-119.75397938 123.22109568 -120.92190199 121.37313492 -121.5625 118.3125 C-120.82508958 113.96997197 -118.81467009 112.05179393 -115.82421875 108.9296875 C-109.8970161 102.65979862 -108.70689913 96.37117391 -108 88 C-109.62808594 88.2165625 -109.62808594 88.2165625 -111.2890625 88.4375 C-112.7343491 88.62519956 -114.17966307 88.81268838 -115.625 89 C-116.33785156 89.09539062 -117.05070312 89.19078125 -117.78515625 89.2890625 C-128.68045437 90.68845859 -128.68045437 90.68845859 -132.875 88.5 C-135.44256545 85.47933476 -135.61933074 83.83698216 -135.76171875 80 C-134.44804198 76.55075637 -132.22255015 75.62023656 -129 74 C-126.01627361 73.55025868 -123.133399 73.61742648 -120.125 73.75 C-119.34125 73.76804687 -118.5575 73.78609375 -117.75 73.8046875 C-115.83279811 73.85144852 -113.91623285 73.92317997 -112 74 C-111.71253906 73.36964844 -111.42507812 72.73929687 -111.12890625 72.08984375 C-109.30230459 68.70841853 -106.22106993 67.59613033 -102.84765625 65.94921875 C-96.92728599 62.92500299 -92.60235294 59.79672106 -90.39453125 53.1875 C-89.68135797 49.23327193 -89.70894859 45.20078057 -89.57421875 41.19140625 C-88.8955061 37.41924137 -87.63975069 35.72889799 -85 33 C-82.26352229 31.63176114 -79.8651825 31.77254047 -76.8125 31.625 C-68.97185542 31.06310155 -63.92301176 29.36945926 -58 24 C-56.24614411 21.10256685 -56.24614411 21.10256685 -54.875 17.9375 C-51.70404826 11.00425688 -51.70404826 11.00425688 -49 9 C-44.38960093 8.53896009 -41.92286593 8.58209845 -37.6875 10.5 C-32.1273298 12.76176415 -26.56452831 13.04509731 -20.76171875 11.34375 C-16.14095724 9.26216423 -12.85494893 6.191305 -9.4453125 2.48828125 C-6.54642243 -0.49679203 -4.02355826 -0.59608271 0 0 Z " fill="#040301" transform="translate(259,138)"/>
<path d="M0 0 C2.85868042 1.3970022 5.61772427 2.91335713 8.375 4.5 C18.75375167 10.20242596 28.49589806 9.53388026 40 8 C40.35191406 8.58007812 40.70382812 9.16015625 41.06640625 9.7578125 C46.67663575 18.63457249 53.47428448 25.24798157 63.953125 27.6875 C66.63061809 28.18180642 69.30367789 28.62330794 72 29 C72.11214844 29.87398437 72.11214844 29.87398437 72.2265625 30.765625 C73.98194393 41.71094452 78.28679 50.354278 86.8515625 57.4765625 C88.84220597 58.88810969 90.78424195 59.9873685 93 61 C92.76023437 62.27423828 92.76023437 62.27423828 92.515625 63.57421875 C90.57622104 76.4595011 92.49328933 86.00590267 99 97 C99 97.66 99 98.32 99 99 C91.52058632 100.94210433 84.74152536 102.39363688 77 102 C76.98582031 101.030625 76.97164062 100.06125 76.95703125 99.0625 C76.50537261 83.73891899 72.41562131 69.90960548 64 57 C60.95016004 55.47508002 58.3576631 55.76437452 55 56 C52.85219923 56.89757556 52.85219923 56.89757556 52 59 C51.89375868 63.99334215 53.60341371 67.4052827 55.875 71.8125 C61.60954069 82.96452746 62.34273767 91.63133243 62 104 C42.99359926 105.873411 24.15520822 106.31768267 5.07739258 106.26074219 C1.20996967 106.24933867 -2.65717791 106.25612114 -6.52459145 106.26764679 C-24.44394599 106.31257885 -42.154851 105.85013073 -60 104 C-60.51181356 86.95806307 -57.50573419 72.5838634 -45.5625 59.625 C-43.73707662 57.71738859 -41.87722725 55.85784584 -40 54 C-39.41476563 53.39285156 -38.82953125 52.78570312 -38.2265625 52.16015625 C-27.6655233 42.05479641 -13.4075793 38.60273577 0.75 38.625 C2.19318604 38.6252417 2.19318604 38.6252417 3.66552734 38.62548828 C12.15212565 38.76101137 19.52790399 40.1744086 27.1484375 44.109375 C29.92114334 45.44308161 31.97112991 45.37860876 35 45 C37.58333333 43.58333333 37.58333333 43.58333333 39 41 C39.65153759 37.4674714 39.65153759 37.4674714 38 34 C23.49799161 23.39362916 1.46205396 22.8451402 -15.56591797 25.38232422 C-20.26873789 26.40725841 -24.59605963 28.04655918 -29 30 C-30.12148437 30.49628906 -31.24296875 30.99257812 -32.3984375 31.50390625 C-52.10460991 41.21656842 -64.49055169 57.316853 -71.9921875 77.6953125 C-74.47858125 85.62809254 -74.69987254 93.75166939 -75 102 C-82.74152536 102.39363688 -89.52058632 100.94210433 -97 99 C-95.81215812 95.92119906 -94.51710509 93.01994164 -92.9375 90.125 C-88.46536958 81.2139892 -89.57776749 70.60006941 -91 61 C-90.41992188 60.64808594 -89.83984375 60.29617187 -89.2421875 59.93359375 C-78.96428662 53.43782471 -73.22705554 45.75974338 -70.46875 33.671875 C-70.24212326 32.12325893 -70.10646491 30.56148539 -70 29 C-69.41734375 28.92523438 -68.8346875 28.85046875 -68.234375 28.7734375 C-57.28905548 27.01805607 -48.645722 22.71321 -41.5234375 14.1484375 C-40.11189031 12.15779403 -39.0126315 10.21575805 -38 8 C-36.948125 8.165 -35.89625 8.33 -34.8125 8.5 C-22.66837447 9.91360191 -12.23565065 9.5261288 -2.15625 1.828125 C-1.4446875 1.22484375 -0.733125 0.6215625 0 0 Z " fill="#FDD301" transform="translate(255,156)"/>
<path d="M0 0 C2.85868042 1.3970022 5.61772427 2.91335713 8.375 4.5 C18.75375167 10.20242596 28.49589806 9.53388026 40 8 C40.35191406 8.58007812 40.70382812 9.16015625 41.06640625 9.7578125 C46.67663575 18.63457249 53.47428448 25.24798157 63.953125 27.6875 C66.63061809 28.18180642 69.30367789 28.62330794 72 29 C72.11214844 29.87398437 72.11214844 29.87398437 72.2265625 30.765625 C73.98194393 41.71094452 78.28679 50.354278 86.8515625 57.4765625 C88.84220597 58.88810969 90.78424195 59.9873685 93 61 C92.76023437 62.27423828 92.76023437 62.27423828 92.515625 63.57421875 C90.57622104 76.4595011 92.49328933 86.00590267 99 97 C99 97.66 99 98.32 99 99 C91.52058632 100.94210433 84.74152536 102.39363688 77 102 C76.98582031 101.030625 76.97164062 100.06125 76.95703125 99.0625 C76.50537261 83.73891899 72.41562131 69.90960548 64 57 C61.83951192 55.67664197 61.83951192 55.67664197 58.5 56.5625 C55.12271017 56.64862397 54.09122667 56.07503013 51.42578125 53.8828125 C49.71284181 52.11610367 48.03381565 50.31572576 46.39453125 48.48046875 C44.12451913 45.89965278 44.12451913 45.89965278 41.203125 44.390625 C40.47609375 43.93171875 39.7490625 43.4728125 39 43 C38.95758277 40.66705225 38.95907063 38.33297433 39 36 C35.89212514 31.81849564 31.86082285 30.48524477 27.125 28.8125 C26.43019531 28.55275391 25.73539062 28.29300781 25.01953125 28.02539062 C8.32115152 21.94038784 -12.82188713 22.82392962 -29 30 C-30.12148437 30.49628906 -31.24296875 30.99257812 -32.3984375 31.50390625 C-52.10460991 41.21656842 -64.49055169 57.316853 -71.9921875 77.6953125 C-74.47858125 85.62809254 -74.69987254 93.75166939 -75 102 C-82.74152536 102.39363688 -89.52058632 100.94210433 -97 99 C-95.81215812 95.92119906 -94.51710509 93.01994164 -92.9375 90.125 C-88.46536958 81.2139892 -89.57776749 70.60006941 -91 61 C-90.41992188 60.64808594 -89.83984375 60.29617187 -89.2421875 59.93359375 C-78.96428662 53.43782471 -73.22705554 45.75974338 -70.46875 33.671875 C-70.24212326 32.12325893 -70.10646491 30.56148539 -70 29 C-69.41734375 28.92523438 -68.8346875 28.85046875 -68.234375 28.7734375 C-57.28905548 27.01805607 -48.645722 22.71321 -41.5234375 14.1484375 C-40.11189031 12.15779403 -39.0126315 10.21575805 -38 8 C-36.948125 8.165 -35.89625 8.33 -34.8125 8.5 C-22.66837447 9.91360191 -12.23565065 9.5261288 -2.15625 1.828125 C-1.4446875 1.22484375 -0.733125 0.6215625 0 0 Z " fill="#FA9437" transform="translate(255,156)"/>
<path d="M0 0 C0.02578125 0.67804688 0.0515625 1.35609375 0.078125 2.0546875 C1.23192115 20.98743337 13.71557364 31.87738139 26.1328125 44.88671875 C29.27656629 48.19675697 32.29260548 51.59721699 35.28125 55.04711914 C38.65201901 58.87705967 42.19350258 62.55268506 45.72070312 66.23828125 C50 70.78099593 50 70.78099593 50 73 C41.47792652 71.66076185 33.05394973 70.0193405 24.625 68.1875 C23.41271729 67.92759277 22.20043457 67.66768555 20.95141602 67.39990234 C15.17841967 66.15522903 9.41790898 64.87657983 3.67578125 63.49609375 C2.21567627 63.14865112 2.21567627 63.14865112 0.72607422 62.79418945 C-1.06273339 62.36491948 -2.84916085 61.92553222 -4.63232422 61.47338867 C-14.87607942 59.01947267 -24.55938083 58.93230833 -34 64 C-41.74028137 69.52088543 -48.08120764 76.46159571 -50 86 C-50.45740612 95.97044446 -49.72185882 105.93480895 -49 115.875 C-48.90320224 117.25647941 -48.80684616 118.63798983 -48.7109375 120.01953125 C-48.47826952 123.34668343 -48.24123032 126.67345958 -48 130 C-53.17095111 127.13918809 -58.03228201 124.0074379 -62.875 120.625 C-64.28891839 119.64822886 -65.70297982 118.67166475 -67.1171875 117.6953125 C-69.33733819 116.15730125 -71.55075033 114.61151039 -73.7578125 113.0546875 C-78.36140224 109.86265141 -82.66611695 107.74563445 -88 106 C-87.360625 105.401875 -86.72125 104.80375 -86.0625 104.1875 C-82.83185443 100.76105773 -82.87810671 97.75699437 -82.71020508 93.19921875 C-82.23583511 80.60734657 -80.17252425 70.37662047 -71.078125 61.0234375 C-62.53204723 53.23921937 -53.88044268 49.47545176 -42.203125 49.59765625 C-35.62398797 50.04803348 -29.15630166 51.71176289 -22.75415039 53.22094727 C-11.44071368 55.87750819 -11.44071368 55.87750819 -0.5 53.25 C2.55801266 50.49778861 3.75026025 48.54646535 4.40625 44.484375 C4.4371875 43.58203125 4.468125 42.6796875 4.5 41.75 C4.57734375 40.41195312 4.57734375 40.41195312 4.65625 39.046875 C2.96597308 31.19916073 -4.60899375 25.03624239 -10 19.4375 C-14.36928159 14.87521443 -18.67592789 10.32301873 -22.67578125 5.42993164 C-24.13804241 3.7392737 -24.13804241 3.7392737 -27 2 C-23.25024882 1.66382774 -19.50016199 1.33155554 -15.75 1 C-14.68652344 0.90460938 -13.62304688 0.80921875 -12.52734375 0.7109375 C-11.50253906 0.62070312 -10.47773438 0.53046875 -9.421875 0.4375 C-8.00793457 0.31181641 -8.00793457 0.31181641 -6.56542969 0.18359375 C-4.3816825 0.02731493 -2.18933206 0 0 0 Z " fill="#FBDC2F" transform="translate(403,297)"/>
<path d="M0 0 C4.00171746 -0.06093986 7.99814602 -0.0433936 12 0 C12.84304687 -0.01933594 13.68609375 -0.03867187 14.5546875 -0.05859375 C17.96365105 0.02987416 20.14320681 0.22092048 22.72265625 2.56640625 C23.86478448 3.94614036 24.98602739 5.34333454 26.08984375 6.75390625 C31.65739093 13.30061305 39.44457541 17.44463928 47 21.3125 C47.62769287 21.63798828 48.25538574 21.96347656 48.90209961 22.29882812 C58.68759405 27.11091536 68.10597563 28.48988947 78.9375 28.375 C80.02740234 28.38660156 81.11730469 28.39820313 82.24023438 28.41015625 C102.01941311 28.33964224 119.48705502 20.09203641 134.02734375 6.9921875 C136.13292754 5.02719514 136.13292754 5.02719514 137.61328125 2.27734375 C140.85989191 -0.82048607 143.10464772 -0.51837142 147.4609375 -0.43945312 C148.38132812 -0.39755859 149.30171875 -0.35566406 150.25 -0.3125 C151.18585938 -0.28994141 152.12171875 -0.26738281 153.0859375 -0.24414062 C155.39225674 -0.18530595 157.69530838 -0.10317146 160 0 C159.59007812 0.65226562 159.18015625 1.30453125 158.7578125 1.9765625 C154.20244331 9.36541491 151.89040261 15.39277479 151 24 C150.32195312 24.08636719 149.64390625 24.17273438 148.9453125 24.26171875 C138.36781634 25.85859836 129.7827036 29.49013581 123 38 C121.49696713 40.2879996 120.24720426 42.55547965 119 45 C117.7625 44.835 116.525 44.67 115.25 44.5 C103.7675771 43.29227263 94.37199973 43.42710019 84.625 50.25 C82 52 82 52 78 52 C76.140625 51.01171875 76.140625 51.01171875 74.25 49.6875 C63.64117961 42.83556463 53.28350904 43.07317505 41 45 C40.64808594 44.41992188 40.29617187 43.83984375 39.93359375 43.2421875 C33.43782471 32.96428662 25.75974338 27.22705554 13.671875 24.46875 C12.12325893 24.24212326 10.56148539 24.10646491 9 24 C8.90203125 23.29875 8.8040625 22.5975 8.703125 21.875 C7.35487928 13.32061338 4.42103848 7.33061082 0 0 Z " fill="#FA8309" transform="translate(176,303)"/>
<path d="M0 0 C0.97839844 0.433125 0.97839844 0.433125 1.9765625 0.875 C8.7329379 3.82958677 8.7329379 3.82958677 16 4 C16.99 3.34 17.98 2.68 19 2 C22.53398823 2.30637398 24.43639884 3.97421535 27 6.3125 C27.6909375 6.93898437 28.381875 7.56546875 29.09375 8.2109375 C31.10645644 10.09991199 33.08820284 12.00854462 35 14 C34.649375 14.515625 34.29875 15.03125 33.9375 15.5625 C32.61313648 19.00584516 32.92666564 21.56409634 34 25 C34.92117949 26.9554379 35.88374489 28.891635 36.875 30.8125 C42.60954069 41.96452746 43.34273767 50.63133243 43 63 C23.99359926 64.873411 5.15520822 65.31768267 -13.92260742 65.26074219 C-17.79003033 65.24933867 -21.65717791 65.25612114 -25.52459145 65.26764679 C-43.44954471 65.31259289 -61.14661153 64.81248483 -79 63 C-79 59.7 -79 56.4 -79 53 C-77.75428223 52.98018066 -76.50856445 52.96036133 -75.22509766 52.93994141 C-44.87427521 52.46740672 -44.87427521 52.46740672 -14.54705811 51.24090576 C-13.10755774 51.16409088 -11.66780772 51.09181047 -10.22784424 51.02423096 C-8.24230361 50.92889379 -6.25780082 50.81262832 -4.2734375 50.6953125 C-3.17435059 50.63359863 -2.07526367 50.57188477 -0.94287109 50.50830078 C3.1767297 49.79675201 5.88465592 48.14219044 8.78515625 45.171875 C13.08165744 37.49067029 9.55366995 25.94929487 7.2890625 17.89453125 C5.79428262 13.07523695 3.60142003 8.67188688 1.171875 4.2578125 C0 2 0 2 0 0 Z " fill="#F8C500" transform="translate(274,197)"/>
<path d="M0 0 C1.83302307 1.29553223 1.83302307 1.29553223 3.71704102 3.02539062 C4.41572296 3.66323486 5.11440491 4.3010791 5.83425903 4.95825195 C11.80640394 10.58847984 17.66931543 16.3228694 23.50219727 22.09716797 C25.13209485 23.70533358 26.76823453 25.30719609 28.41040039 26.90283203 C30.79733116 29.22295061 33.16405934 31.56207876 35.52734375 33.90625 C36.2626683 34.6137439 36.99799286 35.32123779 37.75559998 36.0501709 C41.03256155 39.34060543 42.80499478 41.27029708 44.02563477 45.83789062 C43.99426171 49.70783132 43.58068282 51.10650714 41 54 C33.98594251 58.04725287 26.33436717 60.45874945 18.68188477 63.00146484 C16.43537459 63.75070886 14.19532628 64.51742113 11.95507812 65.28515625 C10.51077607 65.76930266 9.06612573 66.25241156 7.62109375 66.734375 C6.96048447 66.96243835 6.29987518 67.19050171 5.61924744 67.42547607 C1.29151143 68.83989597 -2.45848171 69.36135547 -7 69 C-10.38939556 66.86320715 -11.72582557 65.8225233 -13 62 C-13.10789034 60.20164862 -13.15877728 58.39963721 -13.17700195 56.59814453 C-13.18983719 55.49334747 -13.20267242 54.38855042 -13.21589661 53.25027466 C-13.22328354 52.05651215 -13.23067047 50.86274963 -13.23828125 49.6328125 C-13.246353 48.40593719 -13.25442474 47.17906189 -13.26274109 45.91500854 C-13.27657926 43.3175396 -13.2873026 40.7200525 -13.29516602 38.12255859 C-13.3124013 34.14776308 -13.35629437 30.17379436 -13.40039062 26.19921875 C-13.41051552 23.67708946 -13.41903225 21.15495309 -13.42578125 18.6328125 C-13.44328934 17.44309845 -13.46079742 16.2533844 -13.47883606 15.02761841 C-13.45710852 6.7757171 -13.45710852 6.7757171 -11.09838867 2.77294922 C-7.37685045 -0.37141501 -4.86096079 -0.62722075 0 0 Z " fill="#010100" transform="translate(316,443)"/>
<path d="M0 0 C2.77373455 1.61077622 5.48732779 3.29435439 8.19482422 5.01416016 C9.18901367 5.63476318 10.18320312 6.25536621 11.20751953 6.89477539 C13.29464564 8.20046177 15.37841721 9.51152403 17.45898438 10.82763672 C20.60046312 12.80658948 23.76002546 14.75322249 26.92529297 16.69384766 C28.91156971 17.92465128 30.89726843 19.15638834 32.88232422 20.38916016 C33.81633057 20.95981201 34.75033691 21.53046387 35.71264648 22.1184082 C36.57817139 22.66279541 37.44369629 23.20718262 38.33544922 23.76806641 C39.47481934 24.47491577 39.47481934 24.47491577 40.63720703 25.19604492 C43.0476351 27.16609498 44.2740573 29.0344576 45.63232422 31.82666016 C45.63232422 35.80168017 45.46702756 37.9454441 42.69580078 40.87109375 C38.52907276 43.53091933 34.4006341 44.45431697 29.61669922 45.55322266 C28.646297 45.78697601 27.67589478 46.02072937 26.67608643 46.26156616 C23.58096688 47.00397848 20.48186809 47.7279675 17.38232422 48.45166016 C15.31302902 48.94525945 13.24401501 49.44003917 11.17529297 49.93603516 C5.66535998 51.25228281 0.15165637 52.55043072 -5.36767578 53.82666016 C-6.20012817 54.02451111 -7.03258057 54.22236206 -7.89025879 54.4262085 C-8.68170288 54.61040344 -9.47314697 54.79459839 -10.28857422 54.984375 C-10.98448669 55.14851898 -11.68039917 55.31266296 -12.3973999 55.48178101 C-15.67547433 56.05557858 -18.19403284 55.76008455 -21.36767578 54.82666016 C-23.80517578 52.76416016 -23.80517578 52.76416016 -25.36767578 49.82666016 C-25.71498289 43.88362733 -24.91219854 38.67456948 -23.53955078 32.90869141 C-23.34927307 32.08841965 -23.15899536 31.26814789 -22.96295166 30.42301941 C-22.56057762 28.70176064 -22.15358791 26.98157488 -21.7421875 25.26245117 C-21.11778609 22.63962352 -20.51744598 20.01203321 -19.91845703 17.38330078 C-19.52276763 15.70392296 -19.12567983 14.02487388 -18.72705078 12.34619141 C-18.55083191 11.56589066 -18.37461304 10.7855899 -18.1930542 9.98164368 C-17.073769 5.41085313 -15.79674175 2.23890088 -12.36767578 -1.17333984 C-7.72271193 -2.72166113 -4.30367903 -2.13275742 0 0 Z " fill="#010000" transform="translate(25.36767578125,167.17333984375)"/>
<path d="M0 0 C3.44312714 2.1244827 4.71617547 3.14852641 6 7 C6.09790356 8.77326885 6.13819983 10.54997232 6.14526367 12.32592773 C6.15164352 13.41393173 6.15802338 14.50193573 6.16459656 15.62290955 C6.16570938 16.79793533 6.1668222 17.97296112 6.16796875 19.18359375 C6.17296135 20.99417015 6.17296135 20.99417015 6.17805481 22.84132385 C6.18312102 25.395921 6.18546323 27.95052478 6.18530273 30.50512695 C6.18748924 34.41824209 6.20564858 38.33107539 6.22460938 42.24414062 C6.22754331 44.72395737 6.22952811 47.20377545 6.23046875 49.68359375 C6.23765427 50.85659531 6.24483978 52.02959686 6.25224304 53.23814392 C6.24916641 54.32930008 6.24608978 55.42045624 6.24291992 56.54467773 C6.24434494 57.50381577 6.24576996 58.4629538 6.24723816 59.45115662 C5.98441289 62.16069168 5.4893666 63.73346974 4 66 C-0.09188123 68.72792082 -3.19397485 68.80147826 -8 68 C-11.38134209 66.52608513 -14.29164268 64.53185029 -17.3046875 62.41796875 C-18.1504837 61.8479866 -18.99627991 61.27800446 -19.8677063 60.69075012 C-22.55041677 58.87546828 -25.21220932 57.03184153 -27.875 55.1875 C-29.68625851 53.95845486 -31.49874791 52.73122165 -33.3125 51.50585938 C-36.6230081 49.25683641 -39.93162508 47.00545296 -43.22216797 44.72729492 C-43.8811911 44.27206955 -44.54021423 43.81684418 -45.21920776 43.3478241 C-48.14600124 41.13262869 -49.7670373 39.74880869 -50.875 36.1875 C-51.0370429 32.05540593 -50.24214633 30.49784415 -48 27 C-45.26184187 24.56331695 -42.27910398 22.54733524 -39.23828125 20.5078125 C-38.37365768 19.91700897 -37.50903412 19.32620544 -36.61820984 18.71749878 C-34.79122935 17.47535819 -32.95946217 16.24023267 -31.12329102 15.01171875 C-28.32398054 13.13270621 -25.54956341 11.22055676 -22.77539062 9.3046875 C-20.99359466 8.09947952 -19.21043429 6.89628573 -17.42578125 5.6953125 C-16.60153152 5.12354279 -15.7772818 4.55177307 -14.92805481 3.962677 C-9.66370018 0.49195915 -6.32057266 -0.82511313 0 0 Z " fill="#010100" transform="translate(203,1)"/>
<path d="M0 0 C0.80448578 -0.00637985 1.60897156 -0.0127597 2.43783569 -0.01933289 C3.30349152 -0.02044571 4.16914734 -0.02155853 5.06103516 -0.02270508 C5.95496979 -0.02603348 6.84890442 -0.02936188 7.76992798 -0.03279114 C9.66122931 -0.03785372 11.55253956 -0.04019967 13.44384766 -0.04003906 C16.33201899 -0.04222266 19.21980655 -0.06037743 22.10791016 -0.0793457 C23.94645052 -0.08228036 25.78499269 -0.08426467 27.62353516 -0.08520508 C28.9159462 -0.09598335 28.9159462 -0.09598335 30.23446655 -0.10697937 C35.5596261 -0.08677248 39.78478618 -0.0147012 43.77246094 3.91772461 C45.29777385 6.74292862 45.30351457 8.58145914 45.21728516 11.78588867 C45.18989258 12.93895508 45.1625 14.09202148 45.13427734 15.2800293 C45.0554834 17.19332031 45.0554834 17.19332031 44.97509766 19.14526367 C44.94838989 19.82580811 44.92168213 20.50635254 44.89416504 21.20751953 C44.71398697 25.66929087 44.48556826 30.12712769 44.23046875 34.58520508 C44.09951182 36.90564425 43.98048385 39.2265112 43.86181641 41.54760742 C42.81652234 60.8080708 42.81652234 60.8080708 39.35009766 65.20776367 C35.68775619 66.65342478 32.7495542 67.26645833 28.97509766 66.14526367 C25.67395519 63.68012482 23.42016344 60.43207341 20.97509766 57.14526367 C20.47204102 56.47430664 19.96898438 55.80334961 19.45068359 55.11206055 C16.46615044 51.12454284 13.51440994 47.11445117 10.58447266 43.08666992 C7.76669647 39.21562531 4.90739205 35.37937167 2.01806641 31.56152344 C0.06972979 28.98398507 -1.86141219 26.39393056 -3.78857422 23.80053711 C-4.88201665 22.33656798 -5.99136198 20.88450618 -7.10302734 19.43432617 C-9.66160312 15.93122943 -11.37668025 13.22842502 -11.64990234 8.83276367 C-10.96158893 4.77171452 -10.33342201 3.50849201 -7.02490234 1.14526367 C-4.33203914 0.2476426 -2.7636783 0.01490846 0 0 Z " fill="#010000" transform="translate(70.02490234375,402.854736328125)"/>
<path d="M0 0 C1.9375 1.5625 1.9375 1.5625 3 4 C3.32234981 11.02722584 2.43184681 17.51977395 1.171875 24.421875 C0.98159729 25.48488831 0.79131958 26.54790161 0.59527588 27.64312744 C0.1925107 29.87595716 -0.21447984 32.10802842 -0.62548828 34.33935547 C-1.2501465 37.75080009 -1.85019966 41.16600344 -2.44921875 44.58203125 C-2.84486115 46.75808448 -3.24194691 48.93387589 -3.640625 51.109375 C-3.81684387 52.12715027 -3.99306274 53.14492554 -4.17462158 54.19354248 C-5.16354202 59.4249327 -5.99806234 63.19173636 -10 67 C-12.7798816 68.3899408 -14.9186326 68.18488204 -18 68 C-21.26721919 66.72549945 -22.872964 65.22287149 -24.890625 62.38671875 C-25.42792236 61.64284912 -25.96521973 60.89897949 -26.51879883 60.13256836 C-27.09009521 59.3256958 -27.6613916 58.51882324 -28.25 57.6875 C-29.48651217 55.97268131 -30.72486859 54.2591913 -31.96484375 52.546875 C-32.61565918 51.64646484 -33.26647461 50.74605469 -33.93701172 49.81835938 C-38.17196375 44.03276337 -42.56217323 38.36390951 -46.93261719 32.68041992 C-47.58004883 31.83584229 -48.22748047 30.99126465 -48.89453125 30.12109375 C-49.47050049 29.3727124 -50.04646973 28.62433105 -50.63989258 27.85327148 C-52.99544071 24.64362046 -53.23234033 22.12842231 -53.5234375 18.16796875 C-52.68087896 14.67826733 -50.71746425 13.30147245 -48 11 C-45.02058349 9.56626298 -41.94187054 8.58103663 -38.7890625 7.59765625 C-37.90270111 7.31143906 -37.01633972 7.02522186 -36.1031189 6.73033142 C-34.23462122 6.13205092 -32.36358016 5.54166278 -30.49023438 4.95874023 C-27.63307863 4.06502698 -24.78959694 3.13492893 -21.9453125 2.20117188 C-20.1231047 1.62276203 -18.30020819 1.04651653 -16.4765625 0.47265625 C-15.20904648 0.05416161 -15.20904648 0.05416161 -13.91592407 -0.37278748 C-8.48320541 -2.02305409 -5.28653123 -2.18560525 0 0 Z " fill="#000000" transform="translate(509,291)"/>
<path d="M0 0 C10.86117303 2.62035293 23.1252352 6.15057683 31.984375 13.1640625 C31.984375 17.1640625 31.984375 17.1640625 29.953125 19.2265625 C26.60860457 21.40930215 23.22534456 22.83943904 19.484375 24.1640625 C18.85273438 24.39867187 18.22109375 24.63328125 17.5703125 24.875 C6.48619717 28.91744206 -4.68595726 31.9245805 -16.265625 34.1640625 C-16.91280487 34.29068268 -17.55998474 34.41730286 -18.22677612 34.54776001 C-68.86412461 44.44863258 -68.86412461 44.44863258 -92.015625 44.1640625 C-91.38538964 37.70415009 -88.99250352 33.3325772 -84.71875 28.64453125 C-79.83794731 24.71448604 -73.44692946 24.16664106 -67.453125 23.0390625 C-65.034958 22.55828776 -62.61698801 22.07652098 -60.19921875 21.59375 C-59.00200195 21.35841553 -57.80478516 21.12308105 -56.57128906 20.88061523 C-28.08890213 16.17102082 -28.08890213 16.17102082 -4.01171875 1.96484375 C-2.015625 0.1640625 -2.015625 0.1640625 0 0 Z " fill="#FBDD2F" transform="translate(464.015625,240.8359375)"/>
<path d="M0 0 C0.63421875 0.433125 1.2684375 0.86625 1.921875 1.3125 C0.10772505 2.5219333 -1.71862591 3.71369288 -3.56640625 4.87109375 C-4.96439453 5.80115234 -4.96439453 5.80115234 -6.390625 6.75 C-7.31488281 7.34683594 -8.23914063 7.94367188 -9.19140625 8.55859375 C-18.24846814 17.19895726 -21.06490964 30.59651902 -24.703125 42.1875 C-25.26721707 43.95475046 -25.83231543 45.72168004 -26.3984375 47.48828125 C-29.06701724 55.83795081 -31.68159401 64.2037744 -34.23193359 72.59033203 C-35.14013724 75.5119912 -36.10165399 78.41301713 -37.078125 81.3125 C-37.738125 81.3125 -38.398125 81.3125 -39.078125 81.3125 C-41.97990308 73.52091716 -44.68915384 65.71769975 -46.89208984 57.6965332 C-48.26622417 52.78202679 -49.90018613 48.0235955 -51.67578125 43.23828125 C-59.10511898 22.79919975 -59.10511898 22.79919975 -57.19140625 16.83984375 C-55.13474588 13.38513921 -53.05988459 10.99564449 -50.078125 8.3125 C-48.99724609 7.14654297 -48.99724609 7.14654297 -47.89453125 5.95703125 C-35.15380714 -6.87720276 -15.49398456 -9.24502946 0 0 Z " fill="#FCDD2F" transform="translate(294.078125,401.6875)"/>
<path d="M0 0 C2.57445261 0.75507331 3.88371652 1.86477453 5.85696411 3.67500305 C6.55267517 4.31040009 7.24838623 4.94579712 7.96517944 5.60044861 C11.36106097 8.81599066 14.71085495 12.07073318 18.02053833 15.37495422 C18.73694489 16.08803238 19.45335144 16.80111053 20.19146729 17.53579712 C21.69015489 19.02946162 23.18752703 20.5244471 24.68362427 22.02070618 C26.97542282 24.31029825 29.27513082 26.5917473 31.57522583 28.8730011 C33.03665181 30.33149618 34.49760632 31.79046386 35.95803833 33.24995422 C36.64445404 33.92918442 37.33086975 34.60841461 38.03808594 35.30822754 C38.67279816 35.94601639 39.30751038 36.58380524 39.9614563 37.24092102 C40.51912689 37.7971666 41.07679749 38.35341217 41.65136719 38.92651367 C44.32838362 42.06332041 45.11471682 43.94498769 44.96585083 48.11323547 C44.01341888 51.92296328 43.16878918 53.25951791 40.09085083 55.61323547 C36.15029822 56.92675301 32.36825267 56.79558525 28.25881958 56.81636047 C26.95476921 56.82491058 26.95476921 56.82491058 25.62437439 56.83363342 C23.78435481 56.84307825 21.94431835 56.84961535 20.10427856 56.85346985 C17.29936939 56.86316284 14.49519704 56.89418557 11.69046021 56.92573547 C9.900751 56.93226715 8.11103657 56.93751697 6.32131958 56.94136047 C5.06946114 56.95988068 5.06946114 56.95988068 3.79231262 56.97877502 C-1.17594197 56.95991789 -4.62736485 56.41442579 -8.90914917 53.61323547 C-10.98294071 50.50254817 -11.16711479 49.76102243 -11.21554565 46.22114563 C-11.23153305 45.33657684 -11.24752045 44.45200806 -11.26399231 43.54063416 C-11.26935501 42.58748322 -11.27471771 41.63433228 -11.28024292 40.65229797 C-11.28927139 39.66957916 -11.29829987 38.68686035 -11.30760193 37.67436218 C-11.32211299 35.59477285 -11.33099329 33.51513778 -11.33468628 31.4355011 C-11.34657903 28.25698222 -11.39575371 25.08040681 -11.44625854 21.90229797 C-11.45572318 19.88147411 -11.46295802 17.86063833 -11.46774292 15.83979797 C-11.48727524 14.8906955 -11.50680756 13.94159302 -11.52693176 12.96372986 C-11.49577446 8.39669334 -11.40409264 6.27964921 -8.61251831 2.52095032 C-5.68969916 0.45837388 -3.60133728 -0.2349154 0 0 Z " fill="#000000" transform="translate(407.9091491699219,52.38676452636719)"/>
<path d="M0 0 C23.76 0 47.52 0 72 0 C68.59868938 3.40131062 67.0263564 4.7288834 62.875 6.5625 C62.00617188 6.95566406 61.13734375 7.34882813 60.2421875 7.75390625 C51.89577543 10.96174414 44.59903329 12.53108089 35.625 12.4375 C34.61348877 12.43065186 33.60197754 12.42380371 32.55981445 12.41674805 C25.09670036 12.25632204 18.78177732 11.25945887 12 8 C11.05511719 7.57976562 10.11023438 7.15953125 9.13671875 6.7265625 C2.38270021 3.57405031 2.38270021 3.57405031 0 0 Z " fill="#F6C300" transform="translate(220,305)"/>
<path d="M0 0 C3.3512164 1.26549173 6.36898504 2.70187898 9.42578125 4.56640625 C10.22177734 5.05173828 11.01777344 5.53707031 11.83789062 6.03710938 C12.65451172 6.54048828 13.47113281 7.04386719 14.3125 7.5625 C15.14845703 8.06974609 15.98441406 8.57699219 16.84570312 9.09960938 C21.42426644 11.90654901 21.42426644 11.90654901 23 13 C23 13.33 23 13.66 23 14 C18.68790665 15.0017591 14.37525963 16.00111358 10.0625 17 C8.83080078 17.28617188 7.59910156 17.57234375 6.33007812 17.8671875 C5.16025391 18.13789063 3.99042969 18.40859375 2.78515625 18.6875 C1.70113525 18.93886719 0.61711426 19.19023437 -0.49975586 19.44921875 C-3 20 -3 20 -4 20 C-3.34034961 13.13963599 -1.7637236 6.65556077 0 0 Z " fill="#F4CB01" transform="translate(22,185)"/>
<path d="M0 0 C0 8.58 0 17.16 0 26 C-6.9516801 22.20817449 -12.96035899 18.88016838 -19 14 C-17.84720472 10.54161417 -17.19037852 10.1888042 -14.21875 8.30078125 C-13.45949219 7.81416016 -12.70023438 7.32753906 -11.91796875 6.82617188 C-11.12003906 6.32666016 -10.32210937 5.82714844 -9.5 5.3125 C-8.70207031 4.80138672 -7.90414062 4.29027344 -7.08203125 3.76367188 C-1.1626648 0 -1.1626648 0 0 0 Z " fill="#F8CF01" transform="translate(193,22)"/>
<path d="M0 0 C4.64785054 3.98387189 9.12016468 7.93808166 13.4375 12.25 C13.97826172 12.77851563 14.51902344 13.30703125 15.07617188 13.8515625 C16.42462488 15.19490127 17.71765287 16.59341891 19 18 C19 18.66 19 19.32 19 20 C9.595 22.97 9.595 22.97 0 26 C0 17.42 0 8.84 0 0 Z " fill="#F9D002" transform="translate(319,468)"/>
<path d="M0 0 C-0.69289741 5.86608292 -1.57151933 11.67739587 -2.5625 17.5 C-2.70107422 18.32242187 -2.83964844 19.14484375 -2.98242188 19.9921875 C-3.32011303 21.99504541 -3.65984185 23.99755959 -4 26 C-4.66 26 -5.32 26 -6 26 C-7.7288446 23.78185976 -9.34666947 21.56393531 -10.9375 19.25 C-11.82128368 17.98414391 -12.70539017 16.71851313 -13.58984375 15.453125 C-14.00347168 14.85177734 -14.41709961 14.25042969 -14.84326172 13.63085938 C-15.79579676 12.28790157 -16.82787474 11.00173109 -17.87890625 9.734375 C-18.24886719 9.16203125 -18.61882812 8.5896875 -19 8 C-18.67 7.01 -18.34 6.02 -18 5 C-15.33939312 3.95402498 -12.79915161 3.09541416 -10.0625 2.3125 C-8.9497168 1.97508789 -8.9497168 1.97508789 -7.81445312 1.63085938 C-2.34686075 0 -2.34686075 0 0 0 Z " fill="#F1C901" transform="translate(495,308)"/>
<path d="M0 0 C5.94 0 11.88 0 18 0 C17.67 7.26 17.34 14.52 17 22 C11.36590585 16.36590585 11.36590585 16.36590585 9.39453125 13.80859375 C8.75547852 12.98004883 8.75547852 12.98004883 8.10351562 12.13476562 C7.67748047 11.57466797 7.25144531 11.01457031 6.8125 10.4375 C6.37486328 9.87353516 5.93722656 9.30957031 5.48632812 8.72851562 C3.30133648 5.87635096 1.61729602 3.23459204 0 0 Z " fill="#F8CF01" transform="translate(81,419)"/>
<path d="M0 0 C4.0743356 0.84881992 5.54405875 2.30225596 8 5.625 C8.625 8.625 8.625 8.625 8 11.625 C5.54405875 14.94774404 4.0743356 16.40118008 0 17.25 C-4.0743356 16.40118008 -5.54405875 14.94774404 -8 11.625 C-8.625 8.625 -8.625 8.625 -8 5.625 C-5.54405875 2.30225596 -4.0743356 0.84881992 0 0 Z " fill="#000000" transform="translate(337,26.375)"/>
<path d="M0 0 C2.55078958 2.22165544 2.93332671 3.60829443 3.5 6.9375 C2.81303325 11.14517131 1.4272611 12.52070473 -2 15 C-5.5625 15.625 -5.5625 15.625 -9 15 C-11.97118368 12.40973731 -12.88008526 10.83940315 -13.4375 6.9375 C-12.95374115 3.68940486 -12.30588726 2.30588726 -10 0 C-6.20519658 -1.26493447 -3.87641726 -0.89988258 0 0 Z " fill="#000000" transform="translate(433,476)"/>
<path d="M0 0 C4.83445946 1.43243243 4.83445946 1.43243243 6.375 4 C7.375 7.375 7.375 7.375 7.375 11 C5.375 13.9375 5.375 13.9375 2.375 16 C-1.61548721 16.63007693 -3.64185857 16.63021887 -7.0625 14.4375 C-9.25521887 11.01685857 -9.25507693 8.99048721 -8.625 5 C-5.93921083 1.09339758 -4.80084596 0 0 0 Z " fill="#000000" transform="translate(29.625,475)"/>
<path d="M0 0 C2.5 1.5625 2.5 1.5625 4 4 C4.45746657 7.65973254 4.46134558 10.02604821 2.875 13.375 C0.25065402 15.64943318 -1.54847562 15.93096951 -5 16 C-8.52906067 14.39588152 -9.82772908 13.25840638 -12 10 C-11.82135713 6.66533315 -11.55604977 4.0139731 -9.9375 1.0625 C-6.73507415 -0.69366901 -3.50309274 -0.62026592 0 0 Z " fill="#000000" transform="translate(74,89)"/>
<path d="M0 0 C2.83336378 1.75863959 3.02887833 3.103962 3.9375 6.375 C4 10 4 10 2.5625 12.9375 C-0.52371837 15.42152942 -2.22278458 15.68849662 -6.09375 15.4140625 C-8 15 -8 15 -10.5 13.4375 C-12.56851618 10.0761612 -12.48505011 7.88040089 -12 4 C-9.06642758 -1.30836915 -5.57456664 -1.39364166 0 0 Z " fill="#000000" transform="translate(412,14)"/>
<path d="M0 0 C2.81972931 2.36493426 2.97850831 3.8280665 3.4375 7.5 C3 11 3 11 1.4375 13.4375 C-1.91852406 15.58879747 -4.08421671 15.48947291 -8 15 C-10.375 13.9375 -10.375 13.9375 -12 12 C-12.87281149 8.57109774 -13.32922829 6.10740423 -12.3125 2.6875 C-8.86456992 -1.74555296 -5.18817694 -1.32062686 0 0 Z " fill="#000000" transform="translate(454,405)"/>
<path d="M0 0 C3 2.0625 3 2.0625 5 5 C5 8.54595558 4.72088444 10.86176141 2.8125 13.875 C0.15800608 15.52261692 -1.88327487 15.87533099 -5 16 C-9.56521739 13.86956522 -9.56521739 13.86956522 -11 11 C-11.35519903 7.16385043 -11.54724594 4.85370366 -9.4375 1.5625 C-6.01685857 -0.63021887 -3.99048721 -0.63007693 0 0 Z " fill="#000000" transform="translate(32,311)"/>
<path d="M0 0 C2.81972931 2.36493426 2.97850831 3.8280665 3.4375 7.5 C3 11 3 11 1.4375 13.4375 C-1.98314143 15.63021887 -4.00951279 15.63007693 -8 15 C-11 12.9375 -11 12.9375 -13 10 C-13 6.34256132 -12.81308469 4.06054525 -10.5625 1.125 C-6.85652131 -1.54330466 -4.40182162 -1.00392423 0 0 Z " fill="#000000" transform="translate(488,186)"/>
<path d="M0 0 C2.94427735 2.06895165 3.84332955 3.50909927 4.9375 6.9375 C5.01221891 10.59872681 4.21363944 12.1304674 2 15 C-0.85324437 16.42662219 -2.83454549 16.31033868 -6 16 C-8.875 14.5 -8.875 14.5 -11 12 C-11.71730941 9.1770404 -11.71730941 6.8229596 -11 4 C-7.74010218 0.16482609 -4.95707565 -0.84375756 0 0 Z " fill="#000000" transform="translate(100,61)"/>
<path d="M0 0 C2 2 2 2 2.375 5.875 C2.27899431 8.80850708 2.05255079 9.91241536 0.5 12.5 C-3.25648836 14.75389302 -5.64579381 14.48380069 -10 14 C-12.73883355 12.40970955 -12.94967699 11.16534703 -13.875 8.125 C-14.02602779 4.34930535 -13.35110647 2.91861492 -11 0 C-7.28657745 -3.05031138 -4.21713119 -1.56190044 0 0 Z " fill="#000000" transform="translate(47,50)"/>
<path d="M0 0 C2.4375 1.5 2.4375 1.5 4 4 C4.61014545 6.8089715 4.65360928 9.19636021 4 12 C1.9375 14.5625 1.9375 14.5625 -1 16 C-4.5241557 15.93923869 -6.91616966 15.72255356 -9.875 13.75 C-11.39898926 11.37935004 -11.86819981 9.83370413 -12 7 C-9.28600098 0.27962146 -7.19984817 -0.62067657 0 0 Z " fill="#000000" transform="translate(198,449)"/>
<path d="M0 0 C2.4375 1.5 2.4375 1.5 4 4 C4.61014545 6.8089715 4.65360928 9.19636021 4 12 C1.9375 14.5625 1.9375 14.5625 -1 16 C-4.5241557 15.93923869 -6.91616966 15.72255356 -9.875 13.75 C-11.39898926 11.37935004 -11.86819981 9.83370413 -12 7 C-9.28600098 0.27962146 -7.19984817 -0.62067657 0 0 Z " fill="#000000" transform="translate(45,435)"/>
<path d="M0 0 C2.72235378 1.934304 3.75092091 3.30613681 4.875 6.4375 C5.0272951 9.55954946 4.54137619 11.28424195 3 14 C0.3402643 16.16719206 -1.08837596 15.99534863 -4.5625 15.8125 C-8 15 -8 15 -9.9375 13.9375 C-11.69366901 10.73507415 -11.62026592 7.50309274 -11 4 C-8.16250305 -0.53999512 -5.10870514 -0.72981502 0 0 Z " fill="#000000" transform="translate(405,435)"/>
<path d="M0 0 C3.18288539 1.59144269 4.66469495 2.41417647 7.015625 4.78515625 C7.80839844 5.58083008 7.80839844 5.58083008 8.6171875 6.39257812 C9.15601563 6.94365234 9.69484375 7.49472656 10.25 8.0625 C10.80429687 8.61744141 11.35859375 9.17238281 11.9296875 9.74414062 C16 13.85956743 16 13.85956743 16 15 C10.72 15 5.44 15 0 15 C0 10.05 0 5.1 0 0 Z " fill="#E7C101" transform="translate(412,78)"/>
</svg>
